<svg width="20" height="20" viewBox="0 0 20 20" fill="none" xmlns="http://www.w3.org/2000/svg">
<path d="M15.9383 6.87428V14.9993C15.9383 15.2479 15.8396 15.4864 15.6638 15.6622C15.4879 15.838 15.2495 15.9368 15.0008 15.9368H6.87585C6.6272 15.9368 6.38875 15.838 6.21293 15.6622C6.03712 15.4864 5.93835 15.2479 5.93835 14.9993C5.93835 14.7506 6.03712 14.5122 6.21293 14.3364C6.38875 14.1606 6.6272 14.0618 6.87585 14.0618H12.7352L4.33756 5.66178C4.25036 5.57458 4.18118 5.47105 4.13399 5.35711C4.08679 5.24317 4.0625 5.12105 4.0625 4.99772C4.0625 4.74865 4.16144 4.50978 4.33756 4.33366C4.51368 4.15754 4.75255 4.05859 5.00163 4.05859C5.2507 4.05859 5.48957 4.15754 5.66569 4.33366L14.0633 12.7337V6.87428C14.0633 6.62564 14.1621 6.38718 14.3379 6.21137C14.5137 6.03555 14.7522 5.93678 15.0008 5.93678C15.2495 5.93678 15.4879 6.03555 15.6638 6.21137C15.8396 6.38718 15.9383 6.62564 15.9383 6.87428Z" fill="#E0E0E0"/>
</svg>
