<svg width="11" height="11" viewBox="0 0 11 11" fill="none" xmlns="http://www.w3.org/2000/svg">
<path d="M11 2.60803V10.1338C11 10.3641 10.9085 10.585 10.7457 10.7478C10.5828 10.9107 10.3619 11.0022 10.1316 11.0022H2.60586C2.37556 11.0022 2.15469 10.9107 1.99184 10.7478C1.82899 10.585 1.7375 10.3641 1.7375 10.1338C1.7375 9.90351 1.82899 9.68264 1.99184 9.51979C2.15469 9.35694 2.37556 9.26545 2.60586 9.26545H8.03311L0.254778 1.48495C0.174003 1.40418 0.109929 1.30829 0.0662144 1.20275C0.0224996 1.09721 0 0.984098 0 0.869865C0 0.639163 0.0916461 0.417909 0.254778 0.254778C0.417909 0.0916461 0.639163 0 0.869866 0C1.10057 0 1.32182 0.0916461 1.48495 0.254778L9.26328 8.03528V2.60803C9.26328 2.37773 9.35477 2.15686 9.51762 1.99401C9.68047 1.83116 9.90134 1.73967 10.1316 1.73967C10.3619 1.73967 10.5828 1.83116 10.7457 1.99401C10.9085 2.15686 11 2.37773 11 2.60803Z" fill="#ED5518"/>
</svg>
