<svg width="19" height="20" viewBox="0 0 19 20" fill="none" xmlns="http://www.w3.org/2000/svg">
<path d="M14.9383 13.1257V5.00072C14.9383 4.75208 14.8396 4.51362 14.6638 4.33781C14.4879 4.16199 14.2495 4.06322 14.0008 4.06322H5.87585C5.6272 4.06322 5.38875 4.16199 5.21293 4.33781C5.03712 4.51362 4.93835 4.75208 4.93835 5.00072C4.93835 5.24936 5.03712 5.48781 5.21293 5.66363C5.38875 5.83944 5.6272 5.93822 5.87585 5.93822H11.7352L3.33756 14.3382C3.25036 14.4254 3.18118 14.529 3.13399 14.6429C3.08679 14.7568 3.0625 14.879 3.0625 15.0023C3.0625 15.2514 3.16144 15.4902 3.33756 15.6663C3.51368 15.8425 3.75255 15.9414 4.00163 15.9414C4.2507 15.9414 4.48957 15.8425 4.66569 15.6663L13.0633 7.26634V13.1257C13.0633 13.3744 13.1621 13.6128 13.3379 13.7886C13.5137 13.9644 13.7522 14.0632 14.0008 14.0632C14.2495 14.0632 14.4879 13.9644 14.6638 13.7886C14.8396 13.6128 14.9383 13.3744 14.9383 13.1257Z" fill="white"/>
</svg>
