<svg width="24" height="24" viewBox="0 0 24 24" fill="none" xmlns="http://www.w3.org/2000/svg">
<path fill-rule="evenodd" clip-rule="evenodd" d="M21 12C21 11.5858 20.6642 11.25 20.25 11.25H3.75C3.33578 11.25 3 11.5858 3 12C3 12.4142 3.33578 12.75 3.75 12.75H20.25C20.6642 12.75 21 12.4142 21 12Z" fill="white"/>
<path fill-rule="evenodd" clip-rule="evenodd" d="M11.0303 4.71967C10.7375 4.42678 10.2626 4.42678 9.96969 4.71967L3.21969 11.4697C2.92682 11.7625 2.92682 12.2375 3.21969 12.5303L9.96969 19.2803C10.2626 19.5732 10.7375 19.5732 11.0303 19.2803C11.3232 18.9874 11.3232 18.5126 11.0303 18.2197L4.81067 12L11.0303 5.78033C11.3232 5.48743 11.3232 5.01257 11.0303 4.71967Z" fill="white"/>
</svg>
