<svg width="29" height="29" viewBox="0 0 29 29" fill="none" xmlns="http://www.w3.org/2000/svg">
<g clip-path="url(#clip0_37634_320)">
<path d="M7.73173 12.1545L13.477 6.40924C13.6528 6.23343 13.8912 6.13466 14.1399 6.13466C14.3885 6.13466 14.627 6.23343 14.8028 6.40924L20.548 12.1545C20.7239 12.3303 20.8226 12.5688 20.8226 12.8174C20.8226 13.066 20.7239 13.3045 20.548 13.4803C20.3722 13.6561 20.1338 13.7549 19.8851 13.7549C19.6365 13.7549 19.398 13.6561 19.2222 13.4803L15.079 9.33711L15.0774 21.2148C15.0774 21.3382 15.0531 21.4603 15.0059 21.5742C14.9587 21.6882 14.8895 21.7917 14.8023 21.8789C14.6262 22.055 14.3873 22.154 14.1382 22.154C13.8892 22.154 13.6503 22.055 13.4742 21.8789C13.298 21.7028 13.1991 21.4639 13.1991 21.2148L13.2008 9.33711L9.05756 13.4803C8.88174 13.6561 8.64328 13.7549 8.39464 13.7549C8.146 13.7549 7.90754 13.6561 7.73173 13.4803C7.55591 13.3045 7.45714 13.066 7.45714 12.8174C7.45714 12.5688 7.55591 12.3303 7.73173 12.1545Z" fill="white"/>
</g>
<defs>
<clipPath id="clip0_37634_320">
<rect width="20" height="20" fill="white" transform="translate(14.1421 28.2852) rotate(-135)"/>
</clipPath>
</defs>
</svg>
