<svg width="22" height="22" viewBox="0 0 22 22" fill="none" xmlns="http://www.w3.org/2000/svg">
<path fill-rule="evenodd" clip-rule="evenodd" d="M2.75 11C2.75 10.6203 3.05781 10.3125 3.4375 10.3125H18.5625C18.9422 10.3125 19.25 10.6203 19.25 11C19.25 11.3797 18.9422 11.6875 18.5625 11.6875H3.4375C3.05781 11.6875 2.75 11.3797 2.75 11Z" fill="white"/>
<path fill-rule="evenodd" clip-rule="evenodd" d="M11.8889 4.32636C12.1573 4.05788 12.5926 4.05788 12.8611 4.32636L19.0486 10.5139C19.3171 10.7823 19.3171 11.2177 19.0486 11.4861L12.8611 17.6736C12.5926 17.9421 12.1573 17.9421 11.8889 17.6736C11.6204 17.4052 11.6204 16.9698 11.8889 16.7014L17.5902 11L11.8889 5.29864C11.6204 5.03015 11.6204 4.59485 11.8889 4.32636Z" fill="white"/>
</svg>
