<svg width="17" height="17" viewBox="0 0 17 17" fill="none" xmlns="http://www.w3.org/2000/svg">
<path fill-rule="evenodd" clip-rule="evenodd" d="M7.36951 15.868C3.30449 15.868 0 12.5635 0 8.49845C0 4.43344 3.30449 1.12891 7.36951 1.12891C9.41586 1.12891 11.3239 1.94469 12.7342 3.43793C12.8056 3.51832 12.7977 3.60836 12.7521 3.67382L13.1846 4.23916C13.2671 4.19716 13.3742 4.20583 13.4395 4.30897C14.2967 5.53954 14.7392 6.99133 14.7392 8.49841C14.7391 12.5635 11.4346 15.868 7.36951 15.868ZM7.36951 14.3471C4.14792 14.3471 1.52089 11.72 1.52089 8.49845C1.52089 5.27687 4.14792 2.6498 7.36951 2.6498C8.90424 2.6498 10.3561 3.24432 11.4484 4.309C11.5362 4.39567 11.5225 4.49909 11.4654 4.56866L12.0129 5.24824C12.0965 5.19937 12.2119 5.20408 12.2779 5.30451C14.7636 9.08713 12.066 14.3471 7.36951 14.3471Z" fill="#ED5518"/>
<path fill-rule="evenodd" clip-rule="evenodd" d="M7.5607 12.2869C7.47776 12.2869 7.40862 12.2316 7.38097 12.1625C7.36717 12.1348 6.17805 9.06534 4.33911 7.90391C3.97962 7.68269 3.70314 7.44762 3.81373 6.9222C3.92432 6.41062 4.27001 6.12026 4.89218 5.98199C5.99828 5.74692 7.18736 7.46143 7.62984 8.16662C9.17838 5.91289 12.2755 2.37325 16.783 1.95846C17.0004 1.93297 17.0808 2.25529 16.8798 2.34561C16.8106 2.37325 10.3674 5.31837 7.75424 12.1763C7.71278 12.2454 7.64365 12.2869 7.5607 12.2869Z" fill="#ED5518"/>
</svg>
