<svg width="40" height="40" viewBox="0 0 40 40" fill="none" xmlns="http://www.w3.org/2000/svg">
<path d="M35.5217 17.3101C36.7208 16.3959 37.5 14.9568 37.5 13.3359C37.5 10.5784 35.2575 8.33594 32.5 8.33594C29.7425 8.33594 27.5 10.5784 27.5 13.3359C27.5 14.9626 28.2842 16.4051 29.49 17.3193C29.3625 17.3759 29.2317 17.4243 29.1083 17.4884C28.7 17.7001 28.54 18.2034 28.7517 18.6118C28.9642 19.0209 29.4683 19.1793 29.875 18.9676C30.6717 18.5543 31.58 18.3359 32.5 18.3359C35.7158 18.3359 38.3333 20.9526 38.3333 24.1693V27.5026C38.3333 28.8809 37.2117 30.0026 35.8333 30.0026H31.6167C31.1558 30.0026 30.7833 30.3759 30.7833 30.8359C30.7833 31.2959 31.1558 31.6693 31.6167 31.6693H35.8333C38.1308 31.6693 40 29.8001 40 27.5026V24.1693C40 21.1093 38.1558 18.4751 35.5217 17.3101ZM29.1667 13.3359C29.1667 11.4976 30.6617 10.0026 32.5 10.0026C34.3383 10.0026 35.8333 11.4976 35.8333 13.3359C35.8333 15.1743 34.3383 16.6693 32.5 16.6693C30.6617 16.6693 29.1667 15.1743 29.1667 13.3359Z" fill="#ED5518"/>
<path d="M11.2483 18.6118C11.46 18.2034 11.3 17.7001 10.8917 17.4884C10.7683 17.4243 10.6375 17.3759 10.51 17.3193C11.7158 16.4059 12.5 14.9626 12.5 13.3359C12.5 10.5784 10.2575 8.33594 7.5 8.33594C4.7425 8.33594 2.5 10.5784 2.5 13.3359C2.5 14.9568 3.27917 16.3959 4.47833 17.3101C1.84417 18.4751 0 21.1093 0 24.1693V27.5026C0 29.8001 1.86917 31.6693 4.16667 31.6693H8.38333C8.84417 31.6693 9.21667 31.2959 9.21667 30.8359C9.21667 30.3759 8.84417 30.0026 8.38333 30.0026H4.16667C2.78833 30.0026 1.66667 28.8809 1.66667 27.5026V24.1693C1.66667 20.9526 4.28417 18.3359 7.5 18.3359C8.42 18.3359 9.32833 18.5543 10.125 18.9676C10.5308 19.1776 11.0358 19.0201 11.2483 18.6118ZM4.16667 13.3359C4.16667 11.4976 5.66167 10.0026 7.5 10.0026C9.33833 10.0026 10.8333 11.4976 10.8333 13.3359C10.8333 15.1743 9.33833 16.6693 7.5 16.6693C5.66167 16.6693 4.16667 15.1743 4.16667 13.3359Z" fill="#ED5518"/>
<path d="M23.3151 16.4651C24.8359 15.4109 25.8359 13.6559 25.8359 11.6693C25.8359 8.4526 23.2184 5.83594 20.0026 5.83594C16.7868 5.83594 14.1693 8.4526 14.1693 11.6693C14.1693 13.6559 15.1693 15.4109 16.6901 16.4651C13.2701 17.7968 10.8359 21.1176 10.8359 25.0026V30.0026C10.8359 32.3001 12.7051 34.1693 15.0026 34.1693H25.0026C27.3001 34.1693 29.1693 32.3001 29.1693 30.0026V25.0026C29.1693 21.1168 26.7351 17.7968 23.3151 16.4651ZM15.8359 11.6693C15.8359 9.37177 17.7051 7.5026 20.0026 7.5026C22.3001 7.5026 24.1693 9.37177 24.1693 11.6693C24.1693 13.9668 22.3001 15.8359 20.0026 15.8359C17.7051 15.8359 15.8359 13.9668 15.8359 11.6693ZM27.5026 30.0026C27.5026 31.3809 26.3809 32.5026 25.0026 32.5026H15.0026C13.6243 32.5026 12.5026 31.3809 12.5026 30.0026V25.0026C12.5026 20.8676 15.8668 17.5026 20.0026 17.5026C24.1384 17.5026 27.5026 20.8676 27.5026 25.0026V30.0026Z" fill="#ED5518"/>
</svg>
