<svg width="40" height="40" viewBox="0 0 40 40" fill="none" xmlns="http://www.w3.org/2000/svg">
<path d="M24.583 32.9864C22.3551 32.9837 20.2192 32.0975 18.6439 30.5222C17.0685 28.9468 16.1823 26.8109 16.1797 24.583C16.1823 22.3551 17.0685 20.2192 18.6439 18.6439C20.2192 17.0685 22.3551 16.1823 24.583 16.1797C26.8109 16.1823 28.9468 17.0685 30.5222 18.6439C32.0975 20.2192 32.9837 22.3551 32.9864 24.583C32.9837 26.8109 32.0975 28.9468 30.5222 30.5222C28.9468 32.0975 26.8109 32.9837 24.583 32.9864ZM24.583 17.708C22.7603 17.7102 21.0129 18.4353 19.7241 19.7241C18.4353 21.0129 17.7102 22.7603 17.708 24.583C17.7102 26.4057 18.4353 28.1531 19.7241 29.4419C21.0129 30.7308 22.7603 31.4558 24.583 31.458C26.4057 31.4558 28.1531 30.7308 29.4419 29.4419C30.7308 28.1531 31.4558 26.4057 31.458 24.583C31.4558 22.7603 30.7308 21.0129 29.4419 19.7241C28.1531 18.4353 26.4057 17.7102 24.583 17.708Z" fill="#ED5518"/>
<path d="M23.281 27.4098L20.9893 25.1181C20.9184 25.0472 20.8621 24.963 20.8238 24.8704C20.7854 24.7777 20.7656 24.6784 20.7656 24.5781C20.7656 24.4778 20.7854 24.3785 20.8238 24.2859C20.8621 24.1932 20.9184 24.109 20.9893 24.0381C21.0602 23.9672 21.1444 23.911 21.2371 23.8726C21.3297 23.8342 21.429 23.8144 21.5293 23.8144C21.6296 23.8144 21.7289 23.8342 21.8215 23.8726C21.9142 23.911 21.9984 23.9672 22.0693 24.0381L23.7693 25.7381L27.0526 21.7981C27.1824 21.6425 27.3686 21.5448 27.5704 21.5266C27.7721 21.5083 27.9729 21.5709 28.1285 21.7006C28.2841 21.8304 28.3817 22.0166 28.4 22.2183C28.4183 22.4201 28.3557 22.6209 28.226 22.7765L24.4076 27.3598C24.3395 27.4411 24.2552 27.5073 24.1601 27.5542C24.0651 27.6012 23.9612 27.6279 23.8553 27.6326C23.7494 27.6373 23.6436 27.6199 23.5447 27.5815C23.4458 27.5432 23.356 27.4847 23.281 27.4098Z" fill="#ED5518"/>
<path d="M16.1745 29.1611C16.1745 29.3636 16.0941 29.5578 15.9509 29.7009C15.8078 29.8441 15.6136 29.9245 15.4111 29.9245H10.8278C9.81524 29.9236 8.84438 29.5211 8.12823 28.8052C7.41208 28.0894 7.00914 27.1187 7.00781 26.1061V10.8278C7.0087 9.81496 7.41144 8.84384 8.12764 8.12764C8.84384 7.41144 9.81496 7.0087 10.8278 7.00781H26.1061C27.1187 7.00914 28.0894 7.41208 28.8052 8.12823C29.5211 8.84438 29.9236 9.81524 29.9245 10.8278V15.4111C29.9245 15.6136 29.8441 15.8078 29.7009 15.9509C29.5578 16.0941 29.3636 16.1745 29.1611 16.1745C28.9587 16.1745 28.7645 16.0941 28.6214 15.9509C28.4782 15.8078 28.3978 15.6136 28.3978 15.4111V10.8278C28.3978 9.56448 27.3695 8.53615 26.1061 8.53615H10.8278C9.56448 8.53615 8.53615 9.56448 8.53615 10.8278V26.1061C8.53615 27.3695 9.56448 28.3978 10.8278 28.3978H15.4111C15.8328 28.3978 16.1745 28.7395 16.1745 29.1611Z" fill="#ED5518"/>
<path d="M20.0768 14.0176L18.8101 13.3842C18.704 13.3303 18.5866 13.3023 18.4676 13.3023C18.3486 13.3023 18.2312 13.3303 18.1251 13.3842L16.8584 14.0176C16.6255 14.1331 16.3669 14.1874 16.1071 14.1753C15.8473 14.1632 15.5949 14.085 15.3737 13.9483C15.1525 13.8115 14.9699 13.6206 14.843 13.3936C14.716 13.1666 14.6491 12.911 14.6484 12.6509V7.77589C14.6484 7.57344 14.7289 7.37928 14.872 7.23613C15.0152 7.09297 15.2093 7.01255 15.4118 7.01255C15.6142 7.01255 15.8084 7.09297 15.9515 7.23613C16.0947 7.37928 16.1751 7.57344 16.1751 7.77589V12.6509L17.4418 12.0176C17.7605 11.8599 18.1112 11.7779 18.4668 11.7779C18.8223 11.7779 19.1731 11.8599 19.4918 12.0176L20.7584 12.6509V7.77589C20.7584 7.57322 20.8389 7.37885 20.9823 7.23554C21.1256 7.09223 21.3199 7.01172 21.5226 7.01172C21.7253 7.01172 21.9196 7.09223 22.063 7.23554C22.2063 7.37885 22.2868 7.57322 22.2868 7.77589V12.6509C22.2861 12.911 22.2192 13.1666 22.0923 13.3936C21.9654 13.6206 21.7827 13.8115 21.5615 13.9483C21.3403 14.085 21.0879 14.1632 20.8281 14.1753C20.5683 14.1874 20.3097 14.1331 20.0768 14.0176Z" fill="#ED5518"/>
<path fill-rule="evenodd" clip-rule="evenodd" d="M28.5524 3.1924H11.4424C9.70573 3.1924 8.49406 3.1924 7.55239 3.27073C6.62739 3.34573 6.0974 3.4874 5.69406 3.69073C4.83147 4.13018 4.13018 4.83147 3.69073 5.69406C3.48573 6.0974 3.34573 6.62739 3.27073 7.55239C3.1924 8.49406 3.1924 9.70573 3.1924 11.4424V28.5524C3.1924 30.2891 3.1924 31.4991 3.27073 32.4424C3.34573 33.3674 3.4874 33.8974 3.69073 34.3007C4.13018 35.1633 4.83147 35.8646 5.69406 36.3041C6.0974 36.5091 6.62739 36.6491 7.55239 36.7241C8.49406 36.8024 9.70573 36.8024 11.4424 36.8024H28.5524C30.2891 36.8024 31.4991 36.8024 32.4424 36.7241C33.3674 36.6491 33.8974 36.5074 34.3007 36.3041C35.1633 35.8646 35.8646 35.1633 36.3041 34.3007C36.5091 33.8974 36.6491 33.3674 36.7241 32.4424C36.8024 31.4991 36.8024 30.2891 36.8024 28.5524V11.4424C36.8024 9.70573 36.8024 8.49406 36.7241 7.55239C36.6491 6.62739 36.5074 6.0974 36.3041 5.69406C35.8646 4.83147 35.1633 4.13018 34.3007 3.69073C33.8974 3.48573 33.3674 3.34573 32.4424 3.27073C31.4991 3.1924 30.2891 3.1924 28.5524 3.1924ZM2.33073 5.00073C1.66406 6.3074 1.66406 8.01906 1.66406 11.4424V28.5524C1.66406 31.9757 1.66406 33.6857 2.33073 34.9941C2.91573 36.1441 3.85073 37.0774 5.00073 37.6641C6.3074 38.3307 8.01906 38.3307 11.4424 38.3307H28.5524C31.9757 38.3307 33.6857 38.3307 34.9941 37.6641C36.1435 37.0781 37.0781 36.1435 37.6641 34.9941C38.3307 33.6874 38.3307 31.9757 38.3307 28.5524V11.4424C38.3307 8.01906 38.3307 6.30906 37.6641 5.00073C37.0782 3.85121 36.1436 2.91659 34.9941 2.33073C33.6874 1.66406 31.9757 1.66406 28.5524 1.66406H11.4424C8.01906 1.66406 6.30906 1.66406 5.00073 2.33073C3.85073 2.91573 2.9174 3.85073 2.33073 5.00073Z" fill="#ED5518"/>
</svg>
