<svg width="40" height="40" viewBox="0 0 40 40" fill="none" xmlns="http://www.w3.org/2000/svg">
<path d="M19.9972 35.2747C11.5597 35.2747 4.71969 28.435 4.71969 19.9975C4.71969 11.56 11.5597 4.72 19.9972 4.72C28.435 4.72 35.2747 11.56 35.2747 19.9975C35.2747 20.6147 35.7756 21.1153 36.3925 21.1153C37.0094 21.1153 37.51 20.6144 37.51 19.9975C37.51 10.3256 29.6691 2.48438 19.9972 2.48438C10.3253 2.48438 2.48438 10.3256 2.48438 19.9975C2.48438 29.6694 10.3253 37.5106 19.9972 37.5106C20.6144 37.5106 21.115 37.0097 21.115 36.3928C21.115 35.7759 20.6144 35.2747 19.9972 35.2747Z" fill="#ED5518"/>
<path d="M18.8819 8.07125V20.3672H12.5469C11.9303 20.3672 11.4297 20.8681 11.4297 21.485C11.4297 22.1028 11.9306 22.6034 12.5469 22.6034H19.9997C20.6169 22.6034 21.1175 22.1025 21.1175 21.485V8.07125C21.1175 7.45375 20.6166 6.95312 19.9997 6.95312C19.3828 6.95312 18.8819 7.45406 18.8819 8.07125Z" fill="#ED5518"/>
<path d="M28.9375 20.3672C24.2041 20.3672 20.3672 24.2041 20.3672 28.9375C20.3672 33.6712 24.2037 37.5081 28.9375 37.5081C33.6706 37.5081 37.5075 33.6716 37.5075 28.9375C37.5075 24.2041 33.6709 20.3672 28.9375 20.3672ZM29.0412 32.7544C28.6691 33.2472 27.9672 33.3447 27.475 32.9725L24.0569 30.3884C23.5653 30.0169 23.4675 29.3153 23.8403 28.8225C24.2122 28.3303 24.9141 28.2328 25.4056 28.6044L27.9322 30.5144L31.4941 25.8022C31.8662 25.3097 32.5678 25.2122 33.06 25.5844C33.5522 25.9566 33.65 26.6581 33.2775 27.1506L29.0412 32.7544Z" fill="#ED5518"/>
</svg>
