<svg width="20" height="20" viewBox="0 0 20 20" fill="none" xmlns="http://www.w3.org/2000/svg">
<path d="M18.75 15V17.5C18.75 18.1894 18.1894 18.75 17.5 18.75H2.5C1.81062 18.75 1.25 18.1894 1.25 17.5V15C1.25 14.8342 1.31585 14.6753 1.43306 14.5581C1.55027 14.4408 1.70924 14.375 1.875 14.375C2.04076 14.375 2.19973 14.4408 2.31694 14.5581C2.43415 14.6753 2.5 14.8342 2.5 15V17.5H17.5V15C17.5 14.8342 17.5658 14.6753 17.6831 14.5581C17.8003 14.4408 17.9592 14.375 18.125 14.375C18.2908 14.375 18.4497 14.4408 18.5669 14.5581C18.6842 14.6753 18.75 14.8342 18.75 15Z" fill="white"/>
<path d="M5.18303 10.4419C5.06584 10.3247 5 10.1657 5 10C5 9.83426 5.06584 9.67532 5.18303 9.55813C5.30022 9.44093 5.45917 9.37509 5.62491 9.37509C5.79064 9.37509 5.94959 9.44093 6.06678 9.55813L9.37491 12.8663V1.875C9.37491 1.70924 9.44075 1.55027 9.55796 1.43306C9.67517 1.31585 9.83415 1.25 9.99991 1.25C10.1657 1.25 10.3246 1.31585 10.4418 1.43306C10.5591 1.55027 10.6249 1.70924 10.6249 1.875V12.8663L13.933 9.55813C13.9911 9.5001 14.0599 9.45407 14.1358 9.42266C14.2116 9.39126 14.2928 9.37509 14.3749 9.37509C14.457 9.37509 14.5382 9.39126 14.614 9.42266C14.6899 9.45407 14.7588 9.5001 14.8168 9.55813C14.8748 9.61615 14.9208 9.68504 14.9522 9.76086C14.9836 9.83668 14.9998 9.91794 14.9998 10C14.9998 10.0821 14.9836 10.1633 14.9522 10.2391C14.9208 10.315 14.8748 10.3838 14.8168 10.4419L10.4418 14.8169C10.3245 14.9341 10.1654 14.9999 9.99959 14.9999C9.83376 14.9999 9.67472 14.9341 9.55741 14.8169L5.18303 10.4419Z" fill="white"/>
</svg>
