<svg width="28" height="28" viewBox="0 0 28 28" fill="none" xmlns="http://www.w3.org/2000/svg">
<path d="M23.3691 19.8691L18.1191 25.1191C17.9549 25.2833 17.7322 25.3755 17.5 25.3755C17.2678 25.3755 17.0451 25.2833 16.8809 25.1191C16.7168 24.9549 16.6245 24.7322 16.6245 24.5C16.6245 24.2678 16.7168 24.0451 16.8809 23.8809L20.638 20.125H7C6.76794 20.125 6.54538 20.0328 6.38128 19.8687C6.21719 19.7046 6.125 19.4821 6.125 19.25V3.5C6.125 3.26794 6.21719 3.04538 6.38128 2.88128C6.54538 2.71719 6.76794 2.625 7 2.625C7.23206 2.625 7.45462 2.71719 7.61872 2.88128C7.78281 3.04538 7.875 3.26794 7.875 3.5V18.375H20.638L16.8809 14.6191C16.7168 14.4549 16.6245 14.2322 16.6245 14C16.6245 13.7678 16.7168 13.5451 16.8809 13.3809C17.0451 13.2168 17.2678 13.1245 17.5 13.1245C17.7322 13.1245 17.9549 13.2168 18.1191 13.3809L23.3691 18.6309C23.4504 18.7122 23.515 18.8087 23.559 18.9149C23.603 19.0212 23.6257 19.135 23.6257 19.25C23.6257 19.365 23.603 19.4789 23.559 19.5851C23.515 19.6913 23.4504 19.7878 23.3691 19.8691Z" fill="#191919"/>
</svg>
