<svg width="99" height="97" viewBox="0 0 99 97" fill="none" xmlns="http://www.w3.org/2000/svg">
<g opacity="0.6">
<path opacity="0.1" d="M90.0947 76.1875H81.9512V27.4316L49.499 10.0781L17.0488 27.4307V76.1875H8.90527V22.9492L9.4834 22.6406L10.9717 21.8447L47.4951 2.31445V2.31543L48.9834 1.51855L49.5 1.24219L50.0166 1.51855L51.5049 2.31445L88.0283 21.8447H88.0273L89.5166 22.6406L90.0947 22.9492V76.1875Z" fill="white" stroke="white" stroke-width="2.19033"/>
<path fill-rule="evenodd" clip-rule="evenodd" d="M0 57.5922V90.012L49.5 61.7601L99 90.012V57.5922L49.5 29.3398L0 57.5922Z" fill="#F17A4B"/>
<path opacity="0.1" d="M49.5781 74.2969H39.5781V84.2969H49.5781V74.2969Z" fill="white"/>
<path opacity="0.1" d="M61.7695 74.2969H51.7695V83.2969H61.7695V74.2969Z" fill="white"/>
<path opacity="0.1" d="M49.5781 86.4883H39.5781V96.4883H49.5781V86.4883Z" fill="white"/>
<path opacity="0.1" d="M61.7695 86.4883H51.7695V96.4883H61.7695V86.4883Z" fill="white"/>
</g>
</svg>
