<svg width="48" height="48" viewBox="0 0 48 48" fill="none" xmlns="http://www.w3.org/2000/svg">
<g clip-path="url(#clip0_37644_18)">
<path d="M47.25 27.0413V20.9587C47.25 20.5902 46.9824 20.2763 46.6186 20.2181L42.8978 19.6225C42.4161 17.533 41.5967 15.5567 40.4567 13.7347L42.668 10.6805C42.8842 10.3821 42.8513 9.97087 42.5909 9.71034L38.2897 5.40928C38.0293 5.14884 37.6181 5.11603 37.3195 5.33212L34.2653 7.5434C32.4428 6.40322 30.4666 5.58394 28.3775 5.10225L27.7819 1.3815C27.7237 1.01766 27.4097 0.75 27.0413 0.75H20.9586C20.5901 0.75 20.2762 1.01766 20.218 1.38141L19.6224 5.10216C17.533 5.58384 15.5567 6.40312 13.7345 7.54322L10.6804 5.33203C10.3821 5.11594 9.97078 5.14875 9.71016 5.40919L5.409 9.71025C5.14856 9.97078 5.11575 10.382 5.33194 10.6805L7.54322 13.7346C6.40266 15.5578 5.58337 17.5338 5.10206 19.6224L1.38131 20.218C1.01756 20.2763 0.75 20.5902 0.75 20.9587V27.0413C0.75 27.4098 1.01756 27.7236 1.38141 27.7819L5.10216 28.3775C5.58384 30.4668 6.40322 32.4431 7.54331 34.2653L5.33203 37.3195C5.11584 37.6179 5.14866 38.0291 5.40909 38.2896L9.71025 42.5907C9.97097 42.8513 10.3822 42.8838 10.6805 42.6679L13.7346 40.4566C15.5578 41.5971 17.5341 42.4165 19.6225 42.8977L20.2181 46.6185C20.2763 46.9822 20.5903 47.2499 20.9587 47.2499H27.0413C27.4098 47.2499 27.7237 46.9822 27.7819 46.6185L28.3162 43.2805C30.2697 45.6996 33.2582 47.2499 36.6024 47.2499C42.4735 47.25 47.25 42.4735 47.25 36.6024C47.25 33.2582 45.6997 30.2696 43.2805 28.3162L46.6185 27.7819C46.9824 27.7237 47.25 27.4099 47.25 27.0413ZM37.3972 25.9846C37.1348 25.9651 36.8698 25.955 36.6024 25.955C34.9924 25.955 33.4651 26.3149 32.0956 26.9573V25.7714C32.0956 23.9992 30.7537 22.6501 28.4137 22.0697C27.5982 21.8675 26.7836 21.7225 25.9714 21.631C27.2135 20.7592 28.0556 19.0918 28.0556 17.1811C28.0556 14.5968 26.5016 12.9913 24.0001 12.9913C21.4985 12.9913 19.9445 14.5968 19.9445 17.1811C19.9445 19.0877 20.7831 20.7519 22.0208 21.6252C21.2013 21.7165 20.3871 21.8637 19.5802 22.0712C17.2099 22.6805 15.9044 23.9946 15.9044 25.7714V32.4442C15.9044 32.8584 16.2402 33.1942 16.6544 33.1942H26.5144C26.1518 34.2648 25.955 35.4111 25.955 36.6024C25.955 36.8697 25.9651 37.1347 25.9846 37.3971C25.3285 37.4935 24.6637 37.5424 24 37.5424C16.5327 37.5424 10.4576 31.4673 10.4576 23.9999C10.4576 16.5325 16.5327 10.4575 24 10.4575C31.4673 10.4575 37.5424 16.5327 37.5424 24C37.5424 24.6637 37.4935 25.3285 37.3972 25.9846ZM28.0076 26.5553C27.5934 26.5553 27.2576 26.8911 27.2576 27.3053V31.5033C27.223 31.5665 27.1893 31.6302 27.1559 31.6942H20.7422V27.3053C20.7422 26.8911 20.4064 26.5553 19.9922 26.5553C19.578 26.5553 19.2422 26.8911 19.2422 27.3053V31.6942H17.4043V25.7713C17.4043 24.4553 18.7906 23.8228 19.9536 23.5238C22.5904 22.8457 25.315 22.8463 28.0524 23.5254C29.0022 23.761 30.5955 24.366 30.5955 25.7713V27.8159C29.9236 28.2768 29.3068 28.8124 28.7576 29.4111V27.3052C28.7576 26.8912 28.4218 26.5553 28.0076 26.5553ZM24 20.7755C22.5908 20.7755 21.4444 19.163 21.4444 17.181C21.4444 14.8406 23.0455 14.4912 24 14.4912C24.9545 14.4912 26.5555 14.8407 26.5555 17.181C26.5555 19.1631 25.4091 20.7755 24 20.7755ZM45.75 36.6024C45.75 41.6465 41.6465 45.75 36.6024 45.75C31.5585 45.75 27.455 41.6465 27.455 36.6024C27.455 31.5584 31.5585 27.455 36.6024 27.455C41.6465 27.455 45.75 31.5585 45.75 36.6024ZM45.75 26.4019L42.1546 26.9773C41.9663 27.0075 41.8021 27.1075 41.688 27.2501C40.8185 26.7754 39.8755 26.4189 38.8813 26.2013C38.9882 25.4736 39.0424 24.736 39.0424 24C39.0424 15.7056 32.2943 8.95762 23.9999 8.95762C15.7055 8.95762 8.95753 15.7057 8.95753 24C8.95753 32.2943 15.7056 39.0425 23.9999 39.0425C24.736 39.0425 25.4735 38.9883 26.2013 38.8814C26.4189 39.8756 26.7754 40.8186 27.2501 41.6882C27.1075 41.8022 27.0075 41.9664 26.9773 42.1548L26.4018 45.75H21.5981L21.0226 42.1547C20.9732 41.8459 20.7373 41.6001 20.4308 41.5382C18.1737 41.0814 16.0519 40.2018 14.1243 38.9236C13.8638 38.7509 13.5234 38.7578 13.27 38.9412L10.3188 41.0781L6.92212 37.6813L9.05888 34.73C9.24225 34.4767 9.24928 34.1362 9.0765 33.8756C7.79888 31.9494 6.91913 29.8276 6.46191 27.5692C6.39984 27.2626 6.15413 27.0268 5.84541 26.9774L2.25 26.4019V21.5981L5.84531 21.0226C6.15412 20.9732 6.39984 20.7373 6.46181 20.4308C6.91866 18.1736 7.79831 16.0519 9.07641 14.1244C9.24928 13.8638 9.24225 13.5233 9.05878 13.27L6.92203 10.3189L10.3187 6.92212L13.2699 9.05887C13.5232 9.24225 13.8637 9.24919 14.1243 9.0764C16.0505 7.79887 18.1723 6.91912 20.4308 6.46181C20.7373 6.39975 20.9731 6.15403 21.0226 5.84531L21.5981 2.25H26.4018L26.9773 5.84531C27.0267 6.15403 27.2626 6.39975 27.5691 6.46181C29.827 6.91903 31.9489 7.79878 33.8756 9.0764C34.1361 9.24909 34.4765 9.24225 34.7299 9.05878L37.6811 6.92203L41.0779 10.3188L38.9411 13.27C38.7578 13.5233 38.7507 13.8637 38.9235 14.1244C40.201 16.0504 41.0807 18.1722 41.5381 20.4308C41.6002 20.7373 41.8459 20.9731 42.1546 21.0226L45.75 21.5981V26.4019ZM39.6218 32.4738L35.1404 37.0205L33.5832 35.4633C33.1665 35.0466 32.6124 34.817 32.023 34.817C31.4336 34.817 30.8796 35.0465 30.4628 35.4632C30.046 35.8799 29.8164 36.4341 29.8164 37.0234C29.8164 37.6128 30.0459 38.1668 30.4627 38.5836L33.5863 41.7071C34.0165 42.1372 34.5815 42.3523 35.1465 42.3522C35.7115 42.3522 36.2767 42.1371 36.7068 41.707C38.2998 40.1139 41.552 36.7849 42.7476 35.5774C43.1624 35.1602 43.3899 34.6066 43.3883 34.0183C43.3867 33.43 43.156 32.8776 42.7389 32.4628C41.8779 31.6065 40.4806 31.6103 39.6218 32.4738ZM41.6828 34.521C40.4824 35.7333 37.2329 39.0597 35.646 40.6465C35.3706 40.922 34.9223 40.922 34.647 40.6465L31.5235 37.523H31.5234C31.39 37.3896 31.3165 37.2122 31.3165 37.0235C31.3165 36.8348 31.39 36.6574 31.5235 36.524C31.6569 36.3906 31.8342 36.3171 32.023 36.3171C32.2118 36.3171 32.389 36.3906 32.5225 36.524L34.614 38.6153C34.7546 38.756 34.9454 38.835 35.1442 38.835H35.147C35.3468 38.8342 35.5381 38.7538 35.6783 38.6115L40.6877 33.5293C40.9608 33.2546 41.4065 33.2535 41.6813 33.5266C41.8143 33.6589 41.8878 33.835 41.8883 34.0226C41.8887 34.2101 41.8162 34.3867 41.6828 34.521Z" fill="white"/>
</g>
<defs>
<clipPath id="clip0_37644_18">
<rect width="48" height="48" fill="white"/>
</clipPath>
</defs>
</svg>
