<svg width="48" height="48" viewBox="0 0 48 48" fill="none" xmlns="http://www.w3.org/2000/svg">
<path fill-rule="evenodd" clip-rule="evenodd" d="M26.4089 15.6297H30.8255C30.9517 15.6297 31.0759 15.6615 31.1865 15.7222C31.2971 15.783 31.3906 15.8706 31.4584 15.9771C31.5261 16.0835 31.5659 16.2053 31.5741 16.3313C31.5822 16.4572 31.5585 16.5831 31.505 16.6975L29.7377 21.0475L35.9065 13.4718H32.0026C31.8626 13.472 31.7253 13.433 31.6063 13.3591C31.4873 13.2853 31.3914 13.1796 31.3294 13.054C31.2675 12.9285 31.2419 12.788 31.2557 12.6487C31.2694 12.5093 31.322 12.3766 31.4073 12.2656L34.5924 7.34373L30.4381 7.32255L26.4089 15.63V15.6297ZM6.24108 32.3231C8.03911 32.3231 8.94614 34.5075 7.67311 35.7805C6.40008 37.0534 4.21579 36.1461 4.21579 34.3484C4.21579 33.8114 4.42914 33.2963 4.8089 32.9165C5.18866 32.5368 5.70373 32.3234 6.2408 32.3234L6.24108 32.3231ZM6.61261 33.9769C6.53916 33.9035 6.44561 33.8536 6.34379 33.8334C6.24197 33.8132 6.13645 33.8236 6.04056 33.8634C5.94467 33.9032 5.86271 33.9705 5.80506 34.0568C5.7474 34.1431 5.71663 34.2446 5.71663 34.3484C5.71663 34.4522 5.7474 34.5537 5.80506 34.64C5.86271 34.7263 5.94467 34.7936 6.04056 34.8333C6.13645 34.8731 6.24197 34.8835 6.34379 34.8633C6.44561 34.8431 6.53916 34.7932 6.61261 34.7199C6.71099 34.6213 6.76624 34.4877 6.76624 34.3484C6.76624 34.2091 6.71099 34.0755 6.61261 33.9769ZM26.791 34.6144C24.0066 34.1114 22.434 33.5098 20.1098 32.8651C19.9199 32.8112 19.7591 32.6843 19.6624 32.5122C19.5657 32.3402 19.5409 32.1369 19.5935 31.9466C19.6461 31.7564 19.7717 31.5946 19.9431 31.4967C20.1145 31.3987 20.3176 31.3725 20.5082 31.4237C21.1766 31.6098 21.7138 31.7706 22.2461 31.93C23.7086 32.3678 25.1359 32.7949 27.0198 33.1375C27.2709 33.1223 27.5153 33.0512 27.7352 32.9292C27.9552 32.8072 28.145 32.6375 28.2907 32.4325C28.4832 32.177 28.6034 31.8743 28.6386 31.5563C28.6739 31.2382 28.6229 30.9166 28.491 30.625C28.185 29.937 27.421 29.2707 26.0091 28.8321L20.8599 27.4647C20.1421 27.3218 19.4045 27.3084 18.682 27.4252C17.9057 27.5551 17.0737 27.8547 16.1386 28.3881L9.52833 32.0518L13.5158 40.2657L15.0119 39.571C17.3276 38.5219 22.3608 40.4537 25.1847 40.8449C28.2713 41.2725 29.4425 40.4556 32.1241 38.8406C39.9215 34.147 43.5858 31.0722 44.0104 30.7089L44.0116 30.7076C44.8155 29.8951 45.0889 29.0003 44.4957 28.2254C44.2825 27.9566 44.008 27.743 43.695 27.6025C43.3423 27.4418 42.9591 27.3589 42.5714 27.3596C42.1838 27.3602 41.8009 27.4442 41.4486 27.606C40.2111 28.2933 38.915 29.2678 37.5849 30.268C34.2057 32.8092 30.6181 35.5071 26.7912 34.6165V34.6152L26.791 34.6144ZM29.6241 33.1331C29.9188 32.6738 30.0943 32.1482 30.1349 31.6039C30.1754 31.0597 30.0796 30.5139 29.8562 30.016C29.3917 28.9717 28.3334 27.9914 26.454 27.4062L21.1647 26C19.1248 25.6145 17.349 25.9759 15.4001 27.0875L8.82342 30.7326C8.46088 30.272 7.95216 29.9488 7.38119 29.8163C6.81022 29.6838 6.21113 29.7499 5.68279 30.0037L3.13533 31.2406C2.52461 31.5392 2.05675 32.0673 1.83381 32.7095C1.61087 33.3517 1.65094 34.0561 1.94526 34.6689L6.89461 44.864C7.19309 45.4745 7.72085 45.9423 8.36282 46.1654C9.00479 46.3884 9.7089 46.3486 10.3216 46.0546L12.8707 44.8171C13.4428 44.5372 13.891 44.0554 14.1288 43.4645C14.3666 42.8736 14.3771 42.2156 14.1584 41.6174L15.6267 40.9358C16.7772 40.4145 19.4854 41.0764 21.8783 41.6606C23.031 41.9419 24.1154 42.2071 24.9792 42.3268C28.596 42.8279 29.895 41.9313 32.8971 40.1237C40.6369 35.4624 44.7604 32.08 45.0718 31.768C46.0081 30.8317 46.3602 29.8489 46.3057 28.9524C46.1613 26.5793 43.2614 25.1328 40.8155 26.2459L40.8161 26.247C40.7991 26.2547 40.7824 26.2631 40.7657 26.2722C37.2572 28.2035 33.3986 32.2891 29.6241 33.1335V33.1331ZM12.5106 41.622L7.76386 31.8439C7.63917 31.5892 7.41865 31.3944 7.15058 31.302C6.88252 31.2097 6.58877 31.2273 6.3337 31.3511L3.78576 32.5883C3.5311 32.7129 3.33624 32.9335 3.24386 33.2015C3.15148 33.4696 3.16912 33.7633 3.29292 34.0184L8.21817 44.1638C8.37183 44.4531 8.52642 44.6412 8.85267 44.7544C9.17892 44.8675 9.41864 44.8163 9.71967 44.6833L12.2204 43.47C12.475 43.3453 12.6699 43.1248 12.7622 42.8567C12.8546 42.5886 12.837 42.2949 12.7132 42.0398L12.5106 41.6225V41.622ZM23.7277 23.3819C23.6675 23.5118 23.5714 23.6217 23.4508 23.6987C23.3302 23.7757 23.1901 23.8167 23.047 23.8167H19.9995C19.8005 23.8167 19.6098 23.7377 19.4691 23.5971C19.3285 23.4564 19.2495 23.2656 19.2495 23.0667C19.2495 22.8678 19.3285 22.6771 19.4691 22.5364C19.6098 22.3958 19.8005 22.3167 19.9995 22.3167H21.3963C19.6373 20.0158 18.7082 17.1876 18.7602 14.2918C18.8121 11.396 19.842 8.60286 21.6824 6.36649C23.5227 4.13012 26.0654 2.58198 28.8971 1.97373C31.7288 1.36549 34.683 1.73289 37.2794 3.01623C39.8758 4.29957 41.9618 6.42339 43.1984 9.04243C44.4349 11.6615 44.7492 14.6218 44.0902 17.4421C43.4312 20.2624 41.8377 22.7769 39.5687 24.5768C37.2996 26.3768 34.4885 27.3563 31.5922 27.3563C31.3933 27.3563 31.2025 27.2772 31.0619 27.1366C30.9212 26.9959 30.8422 26.8052 30.8422 26.6063C30.8422 26.4074 30.9212 26.2166 31.0619 26.0759C31.2025 25.9353 31.3933 25.8563 31.5922 25.8563C34.1276 25.855 36.5893 25.0034 38.5834 23.4376C40.5775 21.8718 41.9887 19.6824 42.5913 17.2197C43.1939 14.757 42.9531 12.1633 41.9072 9.85365C40.8614 7.54403 39.0711 5.65196 36.8227 4.48019C34.5743 3.30843 31.9979 2.9247 29.5057 3.3904C27.0134 3.85611 24.7494 5.14433 23.0759 7.04894C21.4024 8.95355 20.4162 11.3645 20.275 13.8959C20.1337 16.4273 20.8457 18.933 22.297 21.0119V20.0193C22.297 19.8204 22.376 19.6296 22.5167 19.489C22.6573 19.3483 22.8481 19.2693 23.047 19.2693C23.2459 19.2693 23.4367 19.3483 23.5773 19.489C23.718 19.6296 23.797 19.8204 23.797 20.0193V23.0667C23.7971 23.1756 23.7735 23.2832 23.7277 23.3819ZM29.7118 17.1297H25.2134V17.128C25.0871 17.1271 24.9631 17.0944 24.8527 17.0329C24.7424 16.9714 24.6494 16.883 24.5822 16.776C24.5151 16.669 24.476 16.5468 24.4685 16.4207C24.4611 16.2946 24.4856 16.1687 24.5397 16.0545L29.2963 6.24761H29.2972C29.3586 6.12069 29.4546 6.01373 29.5742 5.93908C29.6938 5.86443 29.8321 5.82513 29.973 5.82573L35.9372 5.85611C36.0738 5.85165 36.209 5.88471 36.3281 5.95168C36.4472 6.01865 36.5456 6.11698 36.6128 6.23598C36.6799 6.35499 36.7132 6.49012 36.7089 6.62669C36.7046 6.76326 36.663 6.89605 36.5886 7.01064L33.3783 11.972H37.4808V11.9744C37.6217 11.9756 37.7593 12.0163 37.8781 12.092C37.9969 12.1677 38.0919 12.2753 38.1525 12.4025C38.213 12.5296 38.2365 12.6713 38.2203 12.8112C38.2041 12.9511 38.1489 13.0836 38.061 13.1936L27.7746 25.8263C27.6683 25.976 27.5106 26.0815 27.3317 26.1226C27.1527 26.1638 26.9648 26.1378 26.8037 26.0495C26.6427 25.9613 26.5197 25.8169 26.458 25.6439C26.3964 25.4709 26.4005 25.2812 26.4695 25.111L29.7118 17.1297Z" fill="white"/>
</svg>
