<svg width="22" height="22" viewBox="0 0 22 22" fill="none" xmlns="http://www.w3.org/2000/svg">
<path d="M21.2897 4.78656C21.1247 4.45656 20.8497 4.18156 20.5197 4.01656C20.2997 3.90656 20.0797 3.85156 19.8047 3.85156H2.20469C1.92969 3.85156 1.70969 3.90656 1.48969 4.01656C1.15969 4.18156 0.884687 4.45656 0.719687 4.78656C0.609687 5.00656 0.554688 5.22656 0.554688 5.50156V16.5016C0.554688 16.7766 0.609687 16.9966 0.719687 17.2166C0.884687 17.5466 1.15969 17.8216 1.48969 17.9866C1.70969 18.0966 1.92969 18.1516 2.20469 18.1516H19.8047C20.0797 18.1516 20.2997 18.0966 20.5197 17.9866C20.8497 17.8216 21.1247 17.5466 21.2897 17.2166C21.3997 16.9966 21.4547 16.7766 21.4547 16.5016V5.50156C21.4547 5.22656 21.3997 5.00656 21.2897 4.78656ZM19.3647 4.95156L11.3347 11.6616C11.1147 11.8266 10.8397 11.8266 10.6197 11.6616L2.64469 4.95156H19.3647ZM1.65469 5.55656L7.48469 10.4516L1.65469 16.2816V5.55656ZM2.42469 17.0516L8.30969 11.1666L9.90469 12.4866C10.2347 12.7616 10.5647 12.8716 10.9497 12.8716C11.3347 12.8716 11.7197 12.7616 11.9947 12.4866L13.5897 11.1666L19.5847 17.0516H2.42469ZM14.5247 10.4516L20.3547 5.55656V16.2816L14.5247 10.4516Z" fill="white"/>
</svg>
