<svg width="48" height="48" viewBox="0 0 48 48" fill="none" xmlns="http://www.w3.org/2000/svg">
<g clip-path="url(#clip0_37644_30)">
<path d="M44.3395 13.0187L44.3386 12.9729C44.3159 11.7763 44.2945 10.646 44.2945 9.55852C44.2945 7.91116 42.9543 6.57098 41.3069 6.57098C34.9329 6.57098 30.0953 4.75368 26.0824 0.851917C24.9146 -0.28391 23.0847 -0.284004 21.9169 0.851823C17.9042 4.75368 13.0671 6.57098 6.69398 6.57098C5.04663 6.57098 3.70645 7.91116 3.70645 9.55852C3.70645 10.6692 3.68461 11.8108 3.66146 13.0196C3.55366 18.6628 3.41952 25.6858 5.77638 32.0608C7.07231 35.5662 9.03454 38.6125 11.6086 41.1151C14.5403 43.9654 18.3801 46.2264 23.0209 47.835C23.3366 47.9445 23.6658 48 23.9996 48C24.3337 48 24.6631 47.9444 24.978 47.8351C29.6196 46.2263 33.4596 43.9653 36.3916 41.1149C38.9658 38.6122 40.9283 35.5658 42.2244 32.0603C44.5814 25.685 44.4473 18.6618 44.3395 13.0187ZM39.5866 31.0851C37.101 37.8078 32.0212 42.4176 24.0561 45.1784C24.0197 45.191 23.9798 45.1912 23.9421 45.1781C15.9784 42.4177 10.8991 37.808 8.41389 31.0857C6.24123 25.2087 6.36431 18.7616 6.47295 13.0733C6.49638 11.8509 6.51851 10.6962 6.51851 9.55852C6.51851 9.46187 6.59715 9.38313 6.69389 9.38313C13.846 9.38313 19.3062 7.31292 23.8773 2.86785C23.9116 2.83458 23.9555 2.81789 23.9995 2.81789C24.0434 2.81789 24.0875 2.83467 24.1218 2.86795C28.6932 7.31292 34.1539 9.38313 41.3068 9.38313C41.4035 9.38313 41.4822 9.46187 41.4822 9.55852C41.4822 10.6727 41.5039 11.8159 41.5269 13.0263L41.5278 13.0722V13.0723C41.6365 18.7606 41.7596 25.2078 39.5866 31.0851Z" fill="white"/>
<path d="M32.7387 19.3215H28.2145V14.7967C28.2145 14.0202 27.5849 13.3906 26.8084 13.3906H21.1966C20.4201 13.3906 19.7906 14.0202 19.7906 14.7967V19.3215H15.2654C14.4889 19.3215 13.8594 19.9511 13.8594 20.7276V26.3394C13.8594 27.1159 14.4889 27.7454 15.2654 27.7454H19.7906V32.2702C19.7906 33.0467 20.4201 33.6762 21.1966 33.6762H26.8084C27.5849 33.6762 28.2145 33.0467 28.2145 32.2702V27.7454H32.7388C33.5154 27.7454 34.1449 27.1159 34.1449 26.3394V20.7276C34.1448 19.951 33.5153 19.3215 32.7387 19.3215ZM31.3327 24.9333H26.8084C26.0319 24.9333 25.4023 25.5628 25.4023 26.3394V30.8641H22.6027V26.3394C22.6027 25.5628 21.9732 24.9333 21.1966 24.9333H16.6715V22.1337H21.1966C21.9732 22.1337 22.6027 21.5041 22.6027 20.7276V16.2028H25.4023V20.7276C25.4023 21.5041 26.0319 22.1337 26.8084 22.1337H31.3328V24.9333H31.3327Z" fill="white"/>
</g>
<defs>
<clipPath id="clip0_37644_30">
<rect width="48" height="48" fill="white"/>
</clipPath>
</defs>
</svg>
