<svg width="40" height="40" viewBox="0 0 40 40" fill="none" xmlns="http://www.w3.org/2000/svg">
<g clip-path="url(#clip0_37603_396)">
<mask id="mask0_37603_396" style="mask-type:luminance" maskUnits="userSpaceOnUse" x="0" y="0" width="40" height="40">
<path d="M40 0H0V40H40V0Z" fill="white"/>
</mask>
<g mask="url(#mask0_37603_396)">
<path d="M20.0724 13.9538C20.623 13.9538 21.0688 13.5076 21.0688 12.9574C21.0688 12.4071 20.623 11.9609 20.0724 11.9609C15.6703 11.9609 12.1016 15.5297 12.1016 19.9321C12.1016 24.3343 15.6703 27.903 20.0724 27.903C24.4749 27.903 28.0436 24.3343 28.0436 19.9321C28.0436 19.3816 27.5974 18.9358 27.0472 18.9358C26.497 18.9358 26.0508 19.3816 26.0508 19.9321C26.0508 23.2338 23.3744 25.9105 20.0724 25.9105C16.7707 25.9105 14.094 23.2338 14.094 19.9321C14.094 16.6301 16.7707 13.9538 20.0724 13.9538Z" fill="white"/>
<path d="M39.078 14.0152C38.905 13.4924 38.341 13.2089 37.8179 13.3819C37.3071 13.551 37.0226 14.0948 37.1749 14.6109C40.1547 24.0997 34.8782 34.2074 25.3893 37.1872C15.9009 40.1669 5.79314 34.8904 2.8134 25.4016C-0.166636 15.9128 5.11015 5.80506 14.5987 2.82533C18.1112 1.72242 21.8771 1.72242 25.3893 2.82533C25.9167 2.98432 26.473 2.68586 26.632 2.15852C26.7886 1.63911 26.5014 1.0901 25.9854 0.922258C15.4492 -2.38341 4.22789 3.4781 0.92223 14.0146C-2.38343 24.5508 3.47838 35.7721 14.0146 39.0777C24.551 42.3834 35.772 36.5219 39.0777 25.9854C40.3002 22.0889 40.3002 17.9116 39.078 14.0152Z" fill="white"/>
<path d="M21.9679 7.11902C21.9731 6.55173 21.5373 6.07743 20.9715 6.03502C20.674 6.00973 20.3762 5.98438 20.0706 5.98438C12.3665 5.98438 6.12109 12.2298 6.12109 19.934C6.12109 27.6378 12.3665 33.8832 20.0706 33.8832C27.7745 33.8832 34.0199 27.6378 34.0199 19.934C34.0199 19.5736 33.9979 19.2134 33.9537 18.8558C33.874 18.3089 33.3662 17.9301 32.8193 18.0098C32.2725 18.0891 31.8937 18.5973 31.9731 19.1441C31.9762 19.1649 31.9798 19.1854 31.9841 19.2061C32.0057 19.4475 32.0271 19.6867 32.0271 19.9333C32.0274 26.537 26.6743 31.8901 20.071 31.8907C13.4673 31.891 8.11415 26.5376 8.11386 19.9343C8.11356 13.3308 13.4663 7.97749 20.07 7.9772C20.3173 7.9772 20.5571 7.99855 20.7979 8.0199L20.9846 8.03549C21.5053 8.05773 21.9453 7.65367 21.9673 7.13308C21.9676 7.1282 21.9676 7.12361 21.9679 7.11902Z" fill="white"/>
<path d="M26.0416 8.97057V12.5436L19.3589 19.2263C18.9631 19.6087 18.9521 20.2395 19.3345 20.6353C19.7168 21.0311 20.3476 21.0421 20.7434 20.6597C20.7517 20.6517 20.7599 20.6435 20.7678 20.6353L27.4506 13.9526H31.0236C31.2879 13.9526 31.5412 13.8476 31.7282 13.6605L37.7063 7.6821C38.0954 7.29305 38.0954 6.66222 37.7063 6.2731C37.5195 6.08634 37.2662 5.9814 37.0019 5.9814H34.0128V2.99219C34.0128 2.44196 33.5666 1.99579 33.0161 1.99609C32.7521 1.99609 32.4988 2.10108 32.312 2.28784L26.3336 8.26622C26.1466 8.45299 26.0416 8.70628 26.0416 8.97057ZM28.0344 9.38316L32.02 5.39758V6.97775C32.02 7.52799 32.4661 7.97416 33.0164 7.97416H34.5966L30.611 11.9598H28.0344V9.38316Z" fill="white"/>
</g>
</g>
<defs>
<clipPath id="clip0_37603_396">
<rect width="40" height="40" fill="white"/>
</clipPath>
</defs>
</svg>
