<svg width="44" height="44" viewBox="0 0 44 44" fill="none" xmlns="http://www.w3.org/2000/svg">
<path d="M39.8757 23.7109H37.3684C38.7956 22.8316 39.0342 20.6295 37.8043 19.4711L34.2953 15.9614L35.8442 14.4131C36.227 14.5993 36.6585 14.6611 37.0782 14.59C37.498 14.5189 37.885 14.3183 38.1851 14.0164L41.5883 10.6133C41.9742 10.2262 42.191 9.7018 42.191 9.15512C42.191 8.60845 41.9742 8.08407 41.5883 7.69694L39.644 5.75269C38.8644 4.97306 37.5059 4.97306 36.7269 5.75269L33.3238 9.15581C32.7099 9.75119 32.5428 10.735 32.9264 11.4974L31.3789 13.045L27.8699 9.53669C26.5251 8.10394 23.9126 8.70481 23.3317 10.5803L19.9932 20.1689C19.2855 19.738 18.4617 19.5369 17.6351 19.5934C16.456 16.0968 11.4393 15.9084 9.98456 19.2896C7.09913 17.8348 3.54888 20.5387 4.18825 23.7102C3.82202 23.7025 3.45794 23.7679 3.1173 23.9026C2.77666 24.0373 2.46629 24.2386 2.20434 24.4946C1.94239 24.7507 1.73413 25.0564 1.59173 25.3939C1.44933 25.7314 1.37565 26.0939 1.375 26.4602V29.2102C1.375 30.0359 1.74763 30.7687 2.32513 31.2727C2.02816 31.5283 1.78963 31.8447 1.62569 32.2006C1.46176 32.5564 1.37626 32.9434 1.375 33.3352V36.0852C1.375 37.6018 2.60838 38.8352 4.125 38.8352H19.9375C20.7625 38.8352 21.4954 38.4626 22 37.8851C22.5046 38.4626 23.2375 38.8359 24.0625 38.8359H39.875C41.3916 38.8359 42.625 37.6018 42.625 36.0859V33.3359C42.625 32.5109 42.2524 31.7773 41.6749 31.2734C41.9718 31.0178 42.2104 30.7013 42.3743 30.3455C42.5382 29.9896 42.6237 29.6027 42.625 29.2109V26.4609C42.625 24.9442 41.3923 23.7109 39.8757 23.7109ZM34.2959 10.1279L37.6991 6.72481C37.8283 6.5966 38.003 6.52465 38.1851 6.52465C38.3672 6.52465 38.5419 6.5966 38.6712 6.72481L40.6154 8.66906C40.8836 8.93719 40.8836 9.37306 40.6154 9.64119L37.213 13.0443C36.9449 13.3124 36.509 13.3124 36.2402 13.0443L34.2959 11.0994C34.1678 10.9702 34.0958 10.7956 34.0958 10.6137C34.0958 10.4317 34.1678 10.2571 34.2959 10.1279ZM33.8099 12.5582L34.782 13.5304L29.9207 18.3917C29.6526 18.6598 29.2167 18.6598 28.9486 18.3917C28.82 18.2626 28.7478 18.0878 28.7478 17.9056C28.7478 17.7234 28.82 17.5487 28.9486 17.4196L33.8099 12.5582ZM20.9646 21.5617C20.9639 21.5617 24.6311 11.0313 24.6304 11.0299C24.9171 10.0901 26.2281 9.79656 26.8978 10.5088L30.4068 14.0171L27.9764 16.4474C27.5903 16.8345 27.3734 17.3589 27.3734 17.9056C27.3734 18.4524 27.5903 18.9768 27.9764 19.3638C28.3634 19.7501 28.8878 19.9671 29.4346 19.9671C29.9814 19.9671 30.5059 19.7501 30.8928 19.3638L33.3231 16.9342L36.8321 20.4432C37.543 21.1142 37.2515 22.4239 36.3083 22.7113L21.0822 28.0119C20.042 28.4161 18.9221 27.3017 19.3291 26.2601L20.9646 21.5617ZM8.25069 20.2734C8.86463 20.2734 9.45038 20.4824 9.94538 20.8784C10.3297 21.2049 10.9746 20.965 11.0509 20.4666C11.6181 17.4807 15.9081 17.4876 16.4491 20.4803C16.5069 20.8584 16.9098 21.1279 17.2796 21.0324C18.0716 20.8433 18.8898 21.0392 19.5243 21.5177L18.7612 23.7109H13.7507C12.9257 23.7109 12.1928 24.0835 11.6882 24.661C11.4326 24.364 11.1162 24.1255 10.7603 23.9616C10.4044 23.7976 10.0175 23.7121 9.62569 23.7109H5.60038C5.10538 22.0134 6.49069 20.2459 8.25069 20.2734ZM2.75069 26.4609C2.75069 25.7026 3.36738 25.0859 4.12569 25.0859H9.62569C10.384 25.0859 11.0007 25.7026 11.0007 26.4609V29.2109C11.0007 29.9692 10.384 30.5859 9.62569 30.5859H4.12569C3.36738 30.5859 2.75069 29.9692 2.75069 29.2109V26.4609ZM21.3132 36.0859C21.3132 36.8442 20.6965 37.4609 19.9382 37.4609H4.12569C3.36738 37.4609 2.75069 36.8442 2.75069 36.0859V33.3359C2.75069 32.5776 3.36738 31.9609 4.12569 31.9609H19.9382C20.6965 31.9609 21.3132 32.5776 21.3132 33.3359V36.0859ZM13.7507 30.5859C12.9924 30.5859 12.3757 29.9692 12.3757 29.2109V26.4609C12.3757 25.7026 12.9924 25.0859 13.7507 25.0859H18.2827L18.0304 25.8098C17.3704 27.5237 18.8093 29.5154 20.6223 29.4639C20.7316 29.7478 30.4989 26.1295 30.8729 26.0587C30.9953 26.2326 30.9189 28.951 30.9382 29.2109C30.9382 29.9692 30.3215 30.5859 29.5632 30.5859H13.7507ZM41.2507 36.0859C41.2507 36.8442 40.634 37.4609 39.8757 37.4609H24.0632C23.3049 37.4609 22.6882 36.8442 22.6882 36.0859V33.3359C22.6882 32.5776 23.3049 31.9609 24.0632 31.9609H39.8757C40.634 31.9609 41.2507 32.5776 41.2507 33.3359V36.0859ZM41.2507 29.2109C41.2507 29.9692 40.634 30.5859 39.8757 30.5859H33.6882C32.9299 30.5859 32.3132 29.9692 32.3132 29.2109V26.4609C32.3132 26.0271 32.5222 25.6242 32.868 25.3643L33.6655 25.0866L39.8757 25.0859C40.634 25.0859 41.2507 25.7026 41.2507 26.4609V29.2109Z" fill="white"/>
</svg>
