<svg width="43" height="43" viewBox="0 0 43 43" fill="none" xmlns="http://www.w3.org/2000/svg">
<g clip-path="url(#clip0_37828_2985)">
<path d="M32.9219 32.25C34.0332 32.25 34.9375 31.3457 34.9375 30.2344C34.9375 29.1231 34.0332 28.2188 32.9219 28.2188C31.8106 28.2188 30.9062 29.1231 30.9062 30.2344C30.9062 31.3457 31.8106 32.25 32.9219 32.25ZM32.9219 29.5625C33.0549 29.5624 33.1851 29.6017 33.2958 29.6756C33.4065 29.7494 33.4928 29.8544 33.5438 29.9774C33.5948 30.1003 33.6081 30.2356 33.5822 30.3661C33.5563 30.4966 33.4922 30.6165 33.3981 30.7106C33.304 30.8047 33.1841 30.8688 33.0536 30.8947C32.9231 30.9206 32.7878 30.9073 32.6649 30.8563C32.5419 30.8053 32.4369 30.719 32.3631 30.6083C32.2892 30.4976 32.2499 30.3674 32.25 30.2344C32.25 29.8635 32.5517 29.5625 32.9219 29.5625Z" fill="white"/>
<path d="M39.7481 27.3977C39.6482 27.1616 39.621 26.901 39.67 26.6493C39.7189 26.3976 39.8418 26.1663 40.0229 25.9848L41.0005 25.0065L38.1491 22.1551L37.1701 23.1333C36.7999 23.5042 36.245 23.6117 35.7317 23.3967C35.4962 23.3 35.2949 23.1354 35.1535 22.9238C35.0121 22.7123 34.9369 22.4633 34.9375 22.2088V20.8281H33.5595C33.5016 19.765 33.3014 18.7145 32.9642 17.7046L40.7391 9.92964C41.2444 9.42721 41.645 8.82956 41.9178 8.17127C42.1905 7.51298 42.33 6.80713 42.3281 6.09458C42.3281 3.10473 39.8953 0.671875 36.9054 0.671875C35.4569 0.671875 34.095 1.23625 33.071 2.26019L25.3042 10.0277C24.2794 9.688 23.2132 9.48887 22.1349 9.43581C21.2077 7.81592 19.4656 6.71875 17.4688 6.71875C16.9575 6.71875 16.4643 6.79534 15.9947 6.92905C14.835 4.74881 12.5822 3.35938 10.0781 3.35938C6.37341 3.35938 3.35938 6.37341 3.35938 10.0781C3.35938 10.5928 3.42253 11.0994 3.53742 11.5952C2.70944 11.8463 1.98404 12.3568 1.46812 13.0514C0.952207 13.746 0.673078 14.5879 0.671875 15.4531C0.671875 17.6764 2.47989 19.4844 4.70312 19.4844H9.57691C9.46424 20.1504 9.40716 20.8246 9.40625 21.5C9.40625 22.9788 9.6797 24.1821 10.1211 25.2101L4.12733 31.2046L0.792141 39.8758C0.668052 40.2016 0.640846 40.5563 0.713804 40.8973C0.786762 41.2382 0.956769 41.5507 1.20333 41.7972C1.44989 42.0437 1.76249 42.2136 2.10343 42.2865C2.44437 42.3593 2.79912 42.332 3.12489 42.2079L11.7961 38.8727L16.1787 34.4894C16.1458 34.6338 16.125 34.783 16.125 34.9375C16.125 35.4555 16.3272 35.9238 16.6491 36.2812C16.3133 36.6484 16.1264 37.1275 16.125 37.625C16.125 38.5589 16.7666 39.3396 17.63 39.5667C18.2024 41.2061 19.7357 42.3281 21.5 42.3281C23.2643 42.3281 24.7976 41.2061 25.37 39.5667C25.8 39.4546 26.1808 39.2033 26.4531 38.8521C26.7253 38.5008 26.8737 38.0694 26.875 37.625C26.875 37.5746 26.8636 37.5276 26.8602 37.4785L27.6947 38.313L28.6736 37.3348C29.0438 36.9639 29.5968 36.8557 30.1114 37.07C30.3469 37.1673 30.5481 37.3324 30.6896 37.5442C30.8311 37.7561 30.9065 38.0052 30.9062 38.2599V39.6406H34.9375V38.2599C34.9375 37.7372 35.2499 37.2703 35.7585 37.06C35.9946 36.96 36.255 36.9328 36.5066 36.9818C36.7582 37.0307 36.9895 37.1536 37.1708 37.3348L38.1491 38.313L41.0005 35.4616L40.0229 34.4833C39.6527 34.1124 39.5445 33.5581 39.7589 33.0448C39.8557 32.8093 40.0205 32.608 40.2321 32.4664C40.4438 32.3249 40.6928 32.2495 40.9474 32.25H42.3281V28.2188H40.9474C40.4247 28.2188 39.9584 27.9063 39.7481 27.3977ZM29.6807 29.3784C30.4138 28.6629 31.1481 27.9319 31.7817 27.0866C32.1464 26.9497 32.5323 26.8781 32.9219 26.875C34.7742 26.875 36.2812 28.382 36.2812 30.2344C36.2812 32.0867 34.7742 33.5938 32.9219 33.5938C31.0695 33.5938 29.5625 32.0867 29.5625 30.2344C29.5625 29.9435 29.6075 29.6572 29.6807 29.3784ZM30.4877 13.463L33.5938 10.3563L36.0031 12.7656L32.4146 16.3541C31.9136 15.3034 31.2647 14.3298 30.4877 13.463ZM31.1844 6.04688L32.25 4.98128L38.0187 10.75L36.9531 11.8156L31.1844 6.04688ZM36.9054 2.01562C37.9868 2.01705 39.0235 2.44725 39.7881 3.21189C40.5528 3.97654 40.983 5.01321 40.9844 6.09458C40.9858 6.63046 40.881 7.1613 40.676 7.6564C40.4709 8.1515 40.1697 8.60102 39.7898 8.97894L38.9688 9.79997L33.2 4.03125L34.0211 3.21022C34.399 2.83035 34.8486 2.52919 35.3436 2.32414C35.8387 2.1191 36.3696 2.01424 36.9054 2.01562ZM30.2344 6.99691L32.6437 9.40625L29.539 12.511C28.6729 11.7332 27.6997 11.0836 26.6493 10.582L30.2344 6.99691ZM32.25 21.5C32.25 24.9958 30.4897 26.7131 28.6259 28.5305C27.3426 29.7822 26.0244 31.0762 25.2571 32.9622C25.1262 32.9354 24.993 32.9219 24.8594 32.9219H22.1719V29.5625C22.1719 28.4512 21.2675 27.5469 20.1562 27.5469H18.8125C18.6395 27.5391 18.4762 27.465 18.3565 27.3398C18.2368 27.2147 18.17 27.0482 18.17 26.875C18.17 26.7018 18.2368 26.5353 18.3565 26.4102C18.4762 26.285 18.6395 26.2109 18.8125 26.2031H25.5312C26.6425 26.2031 27.5469 25.2988 27.5469 24.1875C27.5469 23.0762 26.6425 22.1719 25.5312 22.1719H20.1562C19.786 22.1719 19.4844 21.8709 19.4844 21.5V19.4844H22.8438C24.6961 19.4844 26.2031 17.9774 26.2031 16.125C26.2031 14.2726 24.6961 12.7656 22.8438 12.7656C22.8249 12.7656 22.8075 12.771 22.7887 12.771C22.8175 12.5466 22.8438 12.3222 22.8438 12.0938C22.8419 11.6643 22.7887 11.2367 22.6852 10.8199C28.0414 11.4165 32.25 16.0135 32.25 21.5ZM17.4688 34.9375C17.4688 34.5666 17.7704 34.2656 18.1406 34.2656H24.8594C25.0324 34.2734 25.1957 34.3475 25.3154 34.4727C25.4351 34.5978 25.5019 34.7643 25.5019 34.9375C25.5019 35.1107 25.4351 35.2772 25.3154 35.4023C25.1957 35.5275 25.0324 35.6016 24.8594 35.6094H18.1406C17.7704 35.6094 17.4688 35.3084 17.4688 34.9375ZM9.01253 34.9375L13.9515 29.9985C14.7779 30.8182 15.5452 31.6473 16.1109 32.6572L11.4219 37.3468L9.01253 34.9375ZM2.01562 15.4531C2.01562 13.971 3.22097 12.7656 4.70312 12.7656C6.18528 12.7656 7.39062 13.971 7.39062 15.4531H8.73438C8.73438 13.2883 7.01773 11.5213 4.87513 11.4306C4.76057 10.9889 4.70277 10.5344 4.70312 10.0781C4.70312 7.11448 7.11448 4.70312 10.0781 4.70312C11.0333 4.70335 11.9711 4.95892 12.7944 5.44337C13.6176 5.92782 14.2964 6.62354 14.7604 7.45848C14.0364 7.88133 13.4213 8.46757 12.9641 9.17042C12.5069 9.87327 12.2204 10.6733 12.1273 11.5065C10.9542 11.7954 10.0781 12.8483 10.0781 14.1094H11.4219C11.4219 13.3683 12.0245 12.7656 12.7656 12.7656C13.5067 12.7656 14.1094 13.3683 14.1094 14.1094H15.4531C15.4531 12.8765 14.6146 11.8465 13.4812 11.5307C13.7566 9.57422 15.437 8.0625 17.4688 8.0625C19.692 8.0625 21.5 9.87052 21.5 12.0938C21.5 12.4472 21.4422 12.7932 21.3522 13.1305C20.2503 13.6821 19.4844 14.8108 19.4844 16.125H20.8281C20.8281 15.0137 21.7325 14.1094 22.8438 14.1094C23.955 14.1094 24.8594 15.0137 24.8594 16.125C24.8594 17.2363 23.955 18.1406 22.8438 18.1406H4.70312C3.22097 18.1406 2.01562 16.9353 2.01562 15.4531ZM18.1406 19.4844V21.5C18.1406 22.6113 19.045 23.5156 20.1562 23.5156H25.5312C25.7042 23.5234 25.8676 23.5975 25.9873 23.7227C26.1069 23.8478 26.1737 24.0143 26.1737 24.1875C26.1737 24.3607 26.1069 24.5272 25.9873 24.6523C25.8676 24.7775 25.7042 24.8516 25.5312 24.8594H18.8125C17.7012 24.8594 16.7969 25.7637 16.7969 26.875C16.7969 27.9863 17.7012 28.8906 18.8125 28.8906H20.1562C20.5265 28.8906 20.8281 29.1916 20.8281 29.5625V32.9219H18.1406C18.0042 32.9219 17.8712 32.936 17.7429 32.9622C16.9756 31.0762 15.6574 29.7822 14.3741 28.5305C12.5103 26.7131 10.75 24.9958 10.75 21.5C10.75 20.8207 10.8313 20.1475 10.9569 19.4844H18.1406ZM12.992 29.0579L8.0625 33.9875L5.65316 31.5781L10.7796 26.4517C11.4105 27.4421 12.1925 28.2685 12.992 29.0579ZM4.95911 32.7841L10.2159 38.0409L5.76536 39.7528L3.24717 37.2346L4.95911 32.7841ZM2.64316 40.9535C2.35223 41.0663 2.01562 40.8345 2.01562 40.5228C2.01562 40.4657 2.02638 40.4099 2.04586 40.3575L2.71908 38.6066L4.39272 40.2802L2.64316 40.9535ZM21.5 40.9844C21.0229 40.9841 20.554 40.8601 20.139 40.6246C19.724 40.3891 19.3772 40.0501 19.1323 39.6406H23.8677C23.6228 40.0501 23.276 40.3891 22.861 40.6246C22.446 40.8601 21.9771 40.9841 21.5 40.9844ZM24.8594 38.2969H18.1406C17.9676 38.2891 17.8043 38.215 17.6846 38.0898C17.5649 37.9647 17.4981 37.7982 17.4981 37.625C17.4981 37.4518 17.5649 37.2853 17.6846 37.1602C17.8043 37.035 17.9676 36.9609 18.1406 36.9531H24.8594C25.0324 36.9609 25.1957 37.035 25.3154 37.1602C25.4351 37.2853 25.5019 37.4518 25.5019 37.625C25.5019 37.7982 25.4351 37.9647 25.3154 38.0898C25.1957 38.215 25.0324 38.2891 24.8594 38.2969ZM40.9844 30.9062H40.9474C39.8785 30.9062 38.9244 31.5445 38.5078 32.5537C38.3049 33.0354 38.2502 33.5667 38.3508 34.0796C38.4513 34.5926 38.7025 35.0639 39.0722 35.4333L39.1004 35.4616L38.1491 36.4129L38.1208 36.3847C37.363 35.6268 36.2315 35.4045 35.219 35.8291C34.7374 36.0271 34.3256 36.364 34.0361 36.7969C33.7467 37.2299 33.5927 37.7392 33.5938 38.2599V38.2969H32.25V38.2599C32.25 37.191 31.6117 36.2369 30.6026 35.8197C30.1208 35.6164 29.5892 35.5616 29.0761 35.6623C28.563 35.7629 28.0915 36.0145 27.7222 36.3847L27.694 36.4129L26.7836 35.5025C26.8374 35.3218 26.875 35.135 26.875 34.9375C26.875 34.4605 26.7017 34.0278 26.4235 33.6818C26.8414 32.5537 27.4965 31.6514 28.2591 30.8182C28.548 33.1362 30.5266 34.9375 32.9219 34.9375C35.5153 34.9375 37.625 32.8271 37.625 30.2344C37.625 27.6416 35.5153 25.5312 32.9219 25.5312C32.856 25.5312 32.7922 25.538 32.727 25.5407C33.1819 24.5967 33.4943 23.5022 33.5729 22.1719H33.5938V22.2088C33.5938 23.2778 34.232 24.2325 35.2405 24.6484C35.7222 24.8519 36.2537 24.907 36.7669 24.8064C37.2801 24.7058 37.7516 24.4543 38.1208 24.084L38.1491 24.0558L39.1004 25.0072L39.0722 25.0354C38.3157 25.7926 38.094 26.9234 38.5166 27.9366C38.7144 28.4184 39.0513 28.8304 39.4842 29.12C39.9172 29.4096 40.4266 29.5636 40.9474 29.5625H40.9844V30.9062Z" fill="white"/>
</g>
<defs>
<clipPath id="clip0_37828_2985">
<rect width="43" height="43" fill="white"/>
</clipPath>
</defs>
</svg>
