<svg width="44" height="44" viewBox="0 0 44 44" fill="none" xmlns="http://www.w3.org/2000/svg">
<g clip-path="url(#clip0_37828_3012)">
<path d="M19.8125 21.1406H24.1953C24.3776 21.1406 24.5525 21.0682 24.6814 20.9393C24.8104 20.8103 24.8828 20.6355 24.8828 20.4531C24.8828 20.2708 24.8104 20.0959 24.6814 19.967C24.5525 19.8381 24.3776 19.7656 24.1953 19.7656H19.8125C19.6302 19.7656 19.4553 19.8381 19.3264 19.967C19.1974 20.0959 19.125 20.2708 19.125 20.4531C19.125 20.6355 19.1974 20.8103 19.3264 20.9393C19.4553 21.0682 19.6302 21.1406 19.8125 21.1406Z" fill="white"/>
<path d="M41.8516 7.5625H36.2656C35.3693 7.5625 34.6052 8.13734 34.3214 8.9375H32.1406C32.1406 8.08457 31.4467 7.39062 30.5938 7.39062H29.3906V2.49674C29.3906 1.16737 28.3092 0.0859375 26.9799 0.0859375H17.0201C15.6908 0.0859375 14.6094 1.16737 14.6094 2.49674V7.39062H13.4062C12.5533 7.39062 11.8594 8.08457 11.8594 8.9375H9.67863C9.39469 8.13734 8.63062 7.5625 7.73438 7.5625H2.14844C1.01114 7.5625 0.0859375 8.48779 0.0859375 9.625V12.375C0.0859375 13.5122 1.01114 14.4375 2.14844 14.4375H7.73438C8.6307 14.4375 9.39477 13.8627 9.67863 13.0625H11.8594V13.4062C11.8594 14.2592 12.5533 14.9531 13.4062 14.9531H14.6094V16.325C14.6094 17.227 15.3433 17.9609 16.2453 17.9609H16.4477C16.4254 18.0713 16.4141 18.1837 16.4141 18.2963V20.5126C16.4141 20.5556 16.4181 20.5984 16.4261 20.6406L17.5357 26.4878C17.6945 27.3242 18.2774 27.9901 19.0352 28.283V39.7603C19.0352 40.0008 19.0986 40.2381 19.2187 40.4466L20.4242 42.5391H12.0312C11.8489 42.5391 11.674 42.6115 11.5451 42.7404C11.4162 42.8694 11.3438 43.0442 11.3438 43.2266C11.3438 43.4089 11.4162 43.5838 11.5451 43.7127C11.674 43.8416 11.8489 43.9141 12.0312 43.9141H31.9688C32.1511 43.9141 32.326 43.8416 32.4549 43.7127C32.5838 43.5838 32.6562 43.4089 32.6562 43.2266C32.6562 43.0442 32.5838 42.8694 32.4549 42.7404C32.326 42.6115 32.1511 42.5391 31.9688 42.5391H23.613L24.856 40.4599C24.9835 40.2466 25.0508 40.0028 25.0508 39.7543V28.2471C25.7663 27.9383 26.3116 27.2921 26.4643 26.4877L27.5739 20.6407C27.5819 20.5985 27.5859 20.5555 27.5859 20.5125V18.2963C27.5859 18.1815 27.5741 18.0694 27.5523 17.9609H27.7547C28.6567 17.9609 29.3906 17.227 29.3906 16.325V14.9531H30.5938C31.4467 14.9531 32.1406 14.2592 32.1406 13.4062V13.0625H34.3214C34.6052 13.8627 35.3694 14.4375 36.2656 14.4375H41.8516C42.9889 14.4375 43.9141 13.5122 43.9141 12.375V9.625C43.9141 8.48779 42.9889 7.5625 41.8516 7.5625ZM24.4062 1.46094V3.35156C24.4062 3.73063 24.0978 4.03906 23.7188 4.03906H20.2812C19.9022 4.03906 19.5938 3.73063 19.5938 3.35156V1.46094H24.4062ZM8.42188 12.375C8.42188 12.7541 8.11345 13.0625 7.73438 13.0625H2.14844C1.76937 13.0625 1.46094 12.7541 1.46094 12.375V9.625C1.46094 9.24593 1.76937 8.9375 2.14844 8.9375H7.73438C8.11345 8.9375 8.42188 9.24593 8.42188 9.625V12.375ZM9.79688 11.6875V10.3125H11.8594V11.6875H9.79688ZM13.4062 13.5781C13.3115 13.5781 13.2344 13.501 13.2344 13.4062V8.9375C13.2344 8.84271 13.3115 8.76562 13.4062 8.76562H14.6094V13.5781H13.4062ZM22.011 42.5391L20.4102 39.7603V28.4453H23.6758V39.7543L22.011 42.5391ZM26.2109 18.2963V20.4479L25.1133 26.2313C25.0684 26.4672 24.9427 26.68 24.7577 26.8331C24.5728 26.9863 24.3403 27.0702 24.1001 27.0703H19.8999C19.6598 27.0702 19.4272 26.9863 19.2423 26.8332C19.0574 26.6801 18.9316 26.4672 18.8867 26.2314L17.7891 20.448V18.2964C17.7891 18.1115 17.9432 17.961 18.1328 17.961H25.8672C26.0568 17.961 26.2109 18.1115 26.2109 18.2964V18.2963ZM28.0156 16.325C28.0155 16.3942 27.988 16.4605 27.9391 16.5094C27.8902 16.5583 27.8239 16.5858 27.7547 16.5859H16.2453C16.1761 16.5858 16.1098 16.5583 16.0609 16.5094C16.012 16.4605 15.9845 16.3942 15.9844 16.325V2.49674C15.9844 1.9256 16.449 1.46094 17.0201 1.46094H18.2188V3.35156C18.2188 4.48877 19.144 5.41406 20.2812 5.41406H23.7188C24.856 5.41406 25.7812 4.48877 25.7812 3.35156V1.46094H26.9799C27.551 1.46094 28.0156 1.9256 28.0156 2.49674V14.2656V16.325ZM30.7656 13.4062C30.7656 13.501 30.6885 13.5781 30.5938 13.5781H29.3906V8.76562H30.5938C30.6885 8.76562 30.7656 8.84271 30.7656 8.9375V13.4062ZM32.1406 10.3125H34.2031V11.6875H32.1406V10.3125ZM42.5391 12.375C42.5391 12.7541 42.2306 13.0625 41.8516 13.0625H36.2656C35.8866 13.0625 35.5781 12.7541 35.5781 12.375V9.625C35.5781 9.24593 35.8866 8.9375 36.2656 8.9375H41.8516C42.2306 8.9375 42.5391 9.24593 42.5391 9.625V12.375Z" fill="white"/>
<path d="M27.0312 38.9297C27.1215 38.9298 27.211 38.9121 27.2944 38.8775C27.3778 38.843 27.4536 38.7923 27.5174 38.7283L29.8377 36.408C29.9015 36.3442 29.9522 36.2684 29.9867 36.185C30.0213 36.1016 30.0391 36.0122 30.0391 35.9219C30.0391 35.8316 30.0213 35.7422 29.9867 35.6588C29.9522 35.5754 29.9015 35.4996 29.8377 35.4357C29.7738 35.3719 29.6981 35.3212 29.6146 35.2867C29.5312 35.2521 29.4418 35.2344 29.3515 35.2344C29.2613 35.2344 29.1719 35.2521 29.0884 35.2867C29.005 35.3212 28.9292 35.3719 28.8654 35.4357L26.5451 37.756C26.4489 37.8522 26.3834 37.9747 26.3569 38.1081C26.3304 38.2414 26.344 38.3797 26.396 38.5053C26.4481 38.6309 26.5362 38.7383 26.6493 38.8138C26.7623 38.8894 26.8953 38.9297 27.0312 38.9297ZM26.2614 40.8904C26.28 41.0718 26.3699 41.2383 26.5113 41.3534C26.6527 41.4685 26.834 41.5228 27.0154 41.5042L30.367 41.1605C30.4568 41.1512 30.5439 41.1244 30.6234 41.0816C30.7028 41.0387 30.773 40.9806 30.83 40.9106C30.887 40.8406 30.9297 40.76 30.9555 40.6735C30.9814 40.587 30.99 40.4962 30.9807 40.4064C30.9421 40.0287 30.6042 39.7536 30.2267 39.7927L26.8752 40.1364C26.7854 40.1456 26.6982 40.1724 26.6188 40.2153C26.5393 40.2582 26.4691 40.3163 26.4121 40.3863C26.3551 40.4563 26.3125 40.5369 26.2866 40.6234C26.2607 40.7099 26.2522 40.8006 26.2614 40.8904ZM16.9765 38.9297C17.1125 38.9297 17.2454 38.8894 17.3585 38.8138C17.4716 38.7383 17.5597 38.6309 17.6117 38.5053C17.6638 38.3797 17.6774 38.2414 17.6509 38.1081C17.6243 37.9747 17.5588 37.8522 17.4627 37.756L15.1424 35.4357C15.0132 35.3081 14.8387 35.2368 14.6571 35.2373C14.4755 35.2379 14.3015 35.3103 14.1731 35.4387C14.0447 35.5671 13.9723 35.7412 13.9717 35.9228C13.9712 36.1044 14.0425 36.2788 14.1702 36.408L16.4905 38.7283C16.5542 38.7923 16.63 38.8429 16.7134 38.8775C16.7968 38.912 16.8863 38.9298 16.9765 38.9297ZM13.027 40.4064C13.0178 40.4962 13.0264 40.587 13.0522 40.6735C13.0781 40.76 13.1207 40.8406 13.1777 40.9106C13.2347 40.9806 13.305 41.0387 13.3844 41.0816C13.4639 41.1244 13.551 41.1512 13.6408 41.1605L16.9924 41.5042C17.172 41.5195 17.3504 41.4636 17.4892 41.3485C17.6281 41.2335 17.7162 41.0686 17.7346 40.8893C17.753 40.7099 17.7002 40.5305 17.5876 40.3897C17.475 40.2489 17.3117 40.158 17.1327 40.1364L13.7811 39.7927C13.5997 39.7741 13.4184 39.8283 13.277 39.9434C13.1356 40.0585 13.0457 40.2251 13.027 40.4064ZM18.8672 7.13281C18.6848 7.13281 18.51 7.20525 18.381 7.33418C18.2521 7.46311 18.1797 7.63798 18.1797 7.82031V14.1797C18.1797 14.362 18.2521 14.5369 18.381 14.6658C18.51 14.7948 18.6848 14.8672 18.8672 14.8672C19.0495 14.8672 19.2244 14.7948 19.3533 14.6658C19.4822 14.5369 19.5547 14.362 19.5547 14.1797V7.82031C19.5547 7.63798 19.4822 7.46311 19.3533 7.33418C19.2244 7.20525 19.0495 7.13281 18.8672 7.13281ZM22.0039 7.13281C21.8216 7.13281 21.6467 7.20525 21.5177 7.33418C21.3888 7.46311 21.3164 7.63798 21.3164 7.82031V14.1797C21.3164 14.362 21.3888 14.5369 21.5177 14.6658C21.6467 14.7948 21.8216 14.8672 22.0039 14.8672C22.1862 14.8672 22.3611 14.7948 22.49 14.6658C22.619 14.5369 22.6914 14.362 22.6914 14.1797V7.82031C22.6914 7.63798 22.619 7.46311 22.49 7.33418C22.3611 7.20525 22.1862 7.13281 22.0039 7.13281ZM25.1406 7.13281C24.9583 7.13281 24.7834 7.20525 24.6545 7.33418C24.5255 7.46311 24.4531 7.63798 24.4531 7.82031V14.1797C24.4531 14.362 24.5255 14.5369 24.6545 14.6658C24.7834 14.7948 24.9583 14.8672 25.1406 14.8672C25.3229 14.8672 25.4978 14.7948 25.6267 14.6658C25.7557 14.5369 25.8281 14.362 25.8281 14.1797V7.82031C25.8281 7.63798 25.7557 7.46311 25.6267 7.33418C25.4978 7.20525 25.3229 7.13281 25.1406 7.13281Z" fill="white"/>
</g>
<defs>
<clipPath id="clip0_37828_3012">
<rect width="44" height="44" fill="white"/>
</clipPath>
</defs>
</svg>
