<svg width="44" height="44" viewBox="0 0 44 44" fill="none" xmlns="http://www.w3.org/2000/svg">
<g clip-path="url(#clip0_39898_112)">
<path d="M43.6203 32.0114L39.1103 29.7564L36.24 22.2902C36.2062 22.2019 36.1546 22.1215 36.0884 22.0541C36.0221 21.9867 35.9427 21.9336 35.855 21.8983L18.0453 14.7792C17.9208 14.7297 17.7845 14.7176 17.6532 14.7444C17.5219 14.7713 17.4013 14.836 17.3063 14.9305L14.931 17.3058C14.8377 17.4009 14.7741 17.5211 14.7478 17.6517C14.7216 17.7823 14.7339 17.9177 14.7831 18.0414L21.9022 35.8511C21.9376 35.9388 21.9906 36.0182 22.058 36.0844C22.1254 36.1507 22.2058 36.2023 22.2941 36.2361L29.7603 39.1064L32.0153 43.6164C32.0628 43.7159 32.1335 43.8024 32.2214 43.8688C32.3094 43.9352 32.412 43.9795 32.5206 43.998C32.5572 44.0014 32.5941 44.0014 32.6306 43.998C32.8127 43.9972 32.987 43.9243 33.1153 43.7952L43.7991 33.1114C43.8777 33.0355 43.9371 32.942 43.9724 32.8386C44.0077 32.7352 44.0178 32.6248 44.0019 32.5167C43.9834 32.4081 43.9392 32.3055 43.8728 32.2175C43.8063 32.1296 43.7198 32.0589 43.6203 32.0114ZM16.2235 17.952L16.605 17.5739L25.4703 26.4392C24.8861 27.2671 24.6337 28.2841 24.7632 29.2891C24.8927 30.2941 25.3946 31.2139 26.1696 31.8666C26.9446 32.5194 27.9364 32.8576 28.9488 32.8143C29.9611 32.7711 30.9204 32.3495 31.6369 31.633C32.3534 30.9165 32.775 29.9572 32.8182 28.9448C32.8615 27.9325 32.5233 26.9407 31.8706 26.1657C31.2178 25.3907 30.298 24.8888 29.293 24.7593C28.288 24.6298 27.271 24.8822 26.4431 25.4664L17.5778 16.6011L17.956 16.2195L35.0644 23.0636L37.7628 30.083L30.0869 37.7589L23.0675 35.0605L16.2235 17.952ZM28.7738 26.0989C29.3917 26.0998 29.9901 26.3149 30.4672 26.7076C30.9442 27.1003 31.2704 27.6462 31.3901 28.2524C31.5098 28.8586 31.4157 29.4875 31.1237 30.032C30.8317 30.5766 30.3599 31.003 29.7888 31.2388C29.2176 31.4745 28.5824 31.5049 27.9914 31.3248C27.4003 31.1448 26.89 30.7653 26.5473 30.2512C26.2046 29.737 26.0508 29.12 26.112 28.5051C26.1733 27.8903 26.4458 27.3157 26.8831 26.8792C27.3851 26.3789 28.0651 26.0982 28.7738 26.0989ZM32.8197 42.1486L31.101 38.7111L38.7081 31.1039L42.1456 32.8227L32.8197 42.1486Z" fill="white"/>
<path d="M13.1508 36.7802C13.0193 36.6559 12.8453 36.5867 12.6644 36.5867C12.4835 36.5867 12.3095 36.6559 12.178 36.7802L11.3049 37.6533C8.97485 34.491 7.68946 30.6805 7.62784 26.753C7.56623 22.8255 8.73145 18.9766 10.9611 15.7427C11.6291 16.1103 12.3983 16.2515 13.1533 16.1451C13.9083 16.0388 14.6085 15.6906 15.149 15.1529C15.6895 14.6151 16.0411 13.9166 16.1513 13.1622C16.2614 12.4077 16.1241 11.6379 15.7599 10.968C18.9937 8.73835 22.8426 7.57313 26.7702 7.63475C30.6977 7.69637 34.5081 8.98175 37.6705 11.3118L36.7836 12.1746C36.6558 12.3035 36.5841 12.4777 36.5842 12.6593C36.5837 12.7497 36.601 12.8394 36.6353 12.9232C36.6695 13.007 36.7199 13.0831 36.7836 13.1474L39.8155 16.1552C39.9443 16.2832 40.1185 16.3551 40.3002 16.3551C40.4818 16.3551 40.656 16.2832 40.7849 16.1552L43.7995 13.1405C43.8635 13.0767 43.9142 13.0008 43.9488 12.9174C43.9834 12.8339 44.0012 12.7445 44.0012 12.6541C44.0012 12.5638 43.9834 12.4743 43.9488 12.3908C43.9142 12.3074 43.8635 12.2315 43.7995 12.1677L40.7849 9.15301C40.656 9.02496 40.4818 8.95309 40.3002 8.95309C40.1185 8.95309 39.9443 9.02496 39.8155 9.15301L38.6502 10.3114C35.7782 8.15028 32.3827 6.79247 28.8124 6.37745C25.2421 5.96242 21.6257 6.50515 18.3345 7.94989L22.298 3.99676C22.7474 4.21149 23.2583 4.2601 23.7401 4.13396C24.222 4.00781 24.6435 3.71508 24.9301 3.30768C25.2166 2.90028 25.3495 2.40456 25.3053 1.90846C25.2611 1.41236 25.0426 0.947953 24.6886 0.59763C24.3346 0.247306 23.8679 0.0337134 23.3713 -0.00525609C22.8748 -0.0442256 22.3805 0.0939476 21.9761 0.384751C21.5718 0.675554 21.2835 1.10019 21.1625 1.58332C21.0414 2.06645 21.0954 2.57684 21.3149 3.02395L14.6255 9.72364C13.9463 9.26803 13.13 9.06238 12.316 9.14181C11.502 9.22123 10.7408 9.58081 10.1625 10.1591C9.58422 10.7374 9.22464 11.4986 9.14522 12.3126C9.06579 13.1266 9.27144 13.9429 9.72704 14.6221L3.02736 21.3114C2.5785 21.0927 2.06663 21.0402 1.58272 21.1633C1.0988 21.2863 0.674177 21.5769 0.384299 21.9835C0.0944207 22.39 -0.0419372 22.8862 -0.00054446 23.3838C0.0408483 23.8814 0.257311 24.3482 0.610378 24.7012C0.963446 25.0543 1.43025 25.2708 1.92785 25.3122C2.42544 25.3536 2.9216 25.2172 3.32815 24.9273C3.7347 24.6374 4.02531 24.2128 4.14836 23.7289C4.2714 23.245 4.21889 22.7331 4.00017 22.2843L7.96361 18.3311C6.51743 21.6214 5.97299 25.2373 6.3862 28.8076C6.7994 32.3778 8.15536 35.7738 10.3149 38.6468L9.15298 39.8121C9.02493 39.9409 8.95306 40.1151 8.95306 40.2968C8.95306 40.4784 9.02493 40.6526 9.15298 40.7814L12.1677 43.7961C12.296 43.9252 12.4703 43.9982 12.6524 43.9989C12.7431 43.999 12.8329 43.9811 12.9167 43.9463C13.0005 43.9115 13.0765 43.8605 13.1405 43.7961L16.1586 40.7814C16.2867 40.6526 16.3585 40.4784 16.3585 40.2968C16.3585 40.1151 16.2867 39.9409 16.1586 39.8121L13.1508 36.7802ZM40.307 10.6036L42.3489 12.6455L40.307 14.6874L38.2652 12.6455L40.307 10.6036ZM22.6899 1.59051C22.792 1.48752 22.9225 1.41719 23.0647 1.38846C23.2069 1.35972 23.3544 1.37387 23.4885 1.42912C23.6226 1.48436 23.7373 1.5782 23.8181 1.69874C23.8988 1.81927 23.9419 1.96107 23.9419 2.10614C23.9419 2.2512 23.8988 2.393 23.8181 2.51354C23.7373 2.63407 23.6226 2.72792 23.4885 2.78316C23.3544 2.8384 23.2069 2.85255 23.0647 2.82382C22.9225 2.79508 22.792 2.72476 22.6899 2.62176C22.6221 2.55408 22.5683 2.4737 22.5316 2.38523C22.495 2.29675 22.4761 2.20191 22.4761 2.10614C22.4761 2.01036 22.495 1.91552 22.5316 1.82705C22.5683 1.73857 22.6221 1.65819 22.6899 1.59051ZM11.1399 11.1364C11.3395 10.9359 11.5768 10.7767 11.8381 10.6681C12.0995 10.5595 12.3797 10.5035 12.6627 10.5035C12.9457 10.5035 13.2259 10.5595 13.4872 10.6681C13.7486 10.7767 13.9858 10.9359 14.1855 11.1364C14.4873 11.4377 14.6929 11.8218 14.7763 12.24C14.8598 12.6581 14.8173 13.0917 14.6542 13.4857C14.4912 13.8797 14.215 14.2166 13.8605 14.4535C13.5059 14.6905 13.0891 14.817 12.6627 14.817C12.2362 14.817 11.8194 14.6905 11.4649 14.4535C11.1104 14.2166 10.8341 13.8797 10.6711 13.4857C10.5081 13.0917 10.4656 12.6581 10.549 12.24C10.6325 11.8218 10.8381 11.4377 11.1399 11.1364ZM2.62861 23.7177C2.48825 23.8347 2.3092 23.8951 2.12663 23.8868C1.94405 23.8786 1.77117 23.8023 1.64194 23.6731C1.51271 23.5439 1.43648 23.371 1.42823 23.1884C1.41998 23.0059 1.48031 22.8268 1.59736 22.6864C1.73493 22.5512 1.9201 22.4755 2.11298 22.4755C2.30587 22.4755 2.49104 22.5512 2.62861 22.6864C2.69637 22.7541 2.75014 22.8345 2.78682 22.923C2.8235 23.0115 2.84238 23.1063 2.84238 23.2021C2.84238 23.2978 2.8235 23.3927 2.78682 23.4812C2.75014 23.5696 2.69637 23.65 2.62861 23.7177ZM12.6627 42.3249L10.6208 40.283L12.6627 38.2411L14.7045 40.283L12.6627 42.3249Z" fill="white"/>
</g>
<defs>
<clipPath id="clip0_39898_112">
<rect width="44" height="44" fill="white"/>
</clipPath>
</defs>
</svg>
