<svg width="22" height="22" viewBox="0 0 22 22" fill="none" xmlns="http://www.w3.org/2000/svg">
<path d="M17.5322 7.5621V16.4996C17.5322 16.7731 17.4235 17.0354 17.2301 17.2288C17.0367 17.4222 16.7744 17.5309 16.5009 17.5309H7.56343C7.28993 17.5309 7.02762 17.4222 6.83423 17.2288C6.64083 17.0354 6.53218 16.7731 6.53218 16.4996C6.53218 16.2261 6.64083 15.9638 6.83423 15.7704C7.02762 15.577 7.28993 15.4684 7.56343 15.4684H14.0087L4.77132 6.22835C4.67539 6.13242 4.5993 6.01854 4.54739 5.89321C4.49547 5.76788 4.46875 5.63354 4.46875 5.49788C4.46875 5.2239 4.57759 4.96115 4.77132 4.76741C4.96505 4.57368 5.22781 4.46484 5.50179 4.46484C5.77577 4.46484 6.03853 4.57368 6.23226 4.76741L15.4697 14.0074V7.5621C15.4697 7.2886 15.5783 7.02629 15.7717 6.8329C15.9651 6.6395 16.2274 6.53085 16.5009 6.53085C16.7744 6.53085 17.0367 6.6395 17.2301 6.8329C17.4235 7.02629 17.5322 7.2886 17.5322 7.5621Z" fill="#191919"/>
</svg>
