<svg width="22" height="22" viewBox="0 0 22 22" fill="none" xmlns="http://www.w3.org/2000/svg">
<path d="M10.9988 0C6.60548 0 3.03125 3.57423 3.03125 7.96752C3.03125 13.4197 10.1614 21.4239 10.465 21.762C10.7502 22.0796 11.248 22.079 11.5326 21.762C11.8362 21.4239 18.9664 13.4197 18.9664 7.96752C18.9663 3.57423 15.3921 0 10.9988 0ZM10.9988 20.1837C8.59914 17.3332 4.46606 11.7095 4.46606 7.96761C4.46606 4.36537 7.39662 1.43481 10.9988 1.43481C14.601 1.43481 17.5316 4.36537 17.5316 7.96757C17.5315 11.7096 13.3991 17.3323 10.9988 20.1837Z" fill="white"/>
<path d="M11.0008 3.96094C8.79043 3.96094 6.99219 5.75922 6.99219 7.96962C6.99219 10.18 8.79047 11.9783 11.0008 11.9783C13.2112 11.9783 15.0094 10.18 15.0094 7.96962C15.0094 5.75922 13.2112 3.96094 11.0008 3.96094ZM11.0008 10.5435C9.58157 10.5435 8.427 9.38888 8.427 7.96962C8.427 6.55036 9.58161 5.39575 11.0008 5.39575C12.42 5.39575 13.5747 6.55036 13.5747 7.96962C13.5747 9.38888 12.42 10.5435 11.0008 10.5435Z" fill="white"/>
</svg>
