<svg width="40" height="40" viewBox="0 0 40 40" fill="none" xmlns="http://www.w3.org/2000/svg">
<path d="M39.6851 15.4489C39.4691 15.059 39.1524 14.7342 38.768 14.5086C38.3837 14.2829 37.9458 14.1646 37.5001 14.166H13.8116C13.0129 14.166 12.2358 14.425 11.5968 14.9042C10.9579 15.3834 10.4916 16.0569 10.268 16.8236L5.57922 32.8994C5.33238 33.7456 4.81771 34.489 4.11248 35.0179C3.40725 35.5468 2.5495 35.8327 1.66797 35.8327H31.4578C32.3395 35.8327 33.1974 35.5467 33.9028 35.0177C34.6082 34.4887 35.1229 33.7451 35.3698 32.8987L39.871 17.4668C39.9757 17.135 40.0132 16.7856 39.9812 16.4391C39.9493 16.0926 39.8486 15.756 39.6851 15.4489Z" fill="white"/>
<path d="M3.975 32.4327L8.66667 16.3577C8.99352 15.2464 9.67063 14.2704 10.5971 13.5752C11.5237 12.8799 12.65 12.5026 13.8083 12.4993H35V11.666C35 10.782 34.6488 9.93411 34.0237 9.30899C33.3986 8.68387 32.5507 8.33268 31.6667 8.33268H18.9631C18.7147 8.33268 18.4695 8.27733 18.2453 8.17066C18.021 8.06399 17.8234 7.90867 17.6667 7.71602L16.0286 5.70177C15.6384 5.22198 15.1461 4.83519 14.5876 4.56953C14.0291 4.30387 13.4184 4.16603 12.8 4.16602H3.33333C2.44928 4.16602 1.60143 4.5172 0.976311 5.14233C0.35119 5.76745 0 6.61529 0 7.49935L0 32.4993C0 32.9414 0.175595 33.3653 0.488155 33.6779C0.800716 33.9904 1.22464 34.166 1.66667 34.166C2.18688 34.1646 2.69269 33.9951 3.10868 33.6827C3.52467 33.3703 3.82855 32.9319 3.975 32.4327Z" fill="white"/>
</svg>
