<svg width="45" height="45" viewBox="0 0 45 45" fill="none" xmlns="http://www.w3.org/2000/svg">
<path d="M34.8069 14.0981C34.8069 13.9825 34.7928 13.8661 34.7635 13.7514C33.8452 10.1448 31.3847 7.19862 28.125 5.57874V8.4375C28.125 9.2141 27.496 9.84375 26.7188 9.84375C25.9415 9.84375 25.3125 9.2141 25.3125 8.4375V4.61357V4.21875C25.3125 3.44207 24.6829 2.8125 23.9062 2.8125H21.0938C20.3171 2.8125 19.6875 3.44207 19.6875 4.21875V4.6134V8.4375C19.6875 9.2141 19.0578 9.84375 18.2812 9.84375C17.5047 9.84375 16.875 9.2141 16.875 8.4375V5.57874C13.6146 7.19853 11.1541 10.1448 10.2358 13.7514C10.2066 13.8662 10.1963 13.9822 10.2017 14.0973C9.20191 14.2628 8.4375 15.1252 8.4375 16.1719C8.4375 17.3369 9.3819 18.2812 10.5469 18.2812H34.4531C35.6181 18.2812 36.5625 17.3369 36.5625 16.1719C36.5625 15.1281 35.8026 14.2671 34.8069 14.0981Z" fill="white"/>
<path d="M32.3438 21.0938H12.6562V22.5C12.6562 25.1846 13.739 27.6192 15.4876 29.3968C15.4832 29.4422 15.4688 29.4851 15.4688 29.5312V31.8987L22.465 35.0079L29.5312 31.4745V29.5312C29.5312 29.485 29.5168 29.442 29.5124 29.3966C31.2609 27.6189 32.3438 25.1844 32.3438 22.5V21.0938Z" fill="white"/>
<path d="M14.0625 42.1873H30.9375V33.916L23.129 37.8203C22.9312 37.9192 22.7156 37.9686 22.5 37.9686C22.3057 37.9686 22.1107 37.9281 21.9287 37.8471L14.0625 34.351V42.1873Z" fill="white"/>
<path d="M11.25 33.9082C7.90125 34.934 4.99408 37.0832 3.04873 40.0018C2.76102 40.4331 2.73424 40.9879 2.97869 41.4452C3.22382 41.9025 3.70035 42.1881 4.21877 42.1881H11.25V33.9082Z" fill="white"/>
<path d="M41.9513 40.0017C40.0061 37.0832 37.0991 34.9341 33.75 33.9082V42.1879H40.7812C41.3004 42.1879 41.7769 41.9023 42.0213 41.445C42.2658 40.9877 42.2383 40.4329 41.9513 40.0017Z" fill="white"/>
</svg>
