<svg width="40" height="40" viewBox="0 0 40 40" fill="none" xmlns="http://www.w3.org/2000/svg">
<g clip-path="url(#clip0_37603_446)">
<path d="M19.9992 0C11.5627 0 4.69922 6.86359 4.69922 15.3C4.69922 23.7364 11.5628 30.6 19.9992 30.6C28.4356 30.6 35.2992 23.7364 35.2992 15.3C35.2992 6.86359 28.4357 0 19.9992 0ZM27.1788 25.1819L19.9992 21.7843L12.8196 25.1819L13.8323 17.3038L8.38242 11.5256L16.1878 10.0543L19.9992 3.08539L23.8105 10.0541L31.616 11.5255L26.1662 17.3038L27.1788 25.1819Z" fill="white"/>
<path d="M22.2861 12.1527L19.9988 7.9707L17.7116 12.1527L13.0273 13.0357L16.298 16.5034L15.6902 21.2312L19.9988 19.1922L24.3074 21.2312L23.6997 16.5034L26.9703 13.0357L22.2861 12.1527Z" fill="white"/>
<path d="M9.3125 34.644C10.3473 34.4937 11.3382 34.1436 12.2398 33.6093V31.1534C11.2125 30.6495 10.2326 30.0433 9.3125 29.3398V34.644Z" fill="white"/>
<path d="M27.7617 33.6093C28.6633 34.1436 29.6542 34.4937 30.689 34.644V29.3398C29.7689 30.0433 28.789 30.6495 27.7617 31.1534V33.6093Z" fill="white"/>
<path d="M14.582 32.0996V39.9999C16.3171 39.7495 17.9125 38.9436 19.162 37.6688L19.9989 36.8151L20.8358 37.6688C22.0853 38.9435 23.6807 39.7495 25.4158 39.9999V32.0996C23.6881 32.6546 21.8659 32.9437 19.9989 32.9437C18.132 32.9437 16.3097 32.6546 14.582 32.0996Z" fill="white"/>
</g>
<defs>
<clipPath id="clip0_37603_446">
<rect width="40" height="40" fill="white"/>
</clipPath>
</defs>
</svg>
