<svg width="48" height="48" viewBox="0 0 48 48" fill="none" xmlns="http://www.w3.org/2000/svg">
<path d="M20.3767 11.2845L19.3267 15.1417C19.2878 15.2904 19.2935 15.4473 19.3433 15.5927C19.3931 15.7381 19.4846 15.8656 19.6064 15.9592C19.728 16.0545 19.8755 16.1106 20.0297 16.1203C20.1838 16.1299 20.3372 16.0926 20.4697 16.0132L23.7832 14.0685L26.9332 16.254C27.0609 16.3399 27.211 16.3865 27.3649 16.3879C27.5189 16.3893 27.6698 16.3454 27.799 16.2618C27.9283 16.1782 28.0301 16.0584 28.0919 15.9175C28.1537 15.7765 28.1728 15.6204 28.1467 15.4687L27.3839 11.5485L30.4019 9.06748C30.5189 8.97071 30.6048 8.84171 30.6491 8.69651C30.6934 8.5513 30.694 8.3963 30.6509 8.25073C30.6105 8.10353 30.5265 7.97201 30.4099 7.87348C30.2933 7.77495 30.1496 7.71403 29.9977 7.69873L26.2177 7.24723L24.9029 3.52198C24.8499 3.37483 24.7544 3.24673 24.6285 3.15393C24.5026 3.06113 24.3519 3.00781 24.1957 3.00073C24.0395 2.9939 23.8849 3.03499 23.7527 3.11851C23.6205 3.20203 23.5171 3.32397 23.4562 3.46798L21.8617 7.08448L18.0592 7.24723C17.907 7.25537 17.7605 7.30755 17.6375 7.39743C17.5144 7.48731 17.4202 7.61101 17.3662 7.75348C17.3119 7.89528 17.3007 8.04995 17.3341 8.19807C17.3675 8.34619 17.4438 8.48115 17.5537 8.58598L20.3767 11.2845ZM43.8494 14.4112C43.8065 14.2655 43.7218 14.1355 43.6059 14.0372C43.4899 13.939 43.3478 13.8769 43.1969 13.8585L39.4244 13.4077L38.1022 9.68173C38.049 9.5346 37.9533 9.40659 37.8272 9.31392C37.7012 9.22125 37.5505 9.16811 37.3942 9.16123C37.2381 9.15395 37.0835 9.19479 36.9514 9.27823C36.8193 9.36166 36.7159 9.48366 36.6554 9.62773L35.0609 13.2442L31.2659 13.4077C31.1139 13.4164 30.9677 13.469 30.845 13.5591C30.7223 13.6493 30.6284 13.7732 30.5748 13.9157C30.5212 14.0582 30.5101 14.2132 30.5429 14.3619C30.5757 14.5106 30.651 14.6465 30.7597 14.7532L33.5752 17.4442L32.5327 21.3022C32.4913 21.4511 32.4951 21.609 32.5435 21.7557C32.592 21.9025 32.683 22.0315 32.8049 22.1265C32.9295 22.219 33.0787 22.2728 33.2337 22.2811C33.3887 22.2893 33.5427 22.2517 33.6764 22.173L36.9817 20.2282L40.1392 22.4145C40.2654 22.5024 40.415 22.5508 40.5689 22.5535C40.7227 22.5561 40.8739 22.513 41.0032 22.4295C41.1323 22.3441 41.2335 22.2227 41.2943 22.0803C41.3551 21.9379 41.3728 21.7808 41.3452 21.6285L40.5907 17.709L43.6004 15.2272C43.7187 15.1316 43.8056 15.0028 43.85 14.8574C43.8944 14.712 43.8942 14.5566 43.8494 14.4112ZM14.9399 21.6285L14.1854 17.709L17.1952 15.2272C17.313 15.1312 17.4002 15.0028 17.4459 14.8577C17.4917 14.7127 17.4939 14.5575 17.4524 14.4112C17.4072 14.2665 17.3217 14.1376 17.2058 14.0397C17.09 13.9418 16.9487 13.879 16.7984 13.8585L13.0184 13.4077L11.6962 9.68173C11.6423 9.53648 11.5466 9.41047 11.4211 9.31964C11.2956 9.2288 11.146 9.17724 10.9912 9.17145C10.8364 9.16567 10.6834 9.20594 10.5515 9.28716C10.4196 9.36838 10.3147 9.4869 10.2502 9.62773L8.65567 13.2442L4.85992 13.4077C4.70828 13.4171 4.5626 13.4702 4.44043 13.5605C4.31827 13.6508 4.22484 13.7745 4.1714 13.9168C4.11797 14.059 4.10682 14.2136 4.13929 14.362C4.17177 14.5105 4.24648 14.6463 4.35442 14.7532L7.16992 17.4442L6.12742 21.3022C6.08606 21.4513 6.09035 21.6094 6.13973 21.7561C6.1891 21.9027 6.2813 22.0312 6.40442 22.1249C6.52754 22.2187 6.67592 22.2733 6.83042 22.2819C6.98492 22.2905 7.13845 22.2525 7.27117 22.173L10.5764 20.229L13.7339 22.4145C13.8613 22.5003 14.0111 22.5467 14.1647 22.5479C14.3182 22.5491 14.4687 22.505 14.5974 22.4212C14.7261 22.3373 14.8272 22.2174 14.8881 22.0764C14.949 21.9354 14.967 21.7796 14.9399 21.6285ZM28.9012 33.7305C27.5422 34.9152 25.8002 35.568 23.9973 35.568C22.1944 35.568 20.4524 34.9152 19.0934 33.7305C16.8239 34.6605 14.8621 36.2108 13.4329 38.2041C12.0037 40.1973 11.1647 42.5528 11.0122 45.0007H36.9899C36.8344 42.5526 35.9934 40.1976 34.5631 38.2047C33.1327 36.2118 31.1707 34.6614 28.9012 33.7305Z" fill="white"/>
<path d="M23.9935 22.3132C22.4397 22.316 20.9505 22.935 19.8525 24.0344C18.7546 25.1337 18.1375 26.6237 18.1367 28.1775C18.409 35.9325 29.5855 35.94 29.8577 28.1775C29.8567 26.6223 29.2385 25.1311 28.1388 24.0314C27.0391 22.9317 25.5479 22.3135 23.9927 22.3125L23.9935 22.3132Z" fill="white"/>
</svg>
