<svg width="26" height="26" viewBox="0 0 26 26" fill="none" xmlns="http://www.w3.org/2000/svg">
<g clip-path="url(#clip0_37583_50)">
<path d="M20.5449 16.108C20.0126 15.5538 19.3706 15.2575 18.6901 15.2575C18.0152 15.2575 17.3677 15.5483 16.8134 16.1026L15.0794 17.8311C14.9367 17.7543 14.794 17.6829 14.6568 17.6116C14.4593 17.5128 14.2727 17.4195 14.1136 17.3208C12.4893 16.2891 11.0132 14.9447 9.59739 13.2052C8.91146 12.3381 8.45051 11.6083 8.11577 10.8675C8.56575 10.4559 8.9828 10.0279 9.38887 9.61635C9.54252 9.4627 9.69617 9.30357 9.84982 9.14992C11.0022 7.99755 11.0022 6.50495 9.84982 5.35258L8.35174 3.8545C8.18162 3.68439 8.00602 3.50879 7.8414 3.33319C7.51215 2.99297 7.16644 2.64177 6.80975 2.31252C6.27747 1.78572 5.64092 1.50586 4.97145 1.50586C4.30198 1.50586 3.65445 1.78572 3.10571 2.31252C3.10022 2.31801 3.10022 2.31801 3.09473 2.32349L1.22899 4.2057C0.526591 4.9081 0.126005 5.76414 0.0382052 6.75738C-0.0934943 8.35972 0.378429 9.85231 0.740602 10.8291C1.62957 13.2271 2.95754 15.4495 4.93852 17.8311C7.34204 20.7011 10.2339 22.9674 13.5374 24.5642C14.7995 25.1624 16.4842 25.8703 18.3664 25.991C18.4816 25.9965 18.6023 26.002 18.7121 26.002C19.9797 26.002 21.0443 25.5465 21.8784 24.6411C21.8839 24.6301 21.8948 24.6246 21.9003 24.6136C22.1857 24.2679 22.5149 23.9551 22.8606 23.6204C23.0966 23.3954 23.338 23.1594 23.574 22.9125C24.1173 22.3473 24.4026 21.6888 24.4026 21.0138C24.4026 20.3334 24.1118 19.6804 23.5575 19.1316L20.5449 16.108ZM22.5094 21.8864C22.5039 21.8864 22.5039 21.8918 22.5094 21.8864C22.2954 22.1168 22.0759 22.3254 21.84 22.5558C21.4833 22.896 21.1211 23.2527 20.7809 23.6533C20.2266 24.246 19.5736 24.5258 18.7176 24.5258C18.6353 24.5258 18.5475 24.5258 18.4652 24.5203C16.8354 24.4161 15.3208 23.7795 14.1849 23.2363C11.079 21.7327 8.35174 19.5981 6.08541 16.8927C4.21418 14.6374 2.96303 12.5522 2.13442 10.3133C1.62409 8.94688 1.43751 7.88231 1.51982 6.8781C1.5747 6.23607 1.82164 5.70378 2.2771 5.24832L4.14833 3.37709C4.41721 3.12467 4.70256 2.98748 4.98242 2.98748C5.32813 2.98748 5.608 3.196 5.7836 3.3716C5.78908 3.37709 5.79457 3.38258 5.80006 3.38806C6.13479 3.70085 6.45307 4.02461 6.7878 4.37032C6.95792 4.54592 7.13351 4.72152 7.30911 4.90261L8.8072 6.40069C9.38887 6.98236 9.38887 7.52014 8.8072 8.10181C8.64806 8.26095 8.49441 8.42008 8.33527 8.57373C7.87432 9.04565 7.43533 9.48465 6.95792 9.91268C6.94694 9.92365 6.93597 9.92914 6.93048 9.94011C6.45856 10.412 6.54635 10.873 6.64513 11.1858C6.65062 11.2022 6.6561 11.2187 6.66159 11.2352C7.0512 12.179 7.59995 13.068 8.43405 14.1271L8.43954 14.1325C9.95408 15.9983 11.5509 17.4525 13.3124 18.5664C13.5374 18.7091 13.7679 18.8243 13.9874 18.9341C14.1849 19.0329 14.3715 19.1262 14.5306 19.2249C14.5526 19.2359 14.5745 19.2524 14.5965 19.2633C14.7831 19.3566 14.9587 19.4005 15.1397 19.4005C15.5952 19.4005 15.8806 19.1152 15.9738 19.0219L17.8506 17.1452C18.0371 16.9586 18.3335 16.7336 18.6792 16.7336C19.0194 16.7336 19.2993 16.9476 19.4694 17.1342C19.4749 17.1397 19.4749 17.1397 19.4803 17.1452L22.5039 20.1688C23.0692 20.7285 23.0692 21.3047 22.5094 21.8864Z" fill="white"/>
<path d="M14.0473 6.18443C15.485 6.42588 16.791 7.10633 17.8336 8.14895C18.8763 9.19157 19.5512 10.4976 19.7982 11.9353C19.8585 12.2975 20.1713 12.5499 20.528 12.5499C20.5719 12.5499 20.6103 12.5444 20.6542 12.5389C21.0603 12.4731 21.3292 12.089 21.2633 11.6829C20.967 9.94335 20.1439 8.35747 18.8872 7.10084C17.6306 5.84421 16.0447 5.02109 14.3052 4.72476C13.8991 4.65891 13.5205 4.9278 13.4491 5.32838C13.3778 5.72897 13.6412 6.11858 14.0473 6.18443Z" fill="white"/>
<path d="M25.9746 11.4691C25.4862 8.60468 24.1363 5.99813 22.062 3.92387C19.9877 1.8496 17.3812 0.49968 14.5167 0.011294C14.1161 -0.0600432 13.7375 0.214331 13.6662 0.614917C13.6003 1.02099 13.8692 1.39963 14.2753 1.47096C16.8324 1.90447 19.1646 3.11721 21.0194 4.96649C22.8742 6.82125 24.0814 9.15343 24.5149 11.7106C24.5753 12.0728 24.8881 12.3252 25.2447 12.3252C25.2886 12.3252 25.3271 12.3197 25.371 12.3142C25.7715 12.2539 26.0459 11.8697 25.9746 11.4691Z" fill="white"/>
</g>
<defs>
<clipPath id="clip0_37583_50">
<rect width="26" height="26" fill="white"/>
</clipPath>
</defs>
</svg>
