<svg width="24" height="24" viewBox="0 0 24 24" fill="none" xmlns="http://www.w3.org/2000/svg">
<path d="M19.0452 3.49163L13.5242 1.41963C12.5322 1.04763 11.4522 1.04763 10.4722 1.41963L4.93919 3.49163C3.69819 3.96263 2.86719 5.16663 2.86719 6.49363V12.1016C2.86719 14.5456 3.98419 16.6546 5.44719 18.3796C6.89919 20.0916 8.68519 21.4196 10.0252 22.2756C10.6332 22.6606 11.3152 22.8586 11.9982 22.8586C12.6812 22.8586 13.3632 22.6606 13.9712 22.2756C16.6382 20.5636 21.1302 16.9776 21.1302 12.1016V6.49363C21.1302 5.16663 20.2852 3.96263 19.0452 3.49163ZM16.4892 9.93062L12.3952 14.0126C11.9732 14.4346 11.4152 14.6456 10.8692 14.6456C10.3112 14.6456 9.75219 14.4346 9.33119 14.0126L7.73019 12.4116C7.35819 12.0516 7.35819 11.4566 7.73019 11.0966C8.09019 10.7246 8.67319 10.7246 9.04519 11.0966L10.6452 12.6976C10.7692 12.8216 10.9552 12.8216 11.0792 12.6976L15.1732 8.61563C15.5332 8.24363 16.1162 8.24363 16.4882 8.61563C16.8482 8.97563 16.8492 9.57063 16.4892 9.93062Z" fill="white"/>
</svg>
