<svg width="36" height="36" viewBox="0 0 36 36" fill="none" xmlns="http://www.w3.org/2000/svg">
<g clip-path="url(#clip0_37730_14)">
<mask id="mask0_37730_14" style="mask-type:luminance" maskUnits="userSpaceOnUse" x="0" y="0" width="36" height="36">
<path d="M36 0H0V36H36V0Z" fill="white"/>
</mask>
<g mask="url(#mask0_37730_14)">
<path d="M18.0644 12.5592C18.5599 12.5592 18.9611 12.1576 18.9611 11.6624C18.9611 11.1672 18.5599 10.7656 18.0644 10.7656C14.1025 10.7656 10.8906 13.9775 10.8906 17.9397C10.8906 21.9016 14.1025 25.1135 18.0644 25.1135C22.0266 25.1135 25.2385 21.9016 25.2385 17.9397C25.2385 17.4442 24.8369 17.043 24.3417 17.043C23.8465 17.043 23.4449 17.4442 23.4449 17.9397C23.4449 20.9112 21.0362 23.3203 18.0644 23.3203C15.0929 23.3203 12.6838 20.9112 12.6838 17.9397C12.6838 14.9679 15.0929 12.5592 18.0644 12.5592Z" fill="white"/>
<path d="M35.1702 12.6137C35.0145 12.1432 34.5069 11.888 34.0361 12.0437C33.5764 12.1959 33.3204 12.6853 33.4574 13.1498C36.1392 21.6897 31.3903 30.7867 22.8504 33.4685C14.3108 36.1502 5.21382 31.4014 2.53206 22.8614C-0.149972 14.3215 4.59914 5.22456 13.1388 2.5428C16.3001 1.55018 19.6894 1.55018 22.8504 2.5428C23.325 2.68589 23.8257 2.41728 23.9688 1.94267C24.1097 1.4752 23.8513 0.98109 23.3869 0.830033C13.9043 -2.14507 3.8051 3.13029 0.830007 12.6131C-2.14509 22.0957 3.13054 32.1949 12.6131 35.1699C22.0959 38.1451 32.1948 32.8697 35.1699 23.3869C36.2702 19.88 36.2702 16.1205 35.1702 12.6137Z" fill="white"/>
<path d="M19.7699 6.4079C19.7746 5.89734 19.3824 5.47047 18.8732 5.4323C18.6054 5.40954 18.3374 5.38672 18.0624 5.38672C11.1287 5.38672 5.50781 11.0076 5.50781 17.9413C5.50781 24.8748 11.1287 30.4957 18.0624 30.4957C24.9959 30.4957 30.6167 24.8748 30.6167 17.9413C30.6167 17.617 30.5969 17.2929 30.5571 16.971C30.4855 16.4788 30.0284 16.1379 29.5362 16.2096C29.0441 16.281 28.7032 16.7383 28.7746 17.2305C28.7774 17.2492 28.7806 17.2676 28.7845 17.2863C28.804 17.5035 28.8232 17.7188 28.8232 17.9408C28.8235 23.8841 24.0057 28.7018 18.0627 28.7024C12.1194 28.7027 7.30156 23.8846 7.3013 17.9416C7.30104 11.9985 12.1185 7.18052 18.0619 7.18026C18.2844 7.18026 18.5002 7.19948 18.7169 7.2187L18.885 7.23272C19.3536 7.25274 19.7496 6.88908 19.7694 6.42055C19.7697 6.41616 19.7697 6.41203 19.7699 6.4079Z" fill="white"/>
<path d="M23.4366 8.07391V11.2896L17.4222 17.304C17.066 17.6482 17.0561 18.2159 17.4002 18.5721C17.7444 18.9284 18.3121 18.9383 18.6683 18.5941C18.6758 18.587 18.6832 18.5796 18.6903 18.5721L24.7047 12.5577H27.9204C28.1583 12.5577 28.3863 12.4632 28.5546 12.2949L33.9349 6.91429C34.2851 6.56413 34.2851 5.99639 33.9349 5.64619C33.7668 5.4781 33.5388 5.38365 33.301 5.38365H30.6107V2.69336C30.6107 2.19815 30.2091 1.7966 29.7137 1.79688C29.4761 1.79688 29.2482 1.89136 29.08 2.05945L23.6995 7.43999C23.5311 7.60808 23.4366 7.83604 23.4366 8.07391ZM25.2302 8.44524L28.8172 4.85821V6.28037C28.8172 6.77558 29.2187 7.17714 29.7139 7.17714H31.1361L27.5491 10.7642H25.2302V8.44524Z" fill="white"/>
</g>
</g>
<defs>
<clipPath id="clip0_37730_14">
<rect width="36" height="36" fill="white"/>
</clipPath>
</defs>
</svg>
