<svg width="48" height="48" viewBox="0 0 48 48" fill="none" xmlns="http://www.w3.org/2000/svg">
<path d="M43.5007 25.8653H40.7655C42.3225 24.9061 42.5827 22.5038 41.241 21.2401L37.413 17.4113L39.1028 15.7223C39.5204 15.9254 39.9911 15.9929 40.449 15.9153C40.9069 15.8377 41.3291 15.6189 41.6565 15.2896L45.369 11.5771C45.7901 11.1548 46.0265 10.5827 46.0265 9.98634C46.0265 9.38997 45.7901 8.81792 45.369 8.39559L43.248 6.27459C42.3975 5.42409 40.9155 5.42409 40.0658 6.27459L36.3532 9.98709C35.6835 10.6366 35.5012 11.7098 35.9197 12.5416L34.2315 14.2298L30.4035 10.4026C28.9365 8.83959 26.0865 9.49509 25.4528 11.5411L21.8107 22.0013C21.0387 21.5313 20.14 21.312 19.2382 21.3736C17.952 17.5591 12.4793 17.3536 10.8923 21.0421C7.7445 19.4551 3.8715 22.4048 4.569 25.8646C4.16948 25.8562 3.7723 25.9276 3.40069 26.0745C3.02908 26.2215 2.69049 26.441 2.40473 26.7203C2.11898 26.9997 1.89178 27.3332 1.73643 27.7014C1.58109 28.0695 1.50071 28.465 1.5 28.8646V31.8646C1.5 32.7653 1.9065 33.5648 2.5365 34.1146C2.21254 34.3934 1.95232 34.7386 1.77348 35.1268C1.59465 35.515 1.50138 35.9372 1.5 36.3646V39.3646C1.5 41.0191 2.8455 42.3646 4.5 42.3646H21.75C22.65 42.3646 23.4495 41.9581 24 41.3281C24.5505 41.9581 25.35 42.3653 26.25 42.3653H43.5C45.1545 42.3653 46.5 41.0191 46.5 39.3653V36.3653C46.5 35.4653 46.0935 34.6651 45.4635 34.1153C45.7875 33.8365 46.0477 33.4913 46.2265 33.1031C46.4054 32.7149 46.4986 32.2928 46.5 31.8653V28.8653C46.5 27.2108 45.1553 25.8653 43.5007 25.8653ZM37.4137 11.0476L41.1263 7.33509C41.2673 7.19522 41.4579 7.11674 41.6565 7.11674C41.8551 7.11674 42.0457 7.19522 42.1868 7.33509L44.3078 9.45609C44.6003 9.74859 44.6003 10.2241 44.3078 10.5166L40.596 14.2291C40.3035 14.5216 39.828 14.5216 39.5348 14.2291L37.4137 12.1073C37.2739 11.9664 37.1955 11.776 37.1955 11.5775C37.1955 11.379 37.2739 11.1885 37.4137 11.0476ZM36.8835 13.6988L37.944 14.7593L32.6408 20.0626C32.3482 20.3551 31.8727 20.3551 31.5802 20.0626C31.44 19.9218 31.3613 19.7311 31.3613 19.5323C31.3613 19.3336 31.44 19.1429 31.5802 19.0021L36.8835 13.6988ZM22.8705 23.5208C22.8697 23.5208 26.8703 12.0331 26.8695 12.0316C27.1823 11.0063 28.6125 10.6861 29.343 11.4631L33.171 15.2903L30.5198 17.9416C30.0985 18.3638 29.8619 18.9359 29.8619 19.5323C29.8619 20.1288 30.0985 20.7009 30.5198 21.1231C30.9419 21.5445 31.514 21.7812 32.1105 21.7812C32.707 21.7812 33.2791 21.5445 33.7012 21.1231L36.3525 18.4726L40.1805 22.3006C40.956 23.0326 40.638 24.4613 39.609 24.7748L22.9987 30.5573C21.864 30.9983 20.6423 29.7826 21.0863 28.6463L22.8705 23.5208ZM9.00075 22.1153C9.6705 22.1153 10.3095 22.3433 10.8495 22.7753C11.2688 23.1316 11.9722 22.8698 12.0555 22.3261C12.6743 19.0688 17.3542 19.0763 17.9445 22.3411C18.0075 22.7536 18.447 23.0476 18.8505 22.9433C19.7145 22.7371 20.607 22.9508 21.2992 23.4728L20.4667 25.8653H15.0007C14.1007 25.8653 13.3013 26.2718 12.7508 26.9018C12.4719 26.5779 12.1267 26.3177 11.7385 26.1388C11.3503 25.96 10.9282 25.8667 10.5008 25.8653H6.1095C5.5695 24.0136 7.08075 22.0853 9.00075 22.1153ZM3.00075 28.8653C3.00075 28.0381 3.6735 27.3653 4.50075 27.3653H10.5008C11.328 27.3653 12.0008 28.0381 12.0008 28.8653V31.8653C12.0008 32.6926 11.328 33.3653 10.5008 33.3653H4.50075C3.6735 33.3653 3.00075 32.6926 3.00075 31.8653V28.8653ZM23.2507 39.3653C23.2507 40.1926 22.578 40.8653 21.7507 40.8653H4.50075C3.6735 40.8653 3.00075 40.1926 3.00075 39.3653V36.3653C3.00075 35.5381 3.6735 34.8653 4.50075 34.8653H21.7507C22.578 34.8653 23.2507 35.5381 23.2507 36.3653V39.3653ZM15.0007 33.3653C14.1735 33.3653 13.5007 32.6926 13.5007 31.8653V28.8653C13.5007 28.0381 14.1735 27.3653 15.0007 27.3653H19.9447L19.6695 28.1551C18.9495 30.0248 20.5193 32.1976 22.497 32.1413C22.6163 32.4511 33.2715 28.5038 33.6795 28.4266C33.813 28.6163 33.7297 31.5818 33.7507 31.8653C33.7507 32.6926 33.078 33.3653 32.2507 33.3653H15.0007ZM45.0007 39.3653C45.0007 40.1926 44.328 40.8653 43.5007 40.8653H26.2507C25.4235 40.8653 24.7507 40.1926 24.7507 39.3653V36.3653C24.7507 35.5381 25.4235 34.8653 26.2507 34.8653H43.5007C44.328 34.8653 45.0007 35.5381 45.0007 36.3653V39.3653ZM45.0007 31.8653C45.0007 32.6926 44.328 33.3653 43.5007 33.3653H36.7507C35.9235 33.3653 35.2507 32.6926 35.2507 31.8653V28.8653C35.2507 28.3921 35.4787 27.9526 35.856 27.6691L36.726 27.3661L43.5007 27.3653C44.328 27.3653 45.0007 28.0381 45.0007 28.8653V31.8653Z" fill="white"/>
</svg>
