<svg width="48" height="48" viewBox="0 0 48 48" fill="none" xmlns="http://www.w3.org/2000/svg">
<g clip-path="url(#clip0_37828_3514)">
<path d="M36.75 36C37.9905 36 39 34.9905 39 33.75C39 32.5095 37.9905 31.5 36.75 31.5C35.5095 31.5 34.5 32.5095 34.5 33.75C34.5 34.9905 35.5095 36 36.75 36ZM36.75 33C36.8985 32.9999 37.0438 33.0438 37.1674 33.1262C37.291 33.2086 37.3873 33.3259 37.4442 33.4631C37.5011 33.6003 37.5161 33.7513 37.4871 33.897C37.4582 34.0427 37.3866 34.1766 37.2816 34.2816C37.1766 34.3866 37.0427 34.4582 36.897 34.4871C36.7513 34.5161 36.6003 34.5011 36.4631 34.4442C36.3259 34.3873 36.2086 34.291 36.1262 34.1674C36.0438 34.0438 35.9999 33.8985 36 33.75C36 33.336 36.3368 33 36.75 33Z" fill="white"/>
<path d="M44.37 30.5835C44.2585 30.3199 44.2281 30.029 44.2828 29.7481C44.3374 29.4671 44.4746 29.2089 44.6768 29.0062L45.768 27.9143L42.585 24.7312L41.4923 25.8232C41.079 26.2372 40.4595 26.3573 39.8865 26.1173C39.6237 26.0093 39.399 25.8256 39.2411 25.5894C39.0832 25.3532 38.9993 25.0753 39 24.7913V23.25H37.4618C37.3972 22.0633 37.1737 20.8906 36.7972 19.7633L45.4762 11.0843C46.0403 10.5234 46.4875 9.85625 46.7919 9.12142C47.0964 8.38658 47.2521 7.59866 47.25 6.80325C47.25 3.46575 44.5343 0.75 41.1968 0.75C39.5798 0.75 38.0595 1.38 36.9165 2.523L28.2465 11.1938C27.1026 10.8145 25.9125 10.5922 24.7087 10.533C23.6737 8.72475 21.729 7.5 19.5 7.5C18.9293 7.5 18.3787 7.5855 17.8545 7.73475C16.56 5.301 14.0452 3.75 11.25 3.75C7.1145 3.75 3.75 7.1145 3.75 11.25C3.75 11.8245 3.8205 12.39 3.94875 12.9435C3.02449 13.2238 2.21474 13.7936 1.63883 14.569C1.06293 15.3443 0.751343 16.2842 0.75 17.25C0.75 19.7318 2.76825 21.75 5.25 21.75H10.6905C10.5647 22.4934 10.501 23.246 10.5 24C10.5 25.6507 10.8053 26.994 11.298 28.1415L4.60725 34.833L0.88425 44.5125C0.745732 44.8762 0.715363 45.2722 0.796805 45.6528C0.878246 46.0333 1.06802 46.3822 1.34325 46.6574C1.61849 46.9325 1.96743 47.1222 2.34802 47.2035C2.7286 47.2849 3.12459 47.2544 3.48825 47.1157L13.1677 43.3927L18.06 38.4997C18.0233 38.661 18 38.8275 18 39C18 39.5783 18.2257 40.101 18.585 40.5C18.2102 40.9098 18.0016 41.4446 18 42C18 43.0425 18.7162 43.914 19.68 44.1675C20.319 45.9975 22.0305 47.25 24 47.25C25.9695 47.25 27.681 45.9975 28.32 44.1675C28.8 44.0423 29.2251 43.7618 29.529 43.3698C29.8329 42.9777 29.9985 42.4961 30 42C30 41.9437 29.9873 41.8913 29.9835 41.8365L30.915 42.768L32.0077 41.676C32.421 41.262 33.0382 41.1413 33.6128 41.3805C33.8756 41.4891 34.1002 41.6733 34.2582 41.9098C34.4161 42.1463 34.5003 42.4244 34.5 42.7087V44.25H39V42.7087C39 42.1252 39.3488 41.604 39.9165 41.3693C40.18 41.2577 40.4707 41.2273 40.7516 41.282C41.0324 41.3366 41.2906 41.4738 41.493 41.676L42.585 42.768L45.768 39.585L44.6768 38.493C44.2635 38.079 44.1427 37.4603 44.382 36.8872C44.4901 36.6244 44.674 36.3996 44.9103 36.2416C45.1465 36.0836 45.4245 35.9995 45.7087 36H47.25V31.5H45.7087C45.1252 31.5 44.6048 31.1513 44.37 30.5835ZM33.132 32.7945C33.9502 31.9958 34.77 31.1797 35.4772 30.2362C35.8844 30.0834 36.3152 30.0035 36.75 30C38.8177 30 40.5 31.6823 40.5 33.75C40.5 35.8177 38.8177 37.5 36.75 37.5C34.6823 37.5 33 35.8177 33 33.75C33 33.4253 33.0502 33.1058 33.132 32.7945ZM34.0327 15.0285L37.5 11.5605L40.1895 14.25L36.1838 18.2557C35.6245 17.0828 34.9001 15.9961 34.0327 15.0285ZM34.8105 6.75L36 5.5605L42.4395 12L41.25 13.1895L34.8105 6.75ZM41.1968 2.25C42.4039 2.25159 43.5611 2.73181 44.4146 3.58537C45.2682 4.43893 45.7484 5.59614 45.75 6.80325C45.7516 7.40144 45.6346 7.99401 45.4057 8.54668C45.1768 9.09935 44.8406 9.60113 44.4165 10.023L43.5 10.9395L37.0605 4.5L37.977 3.5835C38.3989 3.15946 38.9007 2.82328 39.4534 2.59439C40.006 2.3655 40.5986 2.24845 41.1968 2.25ZM33.75 7.8105L36.4395 10.5L32.9738 13.9657C32.0069 13.0975 30.9206 12.3724 29.748 11.8125L33.75 7.8105ZM36 24C36 27.9023 34.035 29.8193 31.9545 31.848C30.522 33.2453 29.0505 34.6898 28.194 36.795C28.0479 36.7651 27.8991 36.75 27.75 36.75H24.75V33C24.75 31.7595 23.7405 30.75 22.5 30.75H21C20.8069 30.7414 20.6246 30.6586 20.491 30.5189C20.3574 30.3792 20.2828 30.1933 20.2828 30C20.2828 29.8067 20.3574 29.6208 20.491 29.4811C20.6246 29.3414 20.8069 29.2586 21 29.25H28.5C29.7405 29.25 30.75 28.2405 30.75 27C30.75 25.7595 29.7405 24.75 28.5 24.75H22.5C22.0868 24.75 21.75 24.414 21.75 24V21.75H25.5C27.5677 21.75 29.25 20.0677 29.25 18C29.25 15.9323 27.5677 14.25 25.5 14.25C25.479 14.25 25.4595 14.256 25.4385 14.256C25.4707 14.0055 25.5 13.755 25.5 13.5C25.4979 13.0206 25.4385 12.5432 25.323 12.078C31.302 12.744 36 17.8755 36 24ZM19.5 39C19.5 38.586 19.8368 38.25 20.25 38.25H27.75C27.9431 38.2586 28.1254 38.3414 28.259 38.4811C28.3926 38.6208 28.4672 38.8067 28.4672 39C28.4672 39.1933 28.3926 39.3792 28.259 39.5189C28.1254 39.6586 27.9431 39.7414 27.75 39.75H20.25C19.8368 39.75 19.5 39.414 19.5 39ZM10.0605 39L15.5737 33.4867C16.4962 34.4017 17.3528 35.3272 17.9842 36.4545L12.75 41.6895L10.0605 39ZM2.25 17.25C2.25 15.5955 3.5955 14.25 5.25 14.25C6.9045 14.25 8.25 15.5955 8.25 17.25H9.75C9.75 14.8335 7.83375 12.861 5.442 12.7598C5.31412 12.2667 5.2496 11.7594 5.25 11.25C5.25 7.94175 7.94175 5.25 11.25 5.25C12.3163 5.25025 13.3631 5.53553 14.2821 6.07632C15.2011 6.6171 15.9588 7.39372 16.4767 8.32575C15.6685 8.79776 14.9819 9.45218 14.4715 10.2367C13.9612 11.0213 13.6413 11.9143 13.5375 12.8445C12.228 13.167 11.25 14.3422 11.25 15.75H12.75C12.75 14.9227 13.4227 14.25 14.25 14.25C15.0773 14.25 15.75 14.9227 15.75 15.75H17.25C17.25 14.3737 16.314 13.224 15.0487 12.8715C15.3563 10.6875 17.232 9 19.5 9C21.9818 9 24 11.0182 24 13.5C24 13.8945 23.9355 14.2807 23.835 14.6572C22.605 15.273 21.75 16.533 21.75 18H23.25C23.25 16.7595 24.2595 15.75 25.5 15.75C26.7405 15.75 27.75 16.7595 27.75 18C27.75 19.2405 26.7405 20.25 25.5 20.25H5.25C3.5955 20.25 2.25 18.9045 2.25 17.25ZM20.25 21.75V24C20.25 25.2405 21.2595 26.25 22.5 26.25H28.5C28.6931 26.2586 28.8754 26.3414 29.009 26.4811C29.1426 26.6208 29.2172 26.8067 29.2172 27C29.2172 27.1933 29.1426 27.3792 29.009 27.5189C28.8754 27.6586 28.6931 27.7414 28.5 27.75H21C19.7595 27.75 18.75 28.7595 18.75 30C18.75 31.2405 19.7595 32.25 21 32.25H22.5C22.9132 32.25 23.25 32.586 23.25 33V36.75H20.25C20.0977 36.75 19.9493 36.7658 19.806 36.795C18.9495 34.6898 17.478 33.2453 16.0455 31.848C13.965 29.8193 12 27.9023 12 24C12 23.2418 12.0908 22.4902 12.231 21.75H20.25ZM14.5028 32.4368L9 37.9395L6.3105 35.25L12.033 29.5275C12.7373 30.633 13.6102 31.5555 14.5028 32.4368ZM5.53575 36.5962L11.4037 42.4642L6.43575 44.3753L3.62475 41.5642L5.53575 36.5962ZM2.9505 45.7155C2.62575 45.8415 2.25 45.5827 2.25 45.2347C2.25 45.171 2.262 45.1087 2.28375 45.0503L3.03525 43.0957L4.9035 44.964L2.9505 45.7155ZM24 45.75C23.4674 45.7497 22.944 45.6113 22.4807 45.3484C22.0175 45.0856 21.6304 44.7071 21.357 44.25H26.643C26.3696 44.7071 25.9825 45.0856 25.5193 45.3484C25.056 45.6113 24.5326 45.7497 24 45.75ZM27.75 42.75H20.25C20.0569 42.7414 19.8746 42.6586 19.741 42.5189C19.6074 42.3792 19.5328 42.1933 19.5328 42C19.5328 41.8067 19.6074 41.6208 19.741 41.4811C19.8746 41.3414 20.0569 41.2586 20.25 41.25H27.75C27.9431 41.2586 28.1254 41.3414 28.259 41.4811C28.3926 41.6208 28.4672 41.8067 28.4672 42C28.4672 42.1933 28.3926 42.3792 28.259 42.5189C28.1254 42.6586 27.9431 42.7414 27.75 42.75ZM45.75 34.5H45.7087C44.5155 34.5 43.4505 35.2125 42.9855 36.339C42.759 36.8767 42.6979 37.4698 42.8101 38.0424C42.9224 38.6149 43.2028 39.1411 43.6155 39.5535L43.647 39.585L42.585 40.647L42.5535 40.6155C41.7075 39.7695 40.4445 39.5212 39.3142 39.9953C38.7766 40.2163 38.3169 40.5924 37.9938 41.0756C37.6707 41.5589 37.4988 42.1274 37.5 42.7087V42.75H36V42.7087C36 41.5155 35.2875 40.4505 34.161 39.9847C33.6232 39.7579 33.0299 39.6967 32.457 39.809C31.8842 39.9214 31.358 40.2022 30.9458 40.6155L30.9143 40.647L29.898 39.6307C29.958 39.429 30 39.2205 30 39C30 38.4675 29.8065 37.9845 29.496 37.5983C29.9625 36.339 30.6938 35.3317 31.545 34.4017C31.8675 36.9893 34.0762 39 36.75 39C39.645 39 42 36.6442 42 33.75C42 30.8557 39.645 28.5 36.75 28.5C36.6765 28.5 36.6052 28.5075 36.5325 28.5105C37.0402 27.4568 37.389 26.235 37.4768 24.75H37.5V24.7913C37.5 25.9845 38.2125 27.0503 39.3382 27.5145C39.876 27.7417 40.4693 27.8031 41.0422 27.6909C41.615 27.5786 42.1413 27.2978 42.5535 26.8845L42.585 26.853L43.647 27.915L43.6155 27.9465C42.771 28.7917 42.5235 30.054 42.9953 31.185C43.2161 31.7229 43.5921 32.1828 44.0754 32.506C44.5587 32.8293 45.1273 33.0013 45.7087 33H45.75V34.5Z" fill="white"/>
</g>
<defs>
<clipPath id="clip0_37828_3514">
<rect width="48" height="48" fill="white"/>
</clipPath>
</defs>
</svg>
