<svg width="48" height="48" viewBox="0 0 48 48" fill="none" xmlns="http://www.w3.org/2000/svg">
<g clip-path="url(#clip0_37828_3508)">
<path d="M21.6094 23.0625H26.3906C26.5895 23.0625 26.7803 22.9835 26.921 22.8428C27.0616 22.7022 27.1406 22.5114 27.1406 22.3125C27.1406 22.1136 27.0616 21.9228 26.921 21.7822C26.7803 21.6415 26.5895 21.5625 26.3906 21.5625H21.6094C21.4105 21.5625 21.2197 21.6415 21.079 21.7822C20.9384 21.9228 20.8594 22.1136 20.8594 22.3125C20.8594 22.5114 20.9384 22.7022 21.079 22.8428C21.2197 22.9835 21.4105 23.0625 21.6094 23.0625Z" fill="white"/>
<path d="M45.6562 8.25H39.5625C38.5847 8.25 37.7512 8.87709 37.4415 9.75H35.0625C35.0625 8.81953 34.3055 8.0625 33.375 8.0625H32.0625V2.72372C32.0625 1.2735 30.8827 0.09375 29.4326 0.09375H18.5674C17.1173 0.09375 15.9375 1.2735 15.9375 2.72372V8.0625H14.625C13.6945 8.0625 12.9375 8.81953 12.9375 9.75H10.5585C10.2487 8.87709 9.41522 8.25 8.4375 8.25H2.34375C1.10306 8.25 0.09375 9.25941 0.09375 10.5V13.5C0.09375 14.7406 1.10306 15.75 2.34375 15.75H8.4375C9.41531 15.75 10.2488 15.1229 10.5585 14.25H12.9375V14.625C12.9375 15.5555 13.6945 16.3125 14.625 16.3125H15.9375V17.8091C15.9375 18.7931 16.7381 19.5938 17.7221 19.5938H17.9429C17.9186 19.7142 17.9063 19.8367 17.9062 19.9596V22.3774C17.9062 22.4242 17.9106 22.471 17.9194 22.5171L19.1299 28.8958C19.3031 29.8082 19.9389 30.5347 20.7656 30.8542V43.3748C20.7656 43.6372 20.8348 43.8961 20.9659 44.1235L22.2809 46.4062H13.125C12.9261 46.4062 12.7353 46.4853 12.5947 46.6259C12.454 46.7666 12.375 46.9573 12.375 47.1562C12.375 47.3552 12.454 47.5459 12.5947 47.6866C12.7353 47.8272 12.9261 47.9062 13.125 47.9062H34.875C35.0739 47.9062 35.2647 47.8272 35.4053 47.6866C35.546 47.5459 35.625 47.3552 35.625 47.1562C35.625 46.9573 35.546 46.7666 35.4053 46.6259C35.2647 46.4853 35.0739 46.4062 34.875 46.4062H25.7597L27.1156 44.1381C27.2547 43.9054 27.3281 43.6394 27.3281 43.3684V30.8151C28.1087 30.4781 28.7035 29.7732 28.8701 28.8957L30.0806 22.5172C30.0894 22.471 30.0938 22.4242 30.0938 22.3773V19.9596C30.0938 19.8344 30.0808 19.7121 30.0571 19.5938H30.2779C31.2619 19.5938 32.0625 18.7931 32.0625 17.8091V16.3125H33.375C34.3055 16.3125 35.0625 15.5555 35.0625 14.625V14.25H37.4415C37.7512 15.1229 38.5848 15.75 39.5625 15.75H45.6562C46.8969 15.75 47.9062 14.7406 47.9062 13.5V10.5C47.9062 9.25941 46.8969 8.25 45.6562 8.25ZM26.625 1.59375V3.65625C26.625 4.06978 26.2885 4.40625 25.875 4.40625H22.125C21.7115 4.40625 21.375 4.06978 21.375 3.65625V1.59375H26.625ZM9.1875 13.5C9.1875 13.9135 8.85103 14.25 8.4375 14.25H2.34375C1.93022 14.25 1.59375 13.9135 1.59375 13.5V10.5C1.59375 10.0865 1.93022 9.75 2.34375 9.75H8.4375C8.85103 9.75 9.1875 10.0865 9.1875 10.5V13.5ZM10.6875 12.75V11.25H12.9375V12.75H10.6875ZM14.625 14.8125C14.5216 14.8125 14.4375 14.7284 14.4375 14.625V9.75C14.4375 9.64659 14.5216 9.5625 14.625 9.5625H15.9375V14.8125H14.625ZM24.012 46.4062L22.2656 43.3748V31.0312H25.8281V43.3683L24.012 46.4062ZM28.5938 19.9596V22.3068L27.3964 28.616C27.3474 28.8733 27.2102 29.1055 27.0084 29.2725C26.8067 29.4396 26.553 29.5311 26.2911 29.5312H21.7089C21.447 29.5311 21.1933 29.4396 20.9916 29.2726C20.7898 29.1055 20.6527 28.8734 20.6036 28.6161L19.4062 22.3069V19.9597C19.4062 19.758 19.5744 19.5938 19.7812 19.5938H28.2188C28.4256 19.5938 28.5938 19.758 28.5938 19.9597V19.9596ZM30.5625 17.8091C30.5624 17.8846 30.5324 17.9569 30.479 18.0103C30.4257 18.0636 30.3533 18.0937 30.2779 18.0938H17.7221C17.6467 18.0937 17.5743 18.0636 17.521 18.0103C17.4676 17.9569 17.4376 17.8846 17.4375 17.8091V2.72372C17.4375 2.10066 17.9444 1.59375 18.5674 1.59375H19.875V3.65625C19.875 4.89684 20.8843 5.90625 22.125 5.90625H25.875C27.1157 5.90625 28.125 4.89684 28.125 3.65625V1.59375H29.4326C30.0556 1.59375 30.5625 2.10066 30.5625 2.72372V15.5625V17.8091ZM33.5625 14.625C33.5625 14.7284 33.4784 14.8125 33.375 14.8125H32.0625V9.5625H33.375C33.4784 9.5625 33.5625 9.64659 33.5625 9.75V14.625ZM35.0625 11.25H37.3125V12.75H35.0625V11.25ZM46.4062 13.5C46.4062 13.9135 46.0698 14.25 45.6562 14.25H39.5625C39.149 14.25 38.8125 13.9135 38.8125 13.5V10.5C38.8125 10.0865 39.149 9.75 39.5625 9.75H45.6562C46.0698 9.75 46.4062 10.0865 46.4062 10.5V13.5Z" fill="white"/>
<path d="M29.4844 42.4688C29.5829 42.4689 29.6804 42.4495 29.7714 42.4118C29.8625 42.3741 29.9451 42.3188 30.0147 42.2491L32.5459 39.7178C32.6156 39.6482 32.6708 39.5655 32.7085 39.4745C32.7462 39.3835 32.7656 39.286 32.7656 39.1875C32.7656 39.089 32.7462 38.9915 32.7085 38.9005C32.6708 38.8095 32.6156 38.7268 32.5459 38.6572C32.4763 38.5875 32.3936 38.5323 32.3026 38.4946C32.2116 38.4569 32.1141 38.4375 32.0156 38.4375C31.9171 38.4375 31.8196 38.4569 31.7286 38.4946C31.6376 38.5323 31.5549 38.5875 31.4853 38.6572L28.954 41.1884C28.8491 41.2933 28.7777 41.4269 28.7487 41.5724C28.7198 41.7179 28.7347 41.8687 28.7914 42.0058C28.8482 42.1428 28.9443 42.26 29.0677 42.3424C29.191 42.4248 29.336 42.4688 29.4844 42.4688ZM28.6445 44.6077C28.6649 44.8056 28.7629 44.9873 28.9172 45.1129C29.0714 45.2384 29.2692 45.2976 29.4671 45.2773L33.1234 44.9023C33.2213 44.8923 33.3164 44.863 33.403 44.8163C33.4897 44.7695 33.5663 44.7061 33.6285 44.6297C33.6907 44.5533 33.7372 44.4655 33.7654 44.3711C33.7936 44.2767 33.803 44.1777 33.7929 44.0798C33.7507 43.6677 33.3821 43.3675 32.9704 43.4102L29.3141 43.7852C29.2161 43.7952 29.1211 43.8245 29.0344 43.8712C28.9477 43.918 28.8711 43.9814 28.8089 44.0578C28.7468 44.1342 28.7002 44.222 28.672 44.3164C28.6438 44.4108 28.6345 44.5098 28.6445 44.6077ZM18.5156 42.4688C18.6639 42.4688 18.809 42.4248 18.9323 42.3424C19.0556 42.26 19.1518 42.1428 19.2085 42.0058C19.2653 41.8687 19.2802 41.7179 19.2512 41.5724C19.2223 41.4269 19.1508 41.2933 19.0459 41.1884L16.5147 38.6572C16.3738 38.5179 16.1834 38.4401 15.9853 38.4407C15.7872 38.4413 15.5974 38.5203 15.4573 38.6604C15.3172 38.8005 15.2382 38.9904 15.2376 39.1885C15.237 39.3866 15.3149 39.5769 15.4541 39.7178L17.9854 42.2491C18.0549 42.3188 18.1376 42.3741 18.2286 42.4118C18.3196 42.4495 18.4171 42.4689 18.5156 42.4688ZM14.207 44.0798C14.197 44.1777 14.2063 44.2767 14.2345 44.3711C14.2627 44.4655 14.3093 44.5533 14.3714 44.6297C14.4336 44.7061 14.5102 44.7695 14.5969 44.8163C14.6836 44.863 14.7786 44.8923 14.8766 44.9023L18.5329 45.2773C18.7288 45.294 18.9235 45.233 19.0749 45.1075C19.2264 44.982 19.3225 44.8021 19.3425 44.6065C19.3626 44.4108 19.305 44.2151 19.1822 44.0615C19.0594 43.9079 18.8812 43.8087 18.6859 43.7852L15.0297 43.4102C14.8318 43.3899 14.634 43.4491 14.4797 43.5746C14.3255 43.7002 14.2274 43.8819 14.207 44.0798ZM20.5781 7.78125C20.3792 7.78125 20.1884 7.86027 20.0478 8.00092C19.9071 8.14157 19.8281 8.33234 19.8281 8.53125V15.4688C19.8281 15.6677 19.9071 15.8584 20.0478 15.9991C20.1884 16.1397 20.3792 16.2188 20.5781 16.2188C20.777 16.2188 20.9678 16.1397 21.1084 15.9991C21.2491 15.8584 21.3281 15.6677 21.3281 15.4688V8.53125C21.3281 8.33234 21.2491 8.14157 21.1084 8.00092C20.9678 7.86027 20.777 7.78125 20.5781 7.78125ZM24 7.78125C23.8011 7.78125 23.6103 7.86027 23.4696 8.00092C23.329 8.14157 23.25 8.33234 23.25 8.53125V15.4688C23.25 15.6677 23.329 15.8584 23.4696 15.9991C23.6103 16.1397 23.8011 16.2188 24 16.2188C24.1989 16.2188 24.3897 16.1397 24.5303 15.9991C24.671 15.8584 24.75 15.6677 24.75 15.4688V8.53125C24.75 8.33234 24.671 8.14157 24.5303 8.00092C24.3897 7.86027 24.1989 7.78125 24 7.78125ZM27.4219 7.78125C27.2229 7.78125 27.0322 7.86027 26.8915 8.00092C26.7509 8.14157 26.6719 8.33234 26.6719 8.53125V15.4688C26.6719 15.6677 26.7509 15.8584 26.8915 15.9991C27.0322 16.1397 27.2229 16.2188 27.4219 16.2188C27.6208 16.2188 27.8115 16.1397 27.9522 15.9991C28.0928 15.8584 28.1719 15.6677 28.1719 15.4688V8.53125C28.1719 8.33234 28.0928 8.14157 27.9522 8.00092C27.8115 7.86027 27.6208 7.78125 27.4219 7.78125Z" fill="white"/>
</g>
<defs>
<clipPath id="clip0_37828_3508">
<rect width="48" height="48" fill="white"/>
</clipPath>
</defs>
</svg>
