<svg width="20" height="20" viewBox="0 0 20 20" fill="none" xmlns="http://www.w3.org/2000/svg">
<g clip-path="url(#clip0_37354_1203)">
<path d="M6.79688 9.375H2.57812C1.15652 9.375 0 8.21848 0 6.79688V2.57812C0 1.15652 1.15652 0 2.57812 0H6.79688C8.21848 0 9.375 1.15652 9.375 2.57812V6.79688C9.375 8.21848 8.21848 9.375 6.79688 9.375ZM2.57812 1.25C1.84578 1.25 1.25 1.84578 1.25 2.57812V6.79688C1.25 7.52922 1.84578 8.125 2.57812 8.125H6.79688C7.52922 8.125 8.125 7.52922 8.125 6.79688V2.57812C8.125 1.84578 7.52922 1.25 6.79688 1.25H2.57812Z" fill="#191919"/>
<path d="M17.4219 9.375H13.2031C11.7815 9.375 10.625 8.21848 10.625 6.79688V2.57812C10.625 1.15652 11.7815 0 13.2031 0H17.4219C18.8435 0 20 1.15652 20 2.57812V6.79688C20 8.21848 18.8435 9.375 17.4219 9.375ZM13.2031 1.25C12.4708 1.25 11.875 1.84578 11.875 2.57812V6.79688C11.875 7.52922 12.4708 8.125 13.2031 8.125H17.4219C18.1542 8.125 18.75 7.52922 18.75 6.79688V2.57812C18.75 1.84578 18.1542 1.25 17.4219 1.25H13.2031Z" fill="#191919"/>
<path d="M15.3125 20C12.7278 20 10.625 17.8972 10.625 15.3125C10.625 12.7278 12.7278 10.625 15.3125 10.625C17.8972 10.625 20 12.7278 20 15.3125C20 17.8972 17.8972 20 15.3125 20ZM15.3125 11.875C13.4171 11.875 11.875 13.4171 11.875 15.3125C11.875 17.2079 13.4171 18.75 15.3125 18.75C17.2079 18.75 18.75 17.2079 18.75 15.3125C18.75 13.4171 17.2079 11.875 15.3125 11.875Z" fill="#191919"/>
<path d="M6.79688 20H2.57812C1.15652 20 0 18.8435 0 17.4219V13.2031C0 11.7815 1.15652 10.625 2.57812 10.625H6.79688C8.21848 10.625 9.375 11.7815 9.375 13.2031V17.4219C9.375 18.8435 8.21848 20 6.79688 20ZM2.57812 11.875C1.84578 11.875 1.25 12.4708 1.25 13.2031V17.4219C1.25 18.1542 1.84578 18.75 2.57812 18.75H6.79688C7.52922 18.75 8.125 18.1542 8.125 17.4219V13.2031C8.125 12.4708 7.52922 11.875 6.79688 11.875H2.57812Z" fill="#191919"/>
</g>
<defs>
<clipPath id="clip0_37354_1203">
<rect width="20" height="20" fill="white"/>
</clipPath>
</defs>
</svg>
