<svg width="48" height="48" viewBox="0 0 48 48" fill="none" xmlns="http://www.w3.org/2000/svg">
<path d="M23.5524 15.3375C24.7899 15.3375 25.8024 14.325 25.8024 13.0875V11.73L28.2249 12.6675C28.3599 12.72 28.5024 12.7425 28.6449 12.7425C28.7967 12.7427 28.947 12.713 29.0872 12.655C29.2274 12.597 29.3548 12.5119 29.4621 12.4046C29.5694 12.2974 29.6545 12.17 29.7124 12.0297C29.7704 11.8895 29.8001 11.7392 29.7999 11.5875V4.4925C29.7999 4.11 29.6124 3.7575 29.2974 3.54C28.9824 3.3225 28.5849 3.2775 28.2324 3.42L25.8099 4.3575V3C25.8099 1.7625 24.7974 0.75 23.5599 0.75H6.42245C5.18495 0.75 4.17245 1.7625 4.17245 3V13.08C4.17245 14.3175 5.18495 15.33 6.42245 15.33H9.16745V18.6975L2.45495 45.24C2.39507 45.4784 2.39035 45.7272 2.44113 45.9677C2.49191 46.2082 2.59686 46.4339 2.74799 46.6277C2.89913 46.8215 3.09247 46.9783 3.31331 47.0861C3.53415 47.1939 3.77668 47.25 4.02245 47.25H6.45245C7.19495 47.25 7.83245 46.7475 8.01245 46.035L12.1299 29.7375V45.6375C12.1299 46.53 12.8499 47.25 13.7424 47.25H16.2249C17.1174 47.25 17.8374 46.53 17.8374 45.6375V29.7375L21.9549 46.035C22.1349 46.755 22.7799 47.25 23.5149 47.25H25.9449C26.1907 47.25 26.4332 47.1939 26.6541 47.0861C26.8749 46.9783 27.0683 46.8215 27.2194 46.6277C27.3705 46.4339 27.4755 46.2082 27.5263 45.9677C27.577 45.7272 27.5723 45.4784 27.5124 45.24L20.7999 18.735V15.3375H23.5449H23.5524ZM28.2924 5.0025V11.085L25.8024 10.1175V5.97L28.2924 5.0025ZM5.67245 13.0875V3C5.67245 2.5875 6.00995 2.25 6.42245 2.25H23.5524C23.9649 2.25 24.3024 2.5875 24.3024 3V13.08C24.3024 13.4925 23.9649 13.83 23.5524 13.83H6.42245C6.00995 13.83 5.67245 13.4925 5.67245 13.08V13.0875ZM6.55745 45.6675C6.55071 45.6919 6.53594 45.7133 6.51553 45.7283C6.49511 45.7433 6.47025 45.7509 6.44495 45.75H4.01495C4.01495 45.75 3.94745 45.735 3.92495 45.705C3.90245 45.675 3.89495 45.645 3.90245 45.6075L10.5024 19.545H12.1374V23.6175L6.56495 45.6675H6.55745ZM16.3449 45.6375C16.3449 45.6975 16.2924 45.75 16.2324 45.75H13.7499C13.6899 45.75 13.6374 45.6975 13.6374 45.6375V19.545H16.3449V45.6375ZM26.0499 45.705C26.0499 45.705 25.9974 45.75 25.9599 45.75H23.5299C23.4774 45.75 23.4324 45.7125 23.4174 45.6675L17.8449 23.6175V19.545H19.4724L26.0724 45.6075C26.0724 45.6075 26.0724 45.675 26.0499 45.705ZM19.3149 18.045H10.6749V15.3375H19.3149V18.045ZM43.9674 0.75H36.5499C35.6574 0.75 34.9374 1.47 34.9374 2.3625V45.6375C34.9374 46.53 35.6574 47.25 36.5499 47.25H43.9674C44.8599 47.25 45.5799 46.53 45.5799 45.6375V2.3625C45.5799 1.47 44.8599 0.75 43.9674 0.75ZM36.4374 6.21H39.2574C39.6399 6.21 39.9549 6.5325 39.9549 6.9075C39.9549 7.2825 39.6399 7.605 39.2574 7.605H36.4374V6.21ZM36.4374 13.05H39.2574C39.6399 13.05 39.9549 13.365 39.9549 13.7475C39.9549 14.13 39.6399 14.445 39.2574 14.445H36.4374V13.05ZM36.4374 19.8825H39.2574C39.6399 19.8825 39.9549 20.205 39.9549 20.58C39.9549 20.955 39.6399 21.2775 39.2574 21.2775H36.4374V19.8825ZM36.4374 26.7225H39.2574C39.6399 26.7225 39.9549 27.0375 39.9549 27.42C39.9549 27.8025 39.6399 28.1175 39.2574 28.1175H36.4374V26.7225ZM36.4374 33.5625H39.2574C39.6399 33.5625 39.9549 33.8775 39.9549 34.26C39.9549 34.6425 39.6324 34.95 39.2574 34.95H36.4374V33.5625ZM36.4374 40.395H39.2574C39.6399 40.395 39.9549 40.71 39.9549 41.0925C39.9549 41.475 39.6399 41.79 39.2574 41.79H36.4374V40.395ZM44.0799 45.6375C44.0799 45.6975 44.0274 45.75 43.9674 45.75H36.5499C36.4899 45.75 36.4374 45.6975 36.4374 45.6375V43.29H39.2574C40.4724 43.29 41.4549 42.3 41.4549 41.0925C41.4549 39.885 40.4649 38.895 39.2574 38.895H36.4374V36.45H39.2574C40.4724 36.45 41.4549 35.4675 41.4549 34.26C41.4549 33.0525 40.4649 32.0625 39.2574 32.0625H36.4374V29.6175H39.2574C40.4724 29.6175 41.4549 28.6275 41.4549 27.42C41.4549 26.2125 40.4649 25.2225 39.2574 25.2225H36.4374V22.7775H39.2574C40.4724 22.7775 41.4549 21.7875 41.4549 20.58C41.4549 19.3725 40.4649 18.3825 39.2574 18.3825H36.4374V15.9525H39.2574C40.4724 15.9525 41.4549 14.9625 41.4549 13.755C41.4549 12.5475 40.4649 11.5575 39.2574 11.5575H36.4374V9.1125H39.2574C40.4724 9.1125 41.4549 8.1225 41.4549 6.915C41.4549 5.7075 40.4649 4.7175 39.2574 4.7175H36.4374V2.37C36.4374 2.31 36.4899 2.2575 36.5499 2.2575H43.9674C44.0274 2.2575 44.0799 2.31 44.0799 2.37V45.645V45.6375Z" fill="white"/>
</svg>
