<svg width="48" height="48" viewBox="0 0 48 48" fill="none" xmlns="http://www.w3.org/2000/svg">
<g clip-path="url(#clip0_37835_15)">
<path d="M16.3344 29.8542H13.5198C12.643 29.8542 11.9297 29.1412 11.9297 28.2642V26.6953C11.9297 26.6027 11.8641 26.5224 11.7671 26.4957C10.7891 26.2289 9.84916 25.8385 8.97 25.3338C8.89013 25.2879 8.796 25.2971 8.73628 25.3568L7.61569 26.4774C7.46839 26.6255 7.29318 26.7429 7.1002 26.8228C6.90722 26.9027 6.7003 26.9435 6.49144 26.9429C6.06703 26.9429 5.66747 26.7777 5.36719 26.4774L3.37687 24.4871C3.22874 24.3398 3.11129 24.1646 3.03132 23.9716C2.95134 23.7786 2.91042 23.5717 2.91094 23.3628C2.91094 22.938 3.0765 22.5384 3.37687 22.2385L4.49709 21.1179C4.55709 21.0582 4.56628 20.9642 4.52016 20.8843C4.01572 20.0051 3.62539 19.0651 3.35859 18.0872C3.33178 17.9902 3.25163 17.9245 3.15891 17.9245H1.59009C0.713344 17.9245 0 17.2111 0 16.3345V13.5197C0 12.6429 0.713437 11.9296 1.59 11.9296H3.15891C3.25163 11.9296 3.33178 11.8644 3.35859 11.767C3.62547 10.7891 4.0159 9.8492 4.52044 8.97C4.56619 8.89013 4.557 8.796 4.49738 8.73638L3.37687 7.61569C3.2287 7.46844 3.11121 7.29324 3.03123 7.10026C2.95125 6.90728 2.91036 6.70034 2.91094 6.49144C2.91094 6.06703 3.0765 5.66747 3.37687 5.36719L5.36719 3.37687C5.66747 3.0765 6.06656 2.91141 6.49144 2.91141C6.91631 2.91141 7.31578 3.0765 7.61606 3.37716L8.73638 4.49747C8.796 4.55709 8.88975 4.56628 8.97 4.52053C9.8491 4.01595 10.7889 3.62546 11.7668 3.3585C11.8645 3.33178 11.9297 3.25163 11.9297 3.15891V1.59009C11.9297 0.713344 12.6431 0 13.5197 0H16.3344C17.2112 0 17.9245 0.713437 17.9245 1.59V3.15891C17.9245 3.25163 17.9898 3.33178 18.0872 3.35812C19.065 3.62528 20.0048 4.0159 20.8839 4.52053C20.9641 4.56628 21.0578 4.55709 21.1179 4.49747L22.2382 3.37687C22.8596 2.75578 23.8657 2.75531 24.487 3.37716L24.6976 3.58781C25.355 4.24472 24.3614 5.24016 23.7034 4.58203C23.5737 4.47 23.4075 4.19644 23.2327 4.37147L22.1122 5.49178C21.6053 5.9985 20.8125 6.10069 20.1841 5.74003C19.4086 5.29508 18.5797 4.95063 17.7172 4.71497C17.0113 4.52278 16.5179 3.88256 16.5179 3.15853V1.59009C16.5179 1.48866 16.4356 1.40625 16.3342 1.40625H13.5194C13.4707 1.40635 13.4241 1.42575 13.3897 1.4602C13.3553 1.49464 13.336 1.54132 13.3359 1.59V3.15891C13.3359 3.88294 12.8426 4.52269 12.1366 4.71534C11.2741 4.95081 10.445 5.29514 9.66947 5.74003C9.04134 6.10069 8.2485 5.9985 7.74169 5.49169L6.62138 4.37138C6.60443 4.35416 6.5842 4.34053 6.56187 4.3313C6.53955 4.32207 6.51559 4.31743 6.49144 4.31766C6.45675 4.31766 6.40613 4.32675 6.36178 4.37147L4.37109 6.36178C4.35393 6.37871 4.34032 6.3989 4.33108 6.42117C4.32184 6.44344 4.31715 6.46733 4.31728 6.49144C4.31728 6.52622 4.32675 6.57712 4.37109 6.62147L5.49169 7.74206C5.9985 8.24887 6.10069 9.04144 5.74003 9.66984C5.29509 10.4454 4.95063 11.2744 4.71497 12.137C4.52278 12.843 3.88256 13.3359 3.15891 13.3359H1.59009C1.48866 13.3359 1.40625 13.4187 1.40625 13.5197V16.3344C1.40625 16.4359 1.48866 16.5183 1.59 16.5183H3.15891C3.88266 16.5183 4.52269 17.0112 4.71534 17.7173C4.94972 18.5783 5.29472 19.4081 5.74003 20.1845C6.10069 20.8129 5.9985 21.6053 5.49169 22.1122L4.37138 23.2327C4.35412 23.2497 4.34046 23.2699 4.33123 23.2923C4.322 23.3146 4.31738 23.3386 4.31766 23.3628C4.31766 23.3972 4.32713 23.4481 4.37147 23.4928L6.36178 25.4827C6.43359 25.5546 6.55003 25.5549 6.62184 25.4827L7.74206 24.3625C8.24887 23.8557 9.04172 23.7535 9.67013 24.1143C10.4456 24.5593 11.2745 24.9037 12.137 25.1393C12.843 25.3315 13.3363 25.9718 13.3363 26.6957V28.2641C13.3363 28.3656 13.4187 28.448 13.5198 28.448H16.3344C16.4359 28.448 16.5183 28.3656 16.5183 28.2642V26.6957C16.5183 25.9717 17.0116 25.3316 17.7176 25.1393C18.6159 24.8947 18.9844 26.2515 18.0876 26.4958C17.9901 26.5224 17.9245 26.6027 17.9245 26.6957V28.2641C17.9245 29.1409 17.2111 29.8542 16.3345 29.8542H16.3344Z" fill="white"/>
<path d="M8.30078 14.9287C8.30078 10.2793 12.9758 7.09217 17.2839 8.73355C18.1522 9.06495 17.6531 10.3792 16.783 10.0479C13.3831 8.75183 9.70675 11.2758 9.70675 14.9287C9.70675 17.9001 12.2094 20.3179 15.2394 20.1403C16.1659 20.0842 16.2527 21.4894 15.3222 21.5443C11.5015 21.7692 8.30078 18.7223 8.30078 14.9287Z" fill="white"/>
<path d="M38.9089 31.2238L31.7845 29.8385V28.0782C33.7852 26.7133 34.8683 24.7804 35.1042 22.6095C36.1428 22.5271 36.9623 21.6559 36.9623 20.5968V19.1518C38.6554 18.4157 38.4268 15.9448 36.6357 15.5281V14.9703C36.6357 9.95581 32.5704 5.89062 27.5562 5.89062H26.795C21.7803 5.89062 17.7155 9.95581 17.7155 14.97V15.5281C15.925 15.9445 15.6951 18.4156 17.3888 19.1518V20.5968C17.3888 21.6559 18.2083 22.5271 19.2469 22.6096C19.4527 24.5036 20.3405 26.2372 21.7408 27.4428C22.0039 27.67 22.2796 27.8821 22.5667 28.0782V29.8385L15.4423 31.2239C11.6836 31.9549 8.75391 34.0737 8.75391 37.9834V45.1352C8.75391 46.7175 10.0367 48.0004 11.6191 48.0004H42.732C44.3145 48.0004 45.5973 46.7175 45.5973 45.1351V37.9834C45.5973 34.0866 42.6855 31.9581 38.9088 31.2239L38.9089 31.2238ZM33.0563 31.5183C32.3461 32.5509 31.6348 33.5828 30.9225 34.6139C30.579 35.1117 29.9626 35.1749 29.7217 35.0307L28.6109 34.3646C29.6942 33.7248 31.1931 32.6262 31.6479 31.2445L33.0563 31.5183ZM27.1754 33.5446C26.1076 33.007 23.9787 31.6787 23.9729 30.4234V28.8545C24.9841 29.2914 26.074 29.5168 27.1756 29.5168C28.2772 29.5168 29.3671 29.2914 30.3783 28.8545V30.4179C30.3783 31.6754 28.2443 33.0066 27.1754 33.5446ZM19.1217 14.9699C19.1217 12.0857 20.7213 9.56806 23.08 8.25772V9.13916C23.08 10.0687 24.4863 10.0701 24.4863 9.13916V7.65163C25.13 7.44827 25.7978 7.33131 26.4723 7.30381V10.7805C26.4723 11.71 27.8785 11.7115 27.8785 10.7805V7.30372C28.5531 7.33126 29.221 7.44825 29.8648 7.65163V9.13916C29.8648 10.0687 31.2711 10.0701 31.2711 9.13916V8.25772C33.6298 9.56806 35.2295 12.0857 35.2295 14.97V15.4783H19.1217V14.9699ZM18.1497 16.8846H36.2014C36.8753 16.8846 36.8745 17.903 36.2014 17.903H18.1498C17.4756 17.903 17.4763 16.8846 18.1498 16.8846H18.1497ZM20.6085 21.8976C20.6046 21.7137 20.5288 21.5387 20.3973 21.4101C20.2659 21.2814 20.0893 21.2094 19.9054 21.2095C19.7882 21.1806 18.7946 21.3923 18.7946 20.5968V19.3096H35.5562V20.5968C35.5562 21.3909 34.5362 21.1872 34.4454 21.2095C34.2616 21.2095 34.085 21.2816 33.9536 21.4102C33.8222 21.5388 33.7464 21.7138 33.7423 21.8976C33.7045 23.6554 32.9575 25.288 31.6929 26.3772C29.0076 28.6894 25.3436 28.6898 22.6582 26.3772C21.3933 25.288 20.6462 23.6554 20.6085 21.8976ZM22.7029 31.2445C23.158 32.6262 24.6566 33.7248 25.7402 34.3645C24.6269 34.9607 24.7057 35.1391 24.1999 35.0794C23.8853 35.0416 23.603 34.8666 23.4228 34.6059C22.7125 33.5772 22.003 32.5481 21.2944 31.5183L22.7029 31.2445ZM14.5901 46.5942H11.6186C10.813 46.5942 10.1597 45.9408 10.1597 45.1351V37.9834C10.1597 35.8763 11.1169 34.4195 13.2169 33.4131C13.3017 33.7874 14.5901 37.2843 14.5901 42.1707V46.5942ZM26.4722 46.5942H15.9964V42.1707C15.9964 36.8764 14.6597 33.4673 14.5282 32.8902C15.3492 32.6173 14.7395 32.8275 19.7892 31.811C21.2405 33.92 23.9489 37.8549 25.5457 40.1243C26.1521 40.986 26.4722 41.9982 26.4722 43.0518V46.5942ZM27.1753 40.1112C27.0344 39.835 26.8742 39.569 26.696 39.3153C26.1562 38.5484 25.4557 37.5421 24.7246 36.4871C24.9461 36.4379 25.1582 36.3534 25.3527 36.2367L27.1752 35.1435L28.9983 36.2367C29.1928 36.3534 29.4049 36.438 29.6264 36.4871C28.8953 37.5415 28.1948 38.5477 27.655 39.3153C27.4766 39.5689 27.3162 39.8349 27.1753 40.1112ZM44.1909 45.1352C44.1909 45.9408 43.538 46.5942 42.7319 46.5942H39.7605V43.9413C39.7605 43.0119 38.3542 43.0104 38.3542 43.9413V46.5942H27.8785V43.0518C27.8785 41.9982 28.199 40.986 28.8051 40.1247C29.7132 38.8337 33.4526 33.4377 34.5619 31.8109C39.609 32.8272 39.0004 32.617 39.8225 32.8902C39.7203 33.3226 38.5372 36.5383 38.3738 41.0998C38.34 42.0315 39.7456 42.0773 39.7789 41.1505C39.9371 36.7362 41.02 33.8958 41.1338 33.4131C43.2338 34.4195 44.191 35.8763 44.191 37.983L44.1909 45.1352Z" fill="white"/>
</g>
<defs>
<clipPath id="clip0_37835_15">
<rect width="48" height="48" fill="white"/>
</clipPath>
</defs>
</svg>
