<svg width="48" height="48" viewBox="0 0 48 48" fill="none" xmlns="http://www.w3.org/2000/svg">
<g clip-path="url(#clip0_37835_10)">
<path d="M6.4018 48H41.5994C42.9248 48 43.9992 46.9255 43.9992 45.6002V18.6051L44.2832 18.7931C44.5414 18.9714 44.8332 19.0953 45.1409 19.1572C45.4485 19.2191 45.7655 19.2177 46.0726 19.1531C46.3886 19.0877 46.6881 18.9591 46.9532 18.775C47.2182 18.591 47.4433 18.3552 47.6149 18.0819L47.6197 18.0739C48.3226 16.9416 48.0149 15.4571 46.9198 14.6974L25.3173 0.403212C24.9295 0.140451 24.4718 0 24.0034 0C23.5349 0 23.0773 0.140451 22.6895 0.403212L1.07491 14.7047C-0.0179352 15.4669 -0.321776 16.9518 0.383779 18.082C0.553503 18.355 0.776836 18.5908 1.04027 18.775C1.30371 18.9593 1.60178 19.0882 1.91646 19.1539C2.0763 19.1861 2.239 19.2022 2.40202 19.202C2.86821 19.2026 3.32385 19.0633 3.70994 18.802L4.0019 18.606V45.6002C4.0019 46.9255 5.07636 48 6.4018 48ZM42.3993 45.6002C42.3993 46.042 42.0411 46.4001 41.5993 46.4001H6.4018C5.95998 46.4001 5.60186 46.042 5.60186 45.6002V17.5484L24.0006 5.38925L42.3993 17.5484V45.6002ZM2.81879 17.4701C2.73593 17.5274 2.64224 17.5671 2.54348 17.5869C2.44471 17.6068 2.34293 17.6062 2.24439 17.5853C2.1404 17.5636 2.04194 17.5209 1.95502 17.4598C1.86809 17.3987 1.79454 17.3206 1.73886 17.2301C1.61686 17.0398 1.57218 16.8101 1.61396 16.5879C1.65573 16.3657 1.78081 16.1679 1.96361 16.0349L23.579 1.73277C23.7033 1.64832 23.8502 1.60317 24.0006 1.6032C24.1539 1.60384 24.3035 1.65037 24.4302 1.73682L46.0311 16.0311C46.2153 16.1627 46.3422 16.3599 46.3856 16.5822C46.4291 16.8044 46.3858 17.0349 46.2647 17.2262C46.2076 17.3178 46.1327 17.3969 46.0443 17.4588C45.9559 17.5206 45.8559 17.564 45.7503 17.5862C45.6511 17.6059 45.5489 17.6053 45.4499 17.5844C45.3509 17.5635 45.2571 17.5227 45.1743 17.4646L24.4421 3.76298C24.3113 3.67754 24.1584 3.63205 24.0022 3.63205C23.8459 3.63205 23.6931 3.67754 23.5622 3.76298L2.81879 17.4701Z" fill="white"/>
<path d="M17.3187 15.0958C16.3897 14.1712 14.888 14.1712 13.959 15.0958L9.49849 19.5563C8.57342 20.4851 8.57342 21.9871 9.49849 22.916L16.7372 30.1611L12.2847 34.6145C12.1881 34.7102 12.1178 34.8292 12.0807 34.9601L10.216 41.4884C10.1506 41.7169 10.1392 41.9575 10.1826 42.1912C10.226 42.4248 10.323 42.6452 10.4661 42.835C10.6092 43.0248 10.7944 43.1787 11.0071 43.2847C11.2198 43.3907 11.4542 43.4459 11.6919 43.4459C11.8345 43.4456 11.9763 43.4257 12.1135 43.3867L18.6419 41.5205C18.7727 41.4833 18.8917 41.413 18.9875 41.3165L23.4416 36.8656L30.6819 44.1067C31.6111 45.0309 33.1123 45.0309 34.0416 44.1067L38.5021 39.6462C39.4272 38.7173 39.4272 37.2153 38.5021 36.2865L31.2658 29.0413L37.3909 22.9162C37.6853 22.6222 37.9189 22.2731 38.0783 21.8887C38.2376 21.5044 38.3197 21.0924 38.3197 20.6764C38.3197 20.2603 38.2376 19.8483 38.0783 19.464C37.9189 19.0797 37.6853 18.7305 37.3909 18.4365L35.1607 16.2063C34.8673 15.9112 34.5182 15.6773 34.1337 15.5182C33.7493 15.359 33.337 15.2778 32.9209 15.2792C32.5048 15.2778 32.0926 15.3589 31.7082 15.5179C31.3237 15.6769 30.9746 15.9106 30.6811 16.2055L24.5615 22.3371L17.3187 15.0958ZM14.5253 39.0766C14.0547 38.6105 13.4918 38.2481 12.8727 38.0127L13.3703 36.2696L16.1445 37.4583L17.3332 40.2325L15.5901 40.7301C15.3545 40.1107 14.9918 39.5474 14.5253 39.0766ZM17.7019 37.0319L29.577 25.1567L31.2337 26.8134L18.6954 39.3509L17.7019 37.0319ZM27.9212 21.2378L29.5779 19.5811L34.0224 24.0256L32.365 25.6815L27.9212 21.2378ZM28.4468 24.0256L16.5708 35.9007L14.2509 34.9072L26.7892 22.3689L28.4468 24.0256ZM10.6296 21.7857C10.3263 21.4821 10.3263 20.9902 10.6296 20.6866L15.0901 16.2261C15.3937 15.9228 15.8856 15.9228 16.1892 16.2261L17.8539 17.8908L16.1892 19.5555C16.0871 19.6542 16.0131 19.7783 15.9748 19.915C15.9365 20.0517 15.9352 20.1961 15.9712 20.3335C16.0071 20.4708 16.0789 20.5961 16.1793 20.6965C16.2797 20.7969 16.405 20.8688 16.5423 20.9048C16.6797 20.9408 16.8242 20.9395 16.9609 20.9012C17.0976 20.8628 17.2217 20.7888 17.3203 20.6867L18.985 19.022L20.6417 20.6802L19.5346 21.7874C19.4325 21.886 19.3585 22.0101 19.3202 22.1468C19.2819 22.2835 19.2806 22.4279 19.3166 22.5653C19.3525 22.7026 19.4244 22.8279 19.5247 22.9283C19.6251 23.0288 19.7504 23.1006 19.8877 23.1366C20.0251 23.1726 20.1696 23.1713 20.3063 23.133C20.443 23.0947 20.5671 23.0206 20.6657 22.9185L21.7728 21.8114L23.4295 23.4681L17.8699 29.0277L10.6296 21.7857ZM11.7863 41.8164L12.4263 39.5605C13.1532 39.8672 13.7315 40.4456 14.0382 41.1725L11.7863 41.8164ZM31.7913 31.8315L30.6842 32.9386C30.5821 33.0372 30.5081 33.1613 30.4698 33.298C30.4315 33.4347 30.4303 33.5791 30.4662 33.7165C30.5022 33.8538 30.574 33.9792 30.6744 34.0796C30.7747 34.18 30.9 34.2519 31.0374 34.2879C31.1747 34.3238 31.3192 34.3226 31.4559 34.2842C31.5927 34.2459 31.7167 34.1718 31.8154 34.0697L32.9225 32.961L34.5792 34.6177L32.9145 36.2824C32.8124 36.3811 32.7384 36.5051 32.7001 36.6418C32.6617 36.7785 32.6605 36.923 32.6964 37.0603C32.7324 37.1977 32.8042 37.323 32.9046 37.4234C33.005 37.5238 33.1303 37.5957 33.2676 37.6317C33.405 37.6677 33.5494 37.6664 33.6862 37.6281C33.8229 37.5897 33.9469 37.5157 34.0456 37.4135L35.7103 35.7488L37.3741 37.4135C37.6774 37.7171 37.6774 38.209 37.3741 38.5126L32.9137 42.9731C32.6101 43.2764 32.1182 43.2764 31.8146 42.9731L24.5743 35.7328L30.1339 30.1732L31.7913 31.8315ZM32.9217 16.8821C33.1274 16.8814 33.3311 16.9216 33.5212 17.0003C33.7112 17.0789 33.8838 17.1946 34.0288 17.3404L36.259 19.5707C36.8696 20.1822 36.8696 21.1726 36.259 21.7841L35.1527 22.8945L30.7082 18.4499L31.8153 17.3428C31.9601 17.1967 32.1324 17.0807 32.3223 17.0016C32.5122 16.9225 32.716 16.8819 32.9217 16.8821Z" fill="white"/>
</g>
<defs>
<clipPath id="clip0_37835_10">
<rect width="48" height="48" fill="white"/>
</clipPath>
</defs>
</svg>
