<svg width="20" height="20" viewBox="0 0 20 20" fill="none" xmlns="http://www.w3.org/2000/svg">
<g clip-path="url(#clip0_37805_224)">
<path d="M5.01754 10.8789H7.94722L7.94723 10.8538L7.94831 4.98047C7.94851 3.84965 8.86868 2.92969 9.99946 2.92969C10.7117 2.92969 11.3401 3.29488 11.7077 3.84766L14.8502 3.84766C14.3378 1.64281 12.3609 0 10 0C7.24937 0 5.01912 2.22984 5.01862 4.98047L5.01754 10.8789Z" fill="#ED5518"/>
<path d="M10.881 14.9799L10.8815 12.0502L4.98311 12.0502C3.85229 12.0502 2.9325 11.1302 2.9327 9.99941C2.93283 9.28715 3.29815 8.65879 3.85099 8.29102L3.85156 5.14844C1.64662 5.66129 0.00344972 7.63848 0.00301687 9.99941C0.00251256 12.75 2.23195 14.9799 4.98257 14.9799L10.881 14.9799Z" fill="#ED5518"/>
<path d="M14.9838 9.12109H12.0541L12.053 15.0195C12.0528 16.1504 11.1326 17.0703 10.0019 17.0703C9.2896 17.0703 8.66127 16.7051 8.29363 16.1523H5.15105C5.6635 18.3572 7.64039 20 10.0013 20C12.7519 20 14.9822 17.7702 14.9827 15.0195L14.9838 9.12109Z" fill="#ED5518"/>
<path d="M15.0273 5.01953L9.12891 5.01953L9.12837 7.94922L15.0268 7.94922C16.1576 7.94922 17.0774 8.86922 17.0772 10C17.0771 10.7123 16.7118 11.3406 16.1589 11.7084L16.1584 14.8509C18.3633 14.3381 20.0065 12.3609 20.0069 10C20.0074 7.24937 17.778 5.01953 15.0273 5.01953Z" fill="#ED5518"/>
</g>
<defs>
<clipPath id="clip0_37805_224">
<rect width="20" height="20" fill="white" transform="matrix(1 0 -0.000183341 1 0.00390625 0)"/>
</clipPath>
</defs>
</svg>
