<svg width="52" height="52" viewBox="0 0 52 52" fill="none" xmlns="http://www.w3.org/2000/svg">
<rect width="52" height="52" fill="#EDEFED"/>
<g clip-path="url(#clip0_37817_88)">
<path d="M19.3189 28.5027L18.4835 31.6213L15.4301 31.6859C14.5176 29.9934 14 28.057 14 25.9992C14 24.0093 14.4839 22.1328 15.3418 20.4805H15.3424L18.0608 20.9788L19.2516 23.6809C19.0024 24.4075 18.8665 25.1875 18.8665 25.9992C18.8666 26.88 19.0262 27.724 19.3189 28.5027Z" fill="#FBBB00"/>
<path d="M37.7921 23.7578C37.93 24.4837 38.0018 25.2334 38.0018 25.9996C38.0018 26.8587 37.9115 27.6967 37.7394 28.5051C37.1553 31.2558 35.6289 33.6578 33.5144 35.3576L33.5137 35.3569L30.0898 35.1822L29.6052 32.1572C31.0083 31.3343 32.1048 30.0466 32.6823 28.5051H26.2656V23.7578H32.776H37.7921Z" fill="#518EF8"/>
<path d="M33.5114 35.3577L33.5121 35.3584C31.4556 37.0113 28.8433 38.0004 25.9996 38.0004C21.4297 38.0004 17.4565 35.4461 15.4297 31.6872L19.3185 28.5039C20.3319 31.2085 22.9409 33.1338 25.9996 33.1338C27.3143 33.1338 28.546 32.7784 29.6029 32.158L33.5114 35.3577Z" fill="#28B446"/>
<path d="M33.6577 16.7626L29.7702 19.9453C28.6763 19.2615 27.3833 18.8666 25.9981 18.8666C22.8702 18.8666 20.2124 20.8802 19.2497 23.6818L15.3405 20.4813H15.3398C17.337 16.6308 21.3603 14 25.9981 14C28.9097 14 31.5794 15.0372 33.6577 16.7626Z" fill="#F14336"/>
</g>
<defs>
<clipPath id="clip0_37817_88">
<rect width="24" height="24" fill="white" transform="translate(14 14)"/>
</clipPath>
</defs>
</svg>
