<svg width="100" height="90" viewBox="0 0 100 90" fill="none" xmlns="http://www.w3.org/2000/svg">
<g clip-path="url(#clip0_37354_819)">
<mask id="mask0_37354_819" style="mask-type:luminance" maskUnits="userSpaceOnUse" x="0" y="0" width="100" height="90">
<path d="M100 0H0V90H100V0Z" fill="white"/>
</mask>
<g mask="url(#mask0_37354_819)">
<path d="M31.3473 11.9698C31.8909 11.5972 32.5055 11.1822 33.116 10.7885C41.7918 0.740967 37.2511 5.2037 41.6079 0C40.1988 0.719797 37.9995 2.04506 35.5368 3.76835C33.4713 5.21217 31.895 7.23607 31.0003 9.61141C30.741 10.3016 30.4902 11.0002 30.2561 11.6988C2.40976 31.616 2.4223 67.4534 38.1041 86.1766C39.4252 86.871 40.8761 87.324 42.3521 87.5019C42.5193 87.5231 42.6991 87.5443 42.8957 87.5653C2.01256 68.7279 3.37141 31.4509 31.3473 11.9698Z" fill="white"/>
<path d="M69.749 11.7066C69.5147 11.008 69.2639 10.3094 69.0046 9.61921C68.1099 7.24389 66.5336 5.21999 64.4681 3.77616C62.0013 2.05288 59.802 0.723376 58.3972 0.0078125C62.7539 5.21152 58.2132 0.748781 66.8891 10.792C67.4995 11.1858 68.1182 11.6008 68.6576 11.9734C96.6294 31.4544 97.9924 68.7357 57.1094 87.569C57.3059 87.5478 57.4898 87.5224 57.653 87.5055C59.1288 87.3276 60.5797 86.8745 61.901 86.1802C97.5826 67.457 97.5911 31.6196 69.749 11.7066Z" fill="white"/>
<path d="M16.9453 88.2935C19.4749 88.9879 22.2679 89.5213 24.902 89.8685C27.4567 90.2073 30.0197 89.877 32.403 88.882C34.2343 88.1199 36.0447 87.2942 37.6462 86.4897C36.6635 85.9775 35.8441 85.5329 34.7444 84.9062C34.4893 84.9654 21.1348 87.8828 16.9453 88.2935Z" fill="white"/>
<path d="M62.3594 86.4933C63.9607 87.2935 65.7712 88.1192 67.6024 88.8856C69.9857 89.8806 72.5487 90.2108 75.1034 89.8721C77.7375 89.5207 80.5305 88.9872 83.0601 88.2971C78.8706 87.8864 65.5161 84.9733 65.2611 84.9141C64.1614 85.5322 63.3377 85.9768 62.3594 86.4933Z" fill="white"/>
<path d="M27.1063 84.5699C28.5153 84.1339 29.9578 83.6342 31.5717 83.0245C30.723 82.4825 29.8198 81.8729 28.8623 81.1953C24.2464 81.7161 15.9552 82.3639 11.2891 82.1099C13.4967 83.0837 15.6876 83.9221 18.0709 84.6249C21.0353 85.493 24.1544 85.4803 27.1063 84.5699Z" fill="white"/>
<path d="M71.1312 81.1953C70.178 81.8771 69.2748 82.4825 68.4219 83.0245C70.0317 83.6384 71.4741 84.1381 72.8874 84.5699C75.8392 85.4803 78.9584 85.493 81.9227 84.6207C84.306 83.9179 86.4969 83.0795 88.7045 82.1057C84.0384 82.3639 75.7472 81.7119 71.1312 81.1953Z" fill="white"/>
<path d="M20.7789 80.0874C22.4806 79.8291 24.2032 79.4819 25.9593 79.0246C25.583 78.7155 24.751 78.0466 23.5175 76.9118C20.8249 76.844 10.3846 75.9804 6.55469 75.0742C8.72887 76.5561 10.9784 77.8815 13.5665 79.0669C15.8326 80.1044 18.3161 80.46 20.7789 80.0874Z" fill="white"/>
<path d="M74.0469 79.0246C75.803 79.4777 77.5256 79.8248 79.2273 80.0874C81.6858 80.4643 84.1736 80.1086 86.4397 79.0669C89.0278 77.8815 91.2773 76.5561 93.4515 75.0742C89.6216 75.9846 79.1813 76.844 76.4887 76.9118C75.2552 78.0466 74.4232 78.7155 74.0469 79.0246Z" fill="white"/>
<path d="M16.0518 74.6768C17.695 74.6811 19.334 74.5964 20.9605 74.4186C20.2037 73.5929 19.5933 72.9112 18.8699 72.0051C17.8748 71.8146 7.39271 69.2911 3.02344 67.3477C4.91331 69.2657 6.92443 70.9508 9.04844 72.4412C11.1139 73.8935 13.5389 74.6684 16.0518 74.6768Z" fill="white"/>
<path d="M79.0391 74.4222C80.6655 74.6 82.3045 74.6846 83.9477 74.6804C86.4605 74.6719 88.8856 73.8971 90.9511 72.449C93.0793 70.9586 95.0862 69.2735 96.9761 67.3555C92.6069 69.2947 82.1247 71.8224 81.1296 72.0129C80.4063 72.9148 79.7958 73.5965 79.0391 74.4222Z" fill="white"/>
<path d="M11.5134 68.5109C13.2528 68.8497 15.0005 69.0613 16.7483 69.1841C16.2967 68.494 15.5315 67.3042 15.0883 66.4743C14.8332 66.3727 5.37554 62.2657 0.851562 59.2383C2.58673 61.7448 4.31353 63.79 6.22431 65.6952C7.68352 67.1518 9.51067 68.1256 11.5134 68.5109Z" fill="white"/>
<path d="M83.25 69.1917C85.0019 69.0689 86.7496 68.853 88.4847 68.5185C90.4917 68.129 92.3146 67.1551 93.7739 65.707C95.6888 63.8017 97.4115 61.7567 99.1466 59.25C94.6226 62.2732 85.165 66.3845 84.9099 66.4861C84.4667 67.3118 83.6974 68.5016 83.25 69.1917Z" fill="white"/>
<path d="M10.11 62.3324C11.2013 62.7177 12.3218 63.0606 13.4966 63.3612C12.8737 61.9809 12.4388 60.7234 12.3176 60.3974C10.3692 59.161 1.74353 52.6913 0 51.0781C0.66898 52.5601 1.85224 54.7152 3.26546 56.9042C4.90028 59.432 7.29188 61.3331 10.11 62.3324Z" fill="white"/>
<path d="M86.5078 63.3612C87.6828 63.0606 88.8033 62.7177 89.8945 62.3324C92.7084 61.3331 95.1042 59.432 96.7349 56.9042C98.1481 54.7152 99.3314 52.5601 100 51.0781C98.2569 52.6913 89.6312 59.1567 87.6828 60.3974C87.5657 60.7276 87.1309 61.9852 86.5078 63.3612Z" fill="white"/>
<path d="M7.82599 55.2119C9.00506 55.9063 10.1465 56.5075 11.2671 57.0325C11.0036 55.9486 10.92 55.6438 10.5855 53.8739C10.0922 53.4293 2.28599 45.5243 0.3125 42.9414C0.90622 45.1093 1.74663 47.345 2.71246 49.4831C3.79956 51.8924 5.57236 53.8823 7.82599 55.2119Z" fill="white"/>
<path d="M89.416 53.8735C89.0814 55.6435 88.9978 55.9483 88.7344 57.0322C89.8549 56.5071 90.9964 55.9059 92.1754 55.2116C94.4291 53.882 96.2018 51.8921 97.2848 49.487C98.2465 47.3446 99.0869 45.1133 99.6848 42.9453C97.7154 45.5282 89.9134 53.429 89.416 53.8735Z" fill="white"/>
<path d="M6.17023 47.2825C7.57091 48.5062 8.98831 49.6071 10.0712 50.3523C9.97924 49.6833 9.88307 47.8076 9.85798 47.0709C8.45312 45.1782 3.38978 37.7558 1.97656 34.9062C2.17726 37.5695 2.67063 40.2878 3.33125 42.7266C3.81208 44.5007 4.79046 46.08 6.17023 47.2825Z" fill="white"/>
<path d="M89.9375 50.3523C91.0204 49.6071 92.4337 48.5062 93.8386 47.2825C95.2183 46.08 96.1967 44.5007 96.6775 42.7266C97.3381 40.2878 97.8315 37.5737 98.0322 34.9062C96.619 37.7558 91.5598 45.1782 90.1508 47.0709C90.1257 47.8076 90.0295 49.6833 89.9375 50.3523Z" fill="white"/>
<path d="M6.92309 40.348C7.84294 41.4828 8.82132 42.554 9.84988 43.5532C9.89169 42.8842 9.92932 42.0331 10.1551 40.3607C9.41505 38.8618 5.99488 30.8551 5.01232 27.3789C4.74472 29.822 4.6402 32.3074 4.78235 34.7843C4.89525 36.8294 5.63949 38.7687 6.92309 40.348Z" fill="white"/>
<path d="M90.1526 43.5568C91.1811 42.5575 92.1554 41.4863 93.0794 40.3516C94.3629 38.7722 95.1073 36.833 95.2243 34.7922C95.3623 32.3152 95.2619 29.8256 94.9943 27.3867C94.0118 30.8629 90.5916 38.8697 89.8516 40.3685C90.0731 42.0367 90.1107 42.8836 90.1526 43.5568Z" fill="white"/>
<path d="M10.7667 36.9468C11.1388 35.4099 11.3186 34.889 11.6406 33.8644C11.4399 33.0472 9.55004 24.0455 9.23227 20.6328C8.52985 22.9065 8.01138 25.1421 7.66435 27.6191C7.38004 29.6642 7.74379 31.7347 8.70964 33.5553C9.36189 34.7663 10.0601 35.9222 10.7667 36.9468Z" fill="white"/>
<path d="M89.2296 36.9468C89.9362 35.9222 90.6345 34.7663 91.2825 33.5553C92.2525 31.7347 92.6163 29.6684 92.3278 27.6191C91.9808 25.1421 91.4623 22.9065 90.7599 20.6328C90.4421 24.0455 88.5564 33.0472 88.3516 33.8644C88.6819 34.889 88.8575 35.4099 89.2296 36.9468Z" fill="white"/>
<path d="M12.8608 30.618C13.1409 29.9745 13.626 28.9583 14.2949 27.7219C14.2364 26.3882 14.2489 16.2052 14.3452 14.7656C13.4337 16.5736 12.6225 18.517 11.9703 20.3165C11.088 22.7511 11.0421 25.4016 11.8406 27.8659C12.1709 28.8821 12.5222 29.8179 12.8608 30.618Z" fill="white"/>
<path d="M85.7064 27.7219C86.3754 28.9583 86.8604 29.9702 87.1406 30.618C87.4792 29.8179 87.8305 28.8821 88.1607 27.8659C88.9593 25.4016 88.9133 22.7511 88.0311 20.3165C87.3789 18.5213 86.5677 16.5736 85.6562 14.7656C85.7524 16.2052 85.765 26.3882 85.7064 27.7219Z" fill="white"/>
<path d="M16.0764 24.7169C16.6617 23.8277 17.3516 22.8835 17.9913 22.0578C18.0749 21.4948 20.0861 9.84249 20.1069 9.75781C18.8276 11.5996 17.6861 13.4584 16.6993 15.2663C15.6917 17.1209 15.282 19.2295 15.5328 21.3296C15.6708 22.5152 15.8547 23.6499 16.0764 24.7169Z" fill="white"/>
<path d="M83.9213 24.7169C84.1387 23.6499 84.3226 22.5109 84.4648 21.3296C84.7157 19.2295 84.306 17.1209 83.2983 15.2663C82.3157 13.4584 81.1701 11.5996 79.8906 9.75781C79.9074 9.84249 81.9185 21.4948 82.0063 22.0578C82.646 22.8835 83.3359 23.8277 83.9213 24.7169Z" fill="white"/>
<path d="M22.5399 16.9457L26.3072 5.53906C24.6263 7.4063 23.1545 9.21426 21.988 10.7809C20.9762 12.14 20.3867 13.7532 20.2947 15.4511C20.2027 17.1024 20.1943 18.381 20.2319 19.3422C20.4912 19.0501 21.0389 18.4234 22.5399 16.9457Z" fill="white"/>
<path d="M79.7627 19.3344C79.7961 18.3775 79.7919 17.0946 79.7 15.4433C79.6038 13.7454 79.0184 12.1322 78.0067 10.7731C76.8401 9.21068 75.3726 7.39849 73.6875 5.53125L77.4547 16.9379C78.9515 18.4198 79.5035 19.0465 79.7627 19.3344Z" fill="white"/>
<path d="M25.1484 14.5186C26.0349 13.7692 26.6076 13.2907 27.7658 12.4015C33.3058 1.63 29.3212 9.24291 32.8459 2.01953C30.9978 3.62849 29.5177 5.02574 28.2006 6.37219C26.8961 7.71017 26.0181 9.3911 25.6711 11.2414C25.3993 12.7022 25.2445 13.8412 25.1484 14.5186Z" fill="white"/>
<path d="M74.8459 14.5186C74.7497 13.837 74.5992 12.7022 74.3233 11.2414C73.9762 9.39534 73.1023 7.71017 71.7937 6.37219C70.4767 5.02151 68.9965 3.62426 67.1484 2.01953C70.669 9.24291 66.6843 1.63 72.2285 12.4015C73.3867 13.2907 73.9595 13.7734 74.8459 14.5186Z" fill="white"/>
<path d="M66.7363 11.9609C91.6055 30.4766 98.7176 68.0204 49.9992 87.8867C1.27654 68.0161 8.39282 30.4723 33.258 11.9609C4.62562 30.2776 0.921143 69.405 47.616 88.7971C48.8202 89.3094 48.8202 89.3094 49.9992 89.881C51.1783 89.3094 51.1783 89.3094 52.3825 88.7971C99.0731 69.405 95.3728 30.2776 66.7363 11.9609Z" fill="white"/>
<path d="M29.7405 60.7353C29.6275 60.8285 29.5063 60.8921 29.3809 60.9301C29.2554 60.9682 29.1718 60.9978 29.1216 61.0105C29.0714 61.0275 29.0422 61.0444 29.0213 61.0698C29.0046 61.0952 29.0004 61.1207 29.0046 61.1461C29.0129 61.1715 29.0254 61.1969 29.0506 61.2181C29.0714 61.2392 29.1007 61.2477 29.1342 61.2477H33.7209C33.7669 61.2477 33.8003 61.235 33.8212 61.2138C33.8463 61.1927 33.8588 61.1672 33.863 61.1376C33.8672 61.1079 33.863 61.0825 33.8505 61.0571C33.8337 61.0317 33.8087 61.0148 33.771 61.0063C33.6289 60.9809 33.4951 60.9385 33.3613 60.8751C33.2316 60.8116 33.1063 60.7226 32.985 60.6125C32.8637 60.5025 32.755 60.367 32.6547 60.2145C32.5544 60.0579 32.4665 59.8758 32.3954 59.6641C32.3578 59.554 32.2867 59.3508 32.1906 59.0459C32.0944 58.7411 31.9731 58.3812 31.8352 57.962C31.6972 57.5428 31.5425 57.0813 31.3794 56.5775C31.2122 56.0736 31.0449 55.5698 30.8777 55.0616C30.7105 54.5535 30.5474 54.0624 30.3927 53.5839C30.2379 53.1055 30.0958 52.682 29.9746 52.3094C29.8491 51.9368 29.7488 51.6362 29.6735 51.4034C29.5983 51.1705 29.5565 51.0477 29.5523 51.035C29.5272 50.9757 29.4979 50.9376 29.4603 50.9165C29.4227 50.8953 29.3642 50.908 29.2805 50.9461C29.1592 51.0012 29.0254 51.052 28.8791 51.0986C28.7328 51.1451 28.5865 51.1874 28.4359 51.2298C28.2854 51.2679 28.1432 51.306 28.0011 51.3399C27.8589 51.3738 27.7335 51.4034 27.629 51.4203C27.5663 51.4288 27.5203 51.45 27.491 51.4796C27.4617 51.5092 27.4366 51.5515 27.4199 51.6066C27.4157 51.6193 27.3739 51.7464 27.2903 51.975C27.2109 52.2079 27.1064 52.5085 26.9809 52.8853C26.8554 53.2622 26.7091 53.6898 26.5418 54.1682C26.3746 54.6509 26.2074 55.1421 26.0359 55.6459C25.8645 56.1498 25.6931 56.6495 25.5216 57.1448C25.3503 57.636 25.1955 58.089 25.0534 58.4955C24.9112 58.902 24.7942 59.2449 24.6938 59.5244C24.5976 59.8038 24.5349 59.9774 24.5056 60.0537C24.4471 60.2018 24.376 60.3289 24.2883 60.439C24.2046 60.549 24.1085 60.6422 24.0039 60.7184C23.8994 60.7946 23.7865 60.8582 23.6652 60.9089C23.5439 60.9597 23.4186 61.0021 23.2931 61.0359C23.2555 61.0444 23.2263 61.0656 23.2095 61.091C23.1928 61.1164 23.1844 61.1461 23.1886 61.1672C23.1928 61.1927 23.2053 61.2138 23.2263 61.235C23.2471 61.2562 23.2806 61.2645 23.3183 61.2645H26.0192C26.0527 61.2645 26.0819 61.2562 26.107 61.235C26.1322 61.2138 26.1447 61.1927 26.1488 61.163C26.153 61.1376 26.1488 61.1079 26.1363 61.0825C26.1237 61.0571 26.0945 61.0359 26.0485 61.0275C25.9774 61.0063 25.8812 60.9851 25.7726 60.9555C25.6596 60.9258 25.5551 60.8793 25.459 60.8116C25.3628 60.7438 25.2833 60.6549 25.229 60.5405C25.1747 60.4263 25.1663 60.278 25.2039 60.096C25.208 60.0621 25.229 59.9817 25.2666 59.8631C25.3043 59.7404 25.346 59.6006 25.3963 59.4397C25.4464 59.2788 25.4966 59.1009 25.5551 58.9105C25.6094 58.7199 25.6638 58.5379 25.7182 58.3685C25.7726 58.1949 25.8186 58.0424 25.8604 57.9027C25.9022 57.763 25.9314 57.6656 25.9524 57.6063C25.9649 57.5682 25.9942 57.547 26.0402 57.547H29.1885C29.2262 57.547 29.2554 57.5682 29.2679 57.6148C29.2722 57.636 29.293 57.6953 29.3265 57.7927C29.3599 57.89 29.3975 58.0128 29.4435 58.1526C29.4895 58.2922 29.5355 58.4447 29.594 58.6099C29.6485 58.7749 29.7028 58.9359 29.753 59.0882C29.8031 59.2449 29.845 59.3847 29.8868 59.5117C29.9286 59.6387 29.962 59.7361 29.9871 59.7996C30.0666 60.0367 30.0707 60.2315 30.008 60.3839C29.9453 60.5236 29.8575 60.6464 29.7405 60.7353ZM29.0004 57.0475H26.2157C26.153 57.0475 26.1322 57.0136 26.1572 56.9501C26.2115 56.7806 26.2785 56.5605 26.3663 56.2853C26.4498 56.0101 26.546 55.7137 26.6423 55.3961C26.7426 55.0828 26.8429 54.761 26.9432 54.4393C27.0436 54.1175 27.1397 53.821 27.2192 53.5585C27.3028 53.2961 27.3697 53.0758 27.424 52.9065C27.4785 52.7371 27.5077 52.6482 27.5118 52.6356C27.5203 52.6059 27.5411 52.589 27.5746 52.5847C27.608 52.5805 27.629 52.5932 27.6373 52.6271C27.6373 52.6313 27.6583 52.6947 27.7 52.8176C27.7418 52.9404 27.7962 53.1012 27.8589 53.3003C27.9258 53.4992 27.9969 53.7279 28.0805 53.982C28.1642 54.236 28.2477 54.4943 28.3355 54.7568C28.4234 55.0193 28.507 55.2818 28.5906 55.5359C28.6743 55.7941 28.7495 56.0227 28.8164 56.226C28.8833 56.4292 28.9376 56.5986 28.9794 56.7299C29.0213 56.8611 29.0422 56.9331 29.0506 56.9501C29.0798 57.0178 29.0589 57.0475 29.0004 57.0475Z" fill="white"/>
<path d="M34.4722 53.5556C34.5851 53.8478 34.7147 54.1822 34.8527 54.5591C34.9907 54.9359 35.137 55.3382 35.2958 55.77C35.4506 56.2019 35.6094 56.6423 35.7684 57.0868C35.9272 57.5314 36.082 57.9718 36.2366 58.4079C36.3913 58.844 36.5334 59.2505 36.6672 59.6316C36.8011 60.0126 36.9223 60.3556 37.0268 60.6562C37.1313 60.9568 37.215 61.1981 37.2777 61.3802C37.3028 61.448 37.3405 61.4819 37.3906 61.4734C37.4408 61.4649 37.4784 61.4311 37.5035 61.3718C37.5621 61.2108 37.6373 60.9992 37.7334 60.7451C37.8296 60.491 37.9342 60.2074 38.047 59.8983C38.16 59.5892 38.2853 59.2505 38.4191 58.8905C38.553 58.5264 38.6909 58.158 38.8331 57.777C38.9752 57.396 39.1174 57.0149 39.2595 56.6254C39.4017 56.2401 39.5438 55.859 39.6861 55.4906C39.7069 55.4483 39.7279 55.4229 39.7571 55.4186C39.7864 55.4144 39.8114 55.4313 39.8282 55.4694C39.8324 55.4822 39.8616 55.5668 39.9202 55.7192C39.9746 55.8717 40.0456 56.0706 40.1334 56.312C40.217 56.5534 40.3174 56.8328 40.4303 57.1461C40.5432 57.4594 40.6561 57.7854 40.7731 58.12C40.8902 58.4545 41.0073 58.7932 41.1285 59.1277C41.2497 59.4664 41.3585 59.7839 41.463 60.0761C41.5675 60.3725 41.6595 60.635 41.739 60.8594C41.8184 61.0881 41.877 61.2574 41.9188 61.376C41.9439 61.4438 41.9815 61.4776 42.0316 61.4692C42.0818 61.4607 42.1194 61.4268 42.1446 61.3675C42.2156 61.1685 42.316 60.906 42.4372 60.58C42.5585 60.254 42.6923 59.8856 42.8428 59.4833C42.9933 59.0769 43.1522 58.6492 43.3194 58.1877C43.4909 57.7305 43.6623 57.2689 43.8378 56.7989C44.0135 56.3331 44.1849 55.8759 44.3522 55.4271C44.5194 54.9783 44.6783 54.5633 44.8288 54.178C44.9752 53.7927 45.109 53.454 45.2218 53.1576C45.3348 52.8612 45.4267 52.6368 45.4978 52.4759C45.6232 52.1795 45.7905 51.9593 45.9995 51.8196C46.2044 51.6757 46.4386 51.5698 46.6977 51.502C46.7354 51.4936 46.7647 51.4766 46.7814 51.4512C46.7982 51.4258 46.8065 51.4004 46.7982 51.3751C46.794 51.3497 46.7814 51.3243 46.7564 51.3031C46.7354 51.2819 46.7062 51.2734 46.6727 51.2734H43.9717C43.9341 51.2734 43.9006 51.2819 43.8797 51.3031C43.8588 51.3243 43.8463 51.3454 43.8378 51.3751C43.8337 51.4004 43.8378 51.43 43.8505 51.4554C43.8672 51.4809 43.8965 51.502 43.9383 51.5105C44.0093 51.5317 44.1055 51.5571 44.2226 51.5867C44.3396 51.6164 44.4484 51.663 44.5487 51.7307C44.649 51.7984 44.7243 51.8873 44.7787 52.0017C44.833 52.1161 44.833 52.2599 44.787 52.4378C44.7327 52.6198 44.6615 52.8528 44.5696 53.1322C44.4776 53.4116 44.3772 53.7165 44.2644 54.0425C44.1515 54.3686 44.0344 54.7031 43.9131 55.0503C43.792 55.3975 43.6748 55.7235 43.5662 56.0325C43.4574 56.3416 43.3571 56.6254 43.2651 56.8751C43.1731 57.1249 43.1062 57.3197 43.0561 57.4594C43.0435 57.4975 43.0184 57.5187 42.9849 57.5229C42.9515 57.5272 42.9264 57.506 42.9096 57.4594C42.8595 57.3282 42.7926 57.1461 42.7048 56.9133C42.617 56.6803 42.5208 56.4221 42.4122 56.1384C42.3034 55.8505 42.1947 55.5498 42.0776 55.2323C41.9648 54.9147 41.8518 54.6014 41.7473 54.2966C41.6386 53.9918 41.5425 53.7038 41.4505 53.437C41.3585 53.1703 41.2916 52.9374 41.2414 52.7469C41.1996 52.586 41.1829 52.4421 41.1996 52.3235C41.2164 52.2006 41.2497 52.0991 41.3 52.0102C41.3502 51.9212 41.417 51.8492 41.4923 51.7899C41.5717 51.735 41.647 51.6884 41.7265 51.6503C41.8059 51.6122 41.8769 51.5867 41.9439 51.5656C42.0108 51.5444 42.0609 51.5317 42.0944 51.519C42.1446 51.5063 42.1739 51.4851 42.1947 51.4597C42.2114 51.4343 42.2156 51.4089 42.2072 51.3836C42.1989 51.3581 42.1864 51.3327 42.1654 51.3116C42.1446 51.2904 42.1153 51.2819 42.0819 51.2819H32.8625C32.8206 51.2819 32.783 51.2946 32.7621 51.3158C32.737 51.337 32.7245 51.3624 32.7203 51.3919C32.7161 51.4216 32.7203 51.4512 32.737 51.4766C32.7495 51.502 32.7788 51.519 32.8165 51.5232C33.0924 51.5783 33.3474 51.7138 33.5732 51.9297C33.799 52.1456 34.0039 52.459 34.1921 52.8697C34.2631 53.0306 34.3593 53.2635 34.4722 53.5556ZM36.5669 52.2515C36.5921 52.1203 36.6422 52.0144 36.7091 51.9339C36.776 51.8535 36.8637 51.7984 36.9642 51.7646C37.0645 51.7307 37.169 51.7138 37.2693 51.7138C37.4659 51.7138 37.6373 51.735 37.792 51.7815C37.9467 51.8238 38.0847 51.8958 38.2101 51.9932C38.3355 52.0906 38.4443 52.2091 38.5446 52.3574C38.6449 52.5014 38.7369 52.6749 38.8247 52.8697C38.8582 52.9543 38.9042 53.0602 38.9627 53.1873C39.0212 53.3142 39.0797 53.454 39.1342 53.6064C39.1885 53.7588 39.2387 53.9113 39.2763 54.0636C39.314 54.2204 39.3348 54.3644 39.3348 54.4955C39.3348 54.5845 39.3181 54.7073 39.2805 54.8597C39.2428 55.0164 39.1969 55.1899 39.1383 55.3805C39.0797 55.571 39.0129 55.7743 38.9418 55.9817C38.8707 56.1892 38.7996 56.3924 38.7286 56.583C38.6616 56.7735 38.5989 56.9471 38.5404 57.0995C38.4861 57.252 38.4401 57.3706 38.4108 57.4552C38.3941 57.4933 38.3732 57.5145 38.3397 57.5187C38.3063 57.5229 38.2812 57.5018 38.2645 57.4552C38.2143 57.324 38.1474 57.1419 38.0595 56.909C37.9717 56.6761 37.8756 56.4178 37.7669 56.1342C37.6582 55.8463 37.5495 55.5456 37.4324 55.228C37.3153 54.9105 37.2025 54.5972 37.098 54.2924C36.9892 53.9875 36.893 53.6995 36.8052 53.4328C36.7174 53.1661 36.6506 52.9331 36.6004 52.7427C36.5544 52.5478 36.5418 52.3828 36.5669 52.2515Z" fill="white"/>
<path d="M48.2703 55.6411C48.0988 56.1449 47.9275 56.6446 47.756 57.14C47.5845 57.6311 47.4299 58.0841 47.2877 58.4906C47.1456 58.8971 47.0285 59.2401 46.9281 59.5195C46.832 59.799 46.7693 59.9725 46.74 60.0488C46.6815 60.197 46.6103 60.324 46.5225 60.4341C46.4389 60.5442 46.3427 60.6373 46.2382 60.7135C46.1337 60.7897 46.0208 60.8533 45.8996 60.9041C45.7783 60.9549 45.6528 60.9972 45.5275 61.0311C45.4898 61.0395 45.4605 61.0607 45.4438 61.0861C45.4272 61.1115 45.4187 61.1412 45.4229 61.1623C45.4272 61.1878 45.4397 61.2089 45.4605 61.2301C45.4815 61.2513 45.5149 61.2598 45.5525 61.2598H48.2536C48.2869 61.2598 48.3163 61.2513 48.3414 61.2301C48.3664 61.2089 48.3789 61.1878 48.3832 61.1581C48.3874 61.1327 48.3832 61.1031 48.3706 61.0776C48.3539 61.0522 48.3246 61.0311 48.2828 61.0226C48.2118 61.0014 48.1156 60.9802 48.0068 60.9507C47.894 60.921 47.7895 60.8745 47.6933 60.8067C47.5972 60.7389 47.5177 60.65 47.4633 60.5357C47.4089 60.4214 47.4006 60.2731 47.4382 60.0911C47.4424 60.0573 47.4633 59.9768 47.5009 59.8582C47.5385 59.7355 47.5804 59.5957 47.6305 59.4349C47.6807 59.2739 47.7309 59.0961 47.7895 58.9056C47.8438 58.715 47.8981 58.533 47.9525 58.3636C48.0068 58.19 48.0528 58.0375 48.0946 57.8979C48.1365 57.7581 48.1658 57.6607 48.1866 57.6014C48.1992 57.5634 48.2284 57.5422 48.2744 57.5422H51.4228C51.4604 57.5422 51.4898 57.5634 51.5023 57.6099C51.5064 57.6311 51.5274 57.6904 51.5608 57.7878C51.5943 57.8852 51.6319 58.0079 51.6779 58.1477C51.7197 58.2874 51.7699 58.4398 51.8284 58.605C51.8827 58.77 51.9372 58.931 51.9873 59.0833C52.0375 59.2401 52.0793 59.3798 52.1211 59.5068C52.1629 59.6338 52.1963 59.7312 52.2215 59.7948C52.3008 60.0318 52.3051 60.2266 52.2423 60.379C52.1796 60.5315 52.0918 60.6542 51.9747 60.7432C51.8619 60.8363 51.7406 60.8999 51.6152 60.9379C51.4898 60.976 51.4061 61.0056 51.3559 61.0183C51.3058 61.0353 51.2765 61.0522 51.2556 61.0776C51.2388 61.1031 51.2347 61.1285 51.2431 61.1539C51.2514 61.1793 51.264 61.2047 51.2848 61.2259C51.3058 61.2471 51.3351 61.2555 51.3685 61.2555H55.9552C56.0012 61.2555 56.0346 61.2428 56.0556 61.2216C56.0806 61.2005 56.0932 61.1751 56.1015 61.1454C56.1057 61.1158 56.1015 61.0903 56.0848 61.0649C56.0722 61.0395 56.0429 61.0226 56.0054 61.0141C55.8632 60.9887 55.7294 60.9465 55.5956 60.8829C55.466 60.8194 55.3405 60.7305 55.2193 60.6203C55.0981 60.5103 54.9894 60.3748 54.8889 60.2223C54.7886 60.0657 54.7008 59.8836 54.6298 59.6719C54.5921 59.5618 54.5211 59.3586 54.4248 59.0538C54.3287 58.7489 54.2075 58.389 54.0695 57.9698C53.9315 57.5507 53.7768 57.0892 53.6138 56.5853C53.4465 56.0814 53.2793 55.5776 53.112 55.0695C52.9447 54.5614 52.7817 54.0702 52.6271 53.5918C52.4723 53.1133 52.3301 52.69 52.2089 52.3174C52.0835 51.9448 51.9832 51.6441 51.9079 51.4112C51.8326 51.1784 51.7907 51.0556 51.7866 51.0429C51.7615 50.9836 51.7322 50.9454 51.6946 50.9243C51.6569 50.9031 51.5984 50.9158 51.5148 50.9539C51.3936 51.009 51.2598 51.0598 51.1135 51.1064C50.9671 51.153 50.8207 51.1952 50.6702 51.2376C50.5197 51.2757 50.3776 51.3138 50.2354 51.3477C50.0933 51.3816 49.9678 51.4112 49.8633 51.4282C49.8005 51.4366 49.7545 51.4578 49.7253 51.4875C49.696 51.5171 49.6709 51.5595 49.6542 51.6144C49.65 51.6271 49.6082 51.7542 49.5246 51.9828C49.4452 52.2157 49.3406 52.5163 49.2152 52.8931C49.0898 53.27 48.9435 53.6976 48.7762 54.1761C48.6132 54.6418 48.4417 55.133 48.2703 55.6411ZM49.1693 54.4428C49.2696 54.1211 49.3657 53.8247 49.4452 53.5621C49.5288 53.2996 49.5957 53.0794 49.65 52.9101C49.7044 52.7407 49.7337 52.6518 49.7379 52.6391C49.7462 52.6095 49.7672 52.5925 49.8005 52.5883C49.834 52.5841 49.8549 52.5968 49.8633 52.6307C49.8633 52.6349 49.8842 52.6984 49.926 52.8211C49.9678 52.944 50.0222 53.1048 50.0848 53.3039C50.1518 53.5028 50.2228 53.7315 50.3065 53.9855C50.3901 54.2395 50.4737 54.4979 50.5616 54.7604C50.6494 55.0229 50.733 55.2855 50.8166 55.5395C50.9002 55.7977 50.9755 56.0264 51.0423 56.2296C51.1093 56.4329 51.1636 56.6022 51.2055 56.7335C51.2473 56.8647 51.2681 56.9367 51.2765 56.9536C51.2974 57.0129 51.2765 57.0426 51.218 57.0426H48.4334C48.3706 57.0426 48.3497 57.0087 48.3748 56.9452C48.4292 56.7759 48.496 56.5556 48.5839 56.2804C48.6675 56.0052 48.7637 55.7088 48.8598 55.3912C48.9685 55.0822 49.0688 54.7646 49.1693 54.4428Z" fill="white"/>
<path d="M62.4828 51.35C62.2278 51.3076 61.9644 51.2822 61.6926 51.278C61.4208 51.2738 61.149 51.2695 60.8689 51.2695H56.3701C56.3199 51.2695 56.2864 51.2822 56.2614 51.3034C56.2362 51.3246 56.2237 51.35 56.2196 51.3753C56.2154 51.4007 56.2279 51.4304 56.2488 51.4558C56.2697 51.4812 56.3031 51.4981 56.3491 51.5024C56.4077 51.5108 56.4997 51.5362 56.625 51.5701C56.7505 51.604 56.8802 51.6633 57.0098 51.7437C57.1393 51.8241 57.2523 51.9385 57.3484 52.0825C57.4446 52.2264 57.4947 52.4127 57.4947 52.6413V59.8732C57.4947 60.106 57.4446 60.2924 57.3484 60.4363C57.2523 60.5803 57.1393 60.6946 57.0098 60.775C56.8802 60.8597 56.7547 60.919 56.625 60.9487C56.4997 60.9825 56.4077 61.0037 56.3491 61.0122C56.3074 61.0207 56.2739 61.0376 56.2488 61.063C56.2279 61.0884 56.2154 61.1137 56.2196 61.1391C56.2237 61.1646 56.2362 61.19 56.2614 61.2111C56.2864 61.2323 56.3241 61.245 56.3701 61.245H61.0278C61.078 61.245 61.1115 61.2323 61.1365 61.2111C61.1616 61.19 61.1742 61.1646 61.1783 61.1391C61.1825 61.1137 61.17 61.0842 61.149 61.063C61.1282 61.0376 61.0947 61.0207 61.0487 61.0122C60.9902 61.0037 60.8982 60.9825 60.7727 60.9487C60.6474 60.9148 60.5177 60.8597 60.3881 60.775C60.2585 60.6904 60.1456 60.5761 60.0495 60.4363C59.9532 60.2924 59.9031 60.106 59.9031 59.8732V56.9094C59.9031 56.7526 59.9365 56.6425 59.9992 56.5749C60.062 56.5113 60.1748 56.4775 60.3421 56.4775C60.4718 56.4775 60.6097 56.4986 60.7519 56.5452C60.894 56.5876 61.0237 56.6976 61.149 56.867C61.2745 57.0363 61.3832 57.2904 61.4794 57.6207C61.5756 57.9552 61.6466 58.404 61.6968 58.9755C61.7219 59.2719 61.7554 59.5345 61.7971 59.7631C61.8389 59.9917 61.8975 60.195 61.9769 60.3728C62.0647 60.5803 62.1735 60.7538 62.3072 60.8894C62.4368 61.0291 62.5874 61.1391 62.7504 61.2238C62.9135 61.3086 63.0849 61.3678 63.2647 61.4017C63.4445 61.4356 63.6243 61.4526 63.8041 61.4526C64.0174 61.4526 64.218 61.4229 64.402 61.3678C64.586 61.3128 64.7532 61.2366 64.8954 61.1434C65.0376 61.0503 65.1587 60.9487 65.2549 60.8343C65.3511 60.7243 65.4138 60.6099 65.443 60.4998C65.4682 60.4066 65.4557 60.3475 65.4012 60.3178C65.3511 60.2924 65.2967 60.2882 65.2382 60.3051C65.1797 60.3305 65.1128 60.3475 65.0334 60.3517C64.9539 60.3601 64.8786 60.3517 64.7991 60.3348C64.7198 60.3136 64.6487 60.2797 64.5776 60.2289C64.5065 60.178 64.448 60.0976 64.4062 59.9959C64.3477 59.869 64.3058 59.6911 64.2849 59.4667C64.264 59.2423 64.2431 58.9586 64.2222 58.6199C64.2139 58.3108 64.1887 58.0144 64.1469 57.735C64.1051 57.4555 64.0341 57.2269 63.9296 57.0448C63.8459 56.8966 63.7456 56.7738 63.6243 56.6764C63.503 56.5791 63.3818 56.4986 63.2605 56.4436C63.1392 56.3885 63.0306 56.3462 62.9302 56.3208C62.8341 56.2953 62.763 56.2784 62.7254 56.2699C62.6919 56.2657 62.6751 56.253 62.6836 56.2277C62.6878 56.2065 62.7086 56.1896 62.7504 56.1811C63.1435 56.0667 63.4821 55.9016 63.7664 55.6899C64.0507 55.474 64.2765 55.1691 64.4522 54.7753C64.5525 54.5552 64.6195 54.3139 64.6445 54.0597C64.6696 53.8015 64.6612 53.5517 64.6152 53.3061C64.5692 53.0605 64.4898 52.8235 64.3727 52.599C64.2599 52.3746 64.1094 52.1798 63.9296 52.019C63.7038 51.8199 63.4738 51.6718 63.2312 51.5659C62.9887 51.4685 62.7379 51.3922 62.4828 51.35ZM62.0439 54.6018C61.9769 54.8812 61.8891 55.1141 61.7804 55.3004C61.6717 55.4867 61.5463 55.6264 61.4 55.728C61.2578 55.8297 61.1072 55.9016 60.9525 55.9482C60.7979 55.9947 60.6474 56.0244 60.4926 56.0329C60.3379 56.0413 60.2 56.0456 60.0745 56.0456C59.9617 56.0456 59.9072 55.9905 59.9072 55.8846V52.8319C59.9072 52.6244 59.9324 52.4509 59.9825 52.3069C60.0327 52.1629 60.108 52.0444 60.2 51.9512C60.2961 51.858 60.409 51.7903 60.5386 51.7479C60.6682 51.7057 60.8146 51.6845 60.9777 51.6845C61.1575 51.6845 61.3205 51.7184 61.4626 51.7818C61.6048 51.8453 61.7261 51.9512 61.8264 52.0952C61.9267 52.2391 62.002 52.4339 62.0564 52.671C62.1107 52.9081 62.1358 53.2088 62.1358 53.5644C62.1442 53.9751 62.1107 54.3223 62.0439 54.6018Z" fill="white"/>
<path d="M67.3016 60.437C67.2054 60.581 67.0926 60.6952 66.9629 60.7757C66.8333 60.8604 66.7078 60.9197 66.5783 60.9493C66.4528 60.9832 66.3608 61.0044 66.3023 61.0128C66.2605 61.0213 66.227 61.0383 66.202 61.0636C66.181 61.089 66.1685 61.1144 66.1727 61.1398C66.1769 61.1652 66.1894 61.1906 66.2145 61.2118C66.2396 61.233 66.2772 61.2457 66.3232 61.2457H71.4201C72.2521 61.2457 72.9795 61.1144 73.5984 60.8519C74.2172 60.5894 74.7314 60.2295 75.1412 59.7722C75.551 59.3149 75.8562 58.7815 76.0569 58.1717C76.2575 57.562 76.3579 56.9058 76.3579 56.2028C76.3579 55.5127 76.2617 54.8649 76.0736 54.2637C75.8854 53.6624 75.5928 53.1374 75.1955 52.6971C74.8026 52.2525 74.3008 51.9053 73.6946 51.647C73.0883 51.3887 72.3691 51.2617 71.5371 51.2617H66.3232C66.273 51.2617 66.2396 51.2744 66.2145 51.2956C66.1894 51.3167 66.1769 51.3421 66.1727 51.3675C66.1685 51.3929 66.181 51.4226 66.202 51.448C66.2229 51.4734 66.2563 51.4903 66.3023 51.4946C66.3608 51.503 66.4528 51.5284 66.5783 51.5623C66.7037 51.5962 66.8333 51.6555 66.9629 51.7359C67.0926 51.8163 67.2054 51.9307 67.3016 52.0746C67.3977 52.2186 67.4479 52.4049 67.4479 52.6335V59.8654C67.4479 60.1067 67.3977 60.2973 67.3016 60.437ZM69.8563 52.1762C69.8563 52.0366 69.8981 51.9264 69.9858 51.8417C70.0736 51.757 70.1908 51.7147 70.3454 51.7147C70.4207 51.7147 70.5127 51.7147 70.6214 51.7147C70.7343 51.7147 70.8472 51.7147 70.9643 51.7189C71.0813 51.7232 71.1901 51.7232 71.2946 51.7274C71.3949 51.7316 71.4786 51.7316 71.5371 51.7401C71.8925 51.774 72.1977 51.9053 72.4528 52.1339C72.7077 52.3626 72.9168 52.6759 73.0757 53.0654C73.2346 53.4592 73.3558 53.925 73.4311 54.4626C73.5064 55.0047 73.5441 55.6016 73.5441 56.2579C73.5441 56.9185 73.5064 57.5282 73.4269 58.0828C73.3475 58.6375 73.2221 59.116 73.0507 59.5182C72.8792 59.9205 72.6576 60.2338 72.3901 60.4624C72.1225 60.691 71.8005 60.8011 71.4201 60.8011C71.1231 60.8011 70.8765 60.746 70.6757 60.6318C70.4751 60.5174 70.3162 60.3353 70.1949 60.0898C70.0736 59.84 69.9858 59.5224 69.9357 59.1329C69.8855 58.7434 69.8605 58.2691 69.8605 57.7144V52.1762H69.8563Z" fill="white"/>
<path d="M25.8207 44.5482C25.6869 44.7429 25.5321 44.8954 25.3566 45.0098C25.181 45.124 25.0053 45.2045 24.8339 45.2468C24.6625 45.2892 24.5371 45.3188 24.4576 45.3315C24.3991 45.3443 24.3531 45.3697 24.3238 45.4035C24.2946 45.4373 24.282 45.4712 24.282 45.5093C24.2861 45.5474 24.3029 45.5813 24.3364 45.611C24.3698 45.6406 24.4199 45.6576 24.4869 45.6576H31.0387C31.9209 45.6576 32.6652 45.5602 33.2714 45.3654C33.8777 45.1706 34.3669 44.9081 34.7432 44.5736C35.1195 44.2434 35.3871 43.8581 35.5544 43.422C35.7216 42.9858 35.801 42.5243 35.801 42.0417C35.801 41.6774 35.7592 41.326 35.6797 40.9788C35.6004 40.6316 35.4581 40.3099 35.2533 40.0135C35.0484 39.7129 34.7682 39.4461 34.4171 39.209C34.0658 38.9719 33.6185 38.7813 33.0749 38.6417C33.0331 38.629 33.0121 38.6078 33.0038 38.5866C32.9955 38.5612 33.0121 38.54 33.054 38.5231C33.4387 38.341 33.7607 38.1293 34.024 37.888C34.2874 37.6466 34.4965 37.3841 34.6512 37.1047C34.8059 36.8209 34.9188 36.5288 34.9857 36.2197C35.0526 35.9107 35.086 35.6016 35.086 35.2925C35.086 34.8479 35.0233 34.433 34.902 34.0392C34.7808 33.6454 34.5759 33.3025 34.2874 33.0103C33.999 32.7181 33.6227 32.4895 33.1544 32.3201C32.686 32.1508 32.1049 32.0703 31.4108 32.0703H24.4869C24.4199 32.0703 24.3698 32.0873 24.3364 32.1169C24.3029 32.1465 24.2861 32.1804 24.282 32.2185C24.2778 32.2567 24.2904 32.2947 24.3238 32.3286C24.3531 32.3667 24.3991 32.3879 24.4576 32.3921C24.5371 32.4048 24.6625 32.4344 24.8339 32.481C25.0053 32.5276 25.181 32.6081 25.3566 32.7181C25.5321 32.8282 25.6869 32.9849 25.8207 33.1796C25.9545 33.3787 26.0213 33.6327 26.0213 33.9418V43.7861C26.0172 44.0994 25.9545 44.3534 25.8207 44.5482ZM29.2994 34.7929C29.2994 34.4287 29.3119 34.1154 29.3412 33.8401C29.3662 33.5692 29.4206 33.3406 29.5 33.1542C29.5795 32.968 29.6924 32.8325 29.8429 32.7393C29.9934 32.6504 30.1857 32.6039 30.424 32.6039C30.7168 32.6039 30.9426 32.68 31.1098 32.8367C31.277 32.9892 31.4025 33.1923 31.486 33.4337C31.5739 33.6793 31.624 33.9503 31.645 34.2551C31.6658 34.5557 31.6742 34.8564 31.6742 35.1528C31.6742 35.8302 31.6157 36.3807 31.4945 36.7999C31.3732 37.2189 31.2269 37.5451 31.0471 37.7779C30.8673 38.0107 30.675 38.1674 30.4659 38.2479C30.2569 38.3283 30.0645 38.3706 29.8931 38.3706C29.7008 38.3706 29.5544 38.3156 29.4498 38.2056C29.3453 38.0954 29.2952 37.9472 29.2952 37.7567V34.7929H29.2994ZM29.2994 39.535C29.2994 39.3488 29.3579 39.1963 29.4791 39.0862C29.6004 38.9762 29.7593 38.9211 29.9684 38.9211C30.0687 38.9211 30.1941 38.9253 30.3405 38.9381C30.491 38.9465 30.6457 38.9804 30.8088 39.0397C30.9718 39.0947 31.1349 39.1878 31.2937 39.3107C31.4568 39.4334 31.6032 39.6113 31.737 39.8399C31.8708 40.0686 31.9753 40.3565 32.0547 40.7121C32.1341 41.0635 32.1759 41.4954 32.1759 42.0078C32.1759 42.1559 32.1718 42.3338 32.1676 42.5412C32.1592 42.7488 32.1426 42.9689 32.1174 43.1975C32.0924 43.4262 32.0464 43.6506 31.9836 43.8793C31.9209 44.1036 31.829 44.3068 31.716 44.4889C31.599 44.6709 31.4527 44.8149 31.277 44.9251C31.1014 45.0352 30.884 45.0901 30.6248 45.0901C30.353 45.0901 30.1314 45.0352 29.9641 44.9208C29.7969 44.8065 29.6589 44.6456 29.5628 44.4424C29.4625 44.2392 29.3955 43.9893 29.3579 43.6929C29.3202 43.3965 29.3035 43.0705 29.3035 42.7064V39.535H29.2994Z" fill="white"/>
<path d="M38.2348 32.1055C38.2014 32.1352 38.1847 32.169 38.1805 32.2072C38.1763 32.2452 38.1888 32.2833 38.2223 32.3172C38.2515 32.3553 38.2975 32.3765 38.3561 32.3807C38.4355 32.3934 38.561 32.4231 38.7324 32.4696C38.9038 32.5162 39.0794 32.5966 39.255 32.7067C39.4306 32.8168 39.5853 32.9734 39.7191 33.1683C39.8529 33.3672 39.9198 33.6213 39.9198 33.9304V43.7747C39.9198 44.0922 39.8529 44.3463 39.7191 44.5411C39.5853 44.7358 39.4306 44.8883 39.255 45.0025C39.0794 45.1169 38.9038 45.1973 38.7324 45.2397C38.561 45.282 38.4355 45.3117 38.3561 45.3244C38.2975 45.337 38.2515 45.3624 38.2223 45.3963C38.193 45.4302 38.1805 45.4641 38.1805 45.5022C38.1847 45.5403 38.2014 45.5742 38.2348 45.6038C38.2683 45.6335 38.3185 45.6504 38.3853 45.6504H48.9427C49.0807 45.6504 49.1517 45.5869 49.1517 45.4598V42.7839C49.1517 42.6781 49.1099 42.6188 49.0222 42.6061C48.9344 42.5976 48.8716 42.6442 48.8339 42.75C48.8089 42.8093 48.7587 42.9109 48.6918 43.0464C48.6208 43.1861 48.5246 43.3386 48.4033 43.5036C48.2821 43.6731 48.1315 43.8466 47.9559 44.0329C47.7804 44.2192 47.5754 44.3844 47.3413 44.5326C47.1072 44.6807 46.8396 44.8036 46.5469 44.901C46.25 44.9983 45.9239 45.0449 45.5685 45.0449C44.8117 45.0449 44.2306 44.9221 43.8208 44.6723C43.4111 44.4225 43.2062 44.0626 43.2062 43.5841V39.1002C43.2062 39.0579 43.2229 39.024 43.2522 38.9943C43.2814 38.9647 43.3149 38.9478 43.3567 38.9478H44.6277C44.9246 38.9478 45.1713 39.007 45.3594 39.1299C45.5476 39.2527 45.6982 39.3923 45.8069 39.5533C45.9155 39.7141 45.995 39.8751 46.041 40.0318C46.087 40.1884 46.1163 40.3069 46.1288 40.3874C46.1371 40.4425 46.1581 40.4805 46.1915 40.5017C46.2291 40.5271 46.2626 40.5355 46.3003 40.5313C46.3378 40.5271 46.3713 40.5101 46.4006 40.4805C46.4298 40.4509 46.4466 40.4086 46.4466 40.3535V36.9324C46.4466 36.8773 46.4298 36.835 46.4006 36.8053C46.3713 36.7757 46.3378 36.7587 46.3003 36.7545C46.2626 36.7503 46.2291 36.763 46.1915 36.7841C46.1538 36.8095 46.133 36.8477 46.1288 36.8985C46.1163 36.979 46.087 37.0974 46.041 37.2541C45.995 37.4109 45.9155 37.5717 45.8069 37.7326C45.6982 37.8935 45.5476 38.0332 45.3594 38.1561C45.1713 38.2788 44.9288 38.3381 44.6277 38.3381H43.3567C43.3149 38.3381 43.2814 38.3211 43.2522 38.2915C43.2229 38.2618 43.2062 38.2279 43.2062 38.1857V34.087C43.2062 33.8245 43.2564 33.6044 43.3609 33.418C43.4654 33.2318 43.6075 33.0835 43.7873 32.965C43.9713 32.8465 44.1888 32.7618 44.4479 32.7067C44.7072 32.6517 44.9915 32.6262 45.3009 32.6262C45.7442 32.6262 46.1246 32.7025 46.4424 32.8507C46.7602 33.0031 47.0277 33.1767 47.2368 33.3757C47.4501 33.5747 47.6131 33.7695 47.7344 33.96C47.8556 34.1505 47.935 34.2903 47.9727 34.3792C48.027 34.4723 48.0939 34.5147 48.1733 34.5062C48.2528 34.4977 48.2946 34.4428 48.2946 34.3411V32.2452C48.2946 32.1182 48.2235 32.0547 48.0855 32.0547H38.3812C38.3185 32.0632 38.2683 32.0759 38.2348 32.1055Z" fill="white"/>
<path d="M51.8141 45.788C51.8977 45.8007 51.9562 45.7626 51.998 45.6652C52.0649 45.5128 52.1319 45.3815 52.2071 45.2757C52.2782 45.1698 52.3952 45.1191 52.5541 45.1191C52.6336 45.1191 52.7171 45.1318 52.8008 45.1614C52.8886 45.1867 52.9681 45.2164 53.0391 45.2418C53.5576 45.4154 54.0928 45.5762 54.6447 45.7202C55.1966 45.8642 55.7568 45.9361 56.3213 45.9361C57.2077 45.9361 57.9812 45.8261 58.6377 45.6059C59.2941 45.3858 59.8377 45.0809 60.2683 44.6956C60.6989 44.3103 61.0209 43.8572 61.2258 43.3406C61.4348 42.8242 61.5393 42.2694 61.5393 41.6809C61.5393 41.0839 61.4599 40.5547 61.2968 40.0889C61.1338 39.6274 60.8912 39.2124 60.5693 38.844C60.2473 38.4799 59.8502 38.1497 59.3693 37.8533C58.8927 37.5569 58.3408 37.2816 57.7178 37.0276C57.0739 36.7651 56.5429 36.528 56.1164 36.3163C55.6942 36.1046 55.3512 35.8929 55.0962 35.6812C54.8412 35.4695 54.6615 35.2451 54.5527 34.9996C54.4482 34.7581 54.3938 34.4745 54.3938 34.1527C54.3938 33.5895 54.5862 33.1408 54.9708 32.8147C55.3555 32.4844 55.8906 32.3194 56.5805 32.3194C57.1116 32.3194 57.5631 32.3914 57.9436 32.5353C58.3199 32.6793 58.6419 32.8655 58.901 33.0984C59.1645 33.3313 59.3819 33.5938 59.5533 33.8945C59.7247 34.1951 59.8752 34.4914 60.0007 34.7963C60.0217 34.8428 60.0467 34.8767 60.0802 34.8937C60.1136 34.9106 60.147 34.9191 60.1805 34.9148C60.214 34.9106 60.2432 34.8937 60.2683 34.864C60.2933 34.8344 60.306 34.7963 60.306 34.7497V32.9163C60.306 32.8359 60.2683 32.764 60.1847 32.7047C60.1638 32.6835 60.0802 32.6242 59.938 32.5268C59.7917 32.4294 59.5826 32.3236 59.3066 32.2135C59.0307 32.1034 58.6879 32.0018 58.2781 31.9129C57.8683 31.8239 57.3791 31.7773 56.8147 31.7773C55.9283 31.7773 55.1799 31.9002 54.5736 32.1457C53.9673 32.3914 53.474 32.7089 53.0977 33.0984C52.7213 33.488 52.4496 33.924 52.2823 34.4067C52.1151 34.8894 52.0357 35.3679 52.0357 35.8463C52.0357 36.1765 52.0775 36.4942 52.1611 36.8033C52.2447 37.1123 52.3618 37.4129 52.5123 37.7093C52.6838 38.0523 52.8969 38.353 53.1437 38.6154C53.3903 38.8779 53.6663 39.1109 53.9631 39.3098C54.26 39.5131 54.5736 39.6909 54.9039 39.8518C55.2301 40.0127 55.5645 40.1694 55.9032 40.3133C56.2084 40.4488 56.5052 40.597 56.798 40.7621C57.0906 40.9273 57.3499 41.1178 57.5799 41.3422C57.8098 41.5624 57.9896 41.8164 58.1276 42.1044C58.2656 42.388 58.3324 42.7183 58.3324 43.0951C58.3324 43.4931 58.2739 43.8318 58.1568 44.1113C58.0398 44.395 57.885 44.6236 57.6885 44.8056C57.4921 44.9878 57.2663 45.1191 57.007 45.2036C56.7478 45.2884 56.476 45.3307 56.1917 45.3307C55.69 45.3307 55.2301 45.2587 54.8203 45.1106C54.4105 44.9623 54.0342 44.7464 53.6913 44.4627C53.3485 44.179 53.0391 43.8234 52.7548 43.3999C52.4747 42.9765 52.2112 42.4897 51.9729 41.9392C51.9311 41.846 51.8726 41.8079 51.7931 41.8248C51.7137 41.8418 51.6719 41.9053 51.6719 42.0197V45.6017C51.6886 45.7118 51.7304 45.7711 51.8141 45.788Z" fill="white"/>
<path d="M75.2731 32.0625H63.6622C63.5242 32.0625 63.4531 32.126 63.4531 32.2531V35.0518C63.4531 35.1577 63.4949 35.2169 63.5827 35.2297C63.6705 35.2381 63.7332 35.1915 63.7709 35.0857C63.7918 35.0264 63.8335 34.9247 63.9047 34.7766C63.9758 34.6326 64.0678 34.4675 64.189 34.2896C64.3103 34.1076 64.4524 33.9213 64.628 33.7308C64.7994 33.5402 65.0001 33.3624 65.2301 33.2015C65.4601 33.0405 65.7192 32.9093 66.012 32.8035C66.3046 32.6976 66.6266 32.6468 66.9862 32.6468C67.1994 32.6468 67.3625 32.6891 67.4795 32.7696C67.5966 32.8501 67.6802 32.9559 67.7346 33.0871C67.7889 33.2184 67.8182 33.3667 67.8307 33.5317C67.8391 33.6969 67.8474 33.862 67.8474 34.0314C67.8474 34.1456 67.8474 34.3701 67.8474 34.7003C67.8474 35.0306 67.8474 35.4286 67.8474 35.8901C67.8474 36.3517 67.8474 36.8555 67.8474 37.4102C67.8474 37.9648 67.8474 38.5238 67.8433 39.0911C67.8391 39.6585 67.8391 40.2089 67.8391 40.7467C67.8391 41.2843 67.8391 41.767 67.8391 42.2032C67.8391 42.6351 67.8391 42.995 67.8391 43.2786C67.8391 43.5623 67.8391 43.7317 67.8391 43.7867C67.8391 44.1043 67.7722 44.3583 67.6384 44.5531C67.5046 44.7478 67.3499 44.9003 67.1743 45.0146C66.9987 45.1289 66.8231 45.2094 66.6517 45.2517C66.4803 45.2941 66.3548 45.3237 66.2753 45.3364C66.2168 45.3491 66.1708 45.3746 66.1415 45.4083C66.1123 45.4422 66.0998 45.4761 66.0998 45.5142C66.104 45.5523 66.1207 45.5862 66.1541 45.6159C66.1875 45.6455 66.2378 45.6625 66.3046 45.6625H72.6474C72.7143 45.6625 72.7645 45.6455 72.798 45.6159C72.8313 45.5862 72.8481 45.5523 72.8523 45.5142C72.8565 45.4761 72.8439 45.4422 72.8105 45.4083C72.7812 45.3746 72.7352 45.3534 72.6767 45.3364C72.5972 45.3237 72.4718 45.2941 72.3004 45.2517C72.1289 45.2094 71.9533 45.1289 71.7778 45.0146C71.6021 44.9003 71.4474 44.7478 71.3137 44.5531C71.1799 44.3583 71.1129 44.1043 71.1129 43.7867V33.5698C71.1213 33.447 71.138 33.3328 71.1631 33.2184C71.1882 33.1041 71.2342 33.0068 71.2969 32.9221C71.3597 32.8373 71.4432 32.7696 71.552 32.7188C71.6565 32.6679 71.7945 32.6425 71.9617 32.6425C72.3212 32.6425 72.6432 32.6933 72.9318 32.7992C73.2202 32.9051 73.4794 33.0363 73.7135 33.1972C73.9435 33.3582 74.1484 33.536 74.3199 33.7265C74.4912 33.917 74.6376 34.1034 74.7589 34.2854C74.8801 34.4675 74.9721 34.6283 75.039 34.7723C75.1059 34.9162 75.1519 35.0179 75.177 35.0814C75.2188 35.1873 75.2815 35.2381 75.3651 35.2254C75.4529 35.2169 75.4947 35.1577 75.4947 35.0475V32.2489C75.4822 32.126 75.4153 32.0625 75.2731 32.0625Z" fill="white"/>
</g>
</g>
<defs>
<clipPath id="clip0_37354_819">
<rect width="100" height="90" fill="white"/>
</clipPath>
</defs>
</svg>
