<svg width="129" height="115" viewBox="0 0 129 115" fill="none" xmlns="http://www.w3.org/2000/svg">
<g clip-path="url(#clip0_37706_236)">
<mask id="mask0_37706_236" style="mask-type:luminance" maskUnits="userSpaceOnUse" x="0" y="0" width="129" height="115">
<path d="M129 0H0V115H129V0Z" fill="white"/>
</mask>
<g mask="url(#mask0_37706_236)">
<path d="M40.4415 15.2947C41.1427 14.8186 41.9356 14.2884 42.723 13.7853C53.9148 0.946791 48.0574 6.64918 53.6776 0C51.8599 0.91974 49.0229 2.61314 45.8459 4.81512C43.1815 6.66 41.148 9.24609 39.9938 12.2812C39.6594 13.1631 39.3358 14.0558 39.0338 14.9485C3.11202 40.3983 3.12821 86.1905 49.1577 110.115C50.862 111.002 52.7336 111.581 54.6376 111.808C54.8534 111.835 55.0853 111.862 55.3388 111.889C2.59964 87.819 4.35255 40.1872 40.4415 15.2947Z" fill="white"/>
<path d="M89.9808 14.9563C89.6787 14.0636 89.3551 13.1709 89.0207 12.289C87.8665 9.25391 85.833 6.66782 83.1686 4.82292C79.9863 2.62096 77.1493 0.922143 75.337 0.0078125C80.9572 6.657 75.0997 0.954605 86.2916 13.7876C87.079 14.2908 87.8772 14.821 88.573 15.2971C124.657 40.1896 126.415 87.8268 73.6758 111.892C73.9293 111.865 74.1665 111.832 74.377 111.81C76.2809 111.583 78.1525 111.004 79.8569 110.117C125.886 86.1929 125.897 40.4007 89.9808 14.9563Z" fill="white"/>
<path d="M21.8594 112.82C25.1225 113.708 28.7256 114.389 32.1236 114.833C35.419 115.266 38.7254 114.844 41.7998 113.572C44.1621 112.598 46.4976 111.543 48.5635 110.516C47.2959 109.861 46.2387 109.293 44.8202 108.492C44.4911 108.568 27.2638 112.296 21.8594 112.82Z" fill="white"/>
<path d="M80.4414 110.522C82.5072 111.544 84.8426 112.599 87.2049 113.579C90.2794 114.85 93.5857 115.272 96.8812 114.839C100.279 114.39 103.882 113.709 107.145 112.827C101.741 112.302 84.5136 108.58 84.1846 108.504C82.766 109.294 81.7034 109.862 80.4414 110.522Z" fill="white"/>
<path d="M34.9707 108.062C36.7882 107.505 38.6491 106.866 40.731 106.087C39.6361 105.395 38.4711 104.616 37.2359 103.75C31.2814 104.416 20.5857 105.243 14.5664 104.919C17.4143 106.163 20.2405 107.234 23.3149 108.132C27.139 109.241 31.1627 109.225 34.9707 108.062Z" fill="white"/>
<path d="M91.7646 103.75C90.5349 104.621 89.3698 105.395 88.2695 106.087C90.3462 106.872 92.2069 107.51 94.03 108.062C97.8379 109.225 101.862 109.241 105.686 108.127C108.76 107.229 111.586 106.158 114.434 104.913C108.415 105.243 97.7193 104.41 91.7646 103.75Z" fill="white"/>
<path d="M26.8062 102.335C29.0014 102.005 31.2236 101.562 33.489 100.977C33.0035 100.582 31.9303 99.7277 30.3391 98.2777C26.8656 98.1911 13.3976 97.0875 8.45703 95.9297C11.2617 97.8233 14.1636 99.5167 17.5022 101.031C20.4255 102.357 23.6293 102.812 26.8062 102.335Z" fill="white"/>
<path d="M95.5195 100.977C97.7849 101.556 100.007 102 102.202 102.335C105.374 102.817 108.583 102.363 111.506 101.031C114.845 99.5167 117.747 97.8233 120.552 95.9297C115.611 97.0929 102.143 98.1911 98.6694 98.2777C97.0783 99.7277 96.005 100.582 95.5195 100.977Z" fill="white"/>
<path d="M20.705 95.4197C22.8248 95.4252 24.9391 95.3169 27.0373 95.0898C26.0609 94.0347 25.2735 93.1637 24.3404 92.0059C23.0567 91.7625 9.5348 88.538 3.89844 86.0547C6.33637 88.5055 8.93071 90.6587 11.6707 92.5631C14.3351 94.4188 17.4634 95.4089 20.705 95.4197Z" fill="white"/>
<path d="M101.961 95.0922C104.059 95.3195 106.173 95.4276 108.293 95.4222C111.535 95.4113 114.663 94.4212 117.327 92.571C120.073 90.6666 122.662 88.5134 125.1 86.0625C119.463 88.5404 105.941 91.7703 104.658 92.0137C103.725 93.1661 102.937 94.0371 101.961 95.0922Z" fill="white"/>
<path d="M14.8514 87.5437C17.0952 87.9765 19.3497 88.247 21.6044 88.4039C21.0218 87.522 20.0348 86.0017 19.463 84.9413C19.134 84.8116 6.93359 79.5636 1.09766 75.6953C3.33603 78.8981 5.5636 81.5113 8.0285 83.9458C9.91089 85.8071 12.2679 87.0514 14.8514 87.5437Z" fill="white"/>
<path d="M107.391 88.4103C109.651 88.2534 111.905 87.9775 114.143 87.5501C116.732 87.0524 119.084 85.808 120.966 83.9577C123.437 81.5231 125.659 78.91 127.897 75.707C122.061 79.5699 109.861 84.8233 109.532 84.9532C108.96 86.0082 107.968 87.5285 107.391 88.4103Z" fill="white"/>
<path d="M13.0419 79.6421C14.4496 80.1345 15.8951 80.5727 17.4107 80.9568C16.6071 79.1931 16.0461 77.5862 15.8897 77.1696C13.3763 75.5898 2.24915 67.3231 0 65.2617C0.862984 67.1553 2.38939 69.9091 4.21245 72.7061C6.32137 75.9362 9.40653 78.3654 13.0419 79.6421Z" fill="white"/>
<path d="M111.594 80.9607C113.109 80.5766 114.555 80.1384 115.963 79.646C119.593 78.3693 122.683 75.9401 124.787 72.71C126.61 69.913 128.136 67.1592 128.999 65.2656C126.75 67.327 115.623 75.5883 113.109 77.1735C112.958 77.5955 112.397 79.2024 111.594 80.9607Z" fill="white"/>
<path d="M10.0987 70.5501C11.6197 71.4373 13.0921 72.2055 14.5377 72.8764C14.1978 71.4914 14.09 71.1019 13.6584 68.8403C13.022 68.2722 2.95205 58.1715 0.40625 54.8711C1.17215 57.6412 2.25628 60.4978 3.5022 63.23C4.90455 66.3085 7.19147 68.8512 10.0987 70.5501Z" fill="white"/>
<path d="M115.352 68.8388C114.92 71.1004 114.813 71.4899 114.473 72.8749C115.918 72.204 117.391 71.4358 118.912 70.5486C121.819 68.8497 124.106 66.3069 125.503 63.2339C126.743 60.4963 127.827 57.6451 128.599 54.875C126.058 58.1754 115.994 68.2709 115.352 68.8388Z" fill="white"/>
<path d="M7.96061 60.4157C9.76749 61.9793 11.5959 63.3859 12.9929 64.3381C12.8742 63.4833 12.7502 61.0866 12.7178 60.1452C10.9055 57.7269 4.37384 48.2426 2.55078 44.6016C2.80968 48.0046 3.44612 51.478 4.29832 54.5942C4.9186 56.8611 6.18071 58.8791 7.96061 60.4157Z" fill="white"/>
<path d="M116.016 64.3381C117.413 63.3859 119.236 61.9793 121.048 60.4157C122.828 58.8791 124.09 56.8611 124.71 54.5942C125.562 51.478 126.199 48.01 126.458 44.6016C124.635 48.2426 118.108 57.7269 116.291 60.1452C116.258 61.0866 116.134 63.4833 116.016 64.3381Z" fill="white"/>
<path d="M8.92954 51.556C10.1161 53.006 11.3783 54.3747 12.7051 55.6515C12.759 54.7967 12.8076 53.7092 13.0988 51.5722C12.1442 49.657 7.73215 39.4262 6.46465 34.9844C6.11944 38.1062 5.9846 41.2819 6.16799 44.4468C6.31362 47.06 7.27369 49.538 8.92954 51.556Z" fill="white"/>
<path d="M116.299 55.6539C117.625 54.3771 118.882 53.0084 120.074 51.5584C121.73 49.5404 122.69 47.0625 122.841 44.4548C123.019 41.2897 122.889 38.1086 122.544 34.9922C121.277 39.434 116.865 49.6648 115.91 51.5801C116.196 53.7116 116.244 54.7937 116.299 55.6539Z" fill="white"/>
<path d="M13.889 47.209C14.369 45.2451 14.601 44.5796 15.0163 43.2703C14.7574 42.2261 12.3195 30.7239 11.9095 26.3633C11.0034 29.2686 10.3346 32.1252 9.88694 35.2903C9.52017 37.9033 9.98942 40.549 11.2354 42.8754C12.0768 44.4227 12.9775 45.8998 13.889 47.209Z" fill="white"/>
<path d="M115.105 47.209C116.017 45.8998 116.918 44.4227 117.754 42.8754C119.005 40.549 119.474 37.9087 119.102 35.2903C118.654 32.1252 117.986 29.2686 117.079 26.3633C116.669 30.7239 114.237 42.2261 113.973 43.2703C114.399 44.5796 114.625 45.2451 115.105 47.209Z" fill="white"/>
<path d="M16.5907 39.1269C16.9521 38.3046 17.5778 37.0062 18.4407 35.4264C18.3652 33.7222 18.3814 20.7106 18.5055 18.8711C17.3297 21.1812 16.2833 23.6646 15.4419 25.9639C14.3038 29.0747 14.2445 32.4615 15.2746 35.6104C15.7008 36.9088 16.1539 38.1045 16.5907 39.1269Z" fill="white"/>
<path d="M110.557 35.4264C111.42 37.0062 112.045 38.2992 112.407 39.1269C112.844 38.1045 113.297 36.9088 113.723 35.6104C114.753 32.4615 114.694 29.0747 113.556 25.9639C112.714 23.67 111.668 21.1812 110.492 18.8711C110.616 20.7106 110.632 33.7222 110.557 35.4264Z" fill="white"/>
<path d="M20.7393 31.5831C21.4942 30.4469 22.3842 29.2405 23.2095 28.1855C23.3174 27.466 25.9117 12.5769 25.9386 12.4688C24.2882 14.8222 22.8157 17.1973 21.5429 19.5074C20.2429 21.8771 19.7145 24.5715 20.038 27.2549C20.2161 28.7698 20.4533 30.2197 20.7393 31.5831Z" fill="white"/>
<path d="M108.258 31.5831C108.539 30.2197 108.776 28.7644 108.959 27.2549C109.283 24.5715 108.754 21.8771 107.455 19.5074C106.187 17.1973 104.709 14.8222 103.059 12.4688C103.08 12.5769 105.675 27.466 105.788 28.1855C106.613 29.2405 107.503 30.4469 108.258 31.5831Z" fill="white"/>
<path d="M29.0747 21.6533L33.9345 7.07812C31.7662 9.46404 29.8676 11.7742 28.3628 13.776C27.0575 15.5127 26.297 17.574 26.1783 19.7435C26.0596 21.8535 26.0489 23.4873 26.0974 24.7155C26.4318 24.3422 27.1383 23.5414 29.0747 21.6533Z" fill="white"/>
<path d="M102.899 24.7077C102.943 23.4849 102.937 21.8457 102.819 19.7357C102.695 17.5662 101.939 15.5049 100.634 13.7682C99.1294 11.7718 97.2362 9.45622 95.0625 7.07031L99.9221 21.6455C101.853 23.539 102.565 24.3398 102.899 24.7077Z" fill="white"/>
<path d="M32.4453 18.5531C33.5888 17.5955 34.3276 16.9841 35.8217 15.8479C42.9683 2.0843 37.8281 11.8119 42.3751 2.58203C39.991 4.63792 38.0817 6.4233 36.3827 8.14375C34.6998 9.8534 33.5672 12.0013 33.1195 14.3655C32.7689 16.2321 32.5693 17.6875 32.4453 18.5531Z" fill="white"/>
<path d="M96.5508 18.5531C96.4267 17.6821 96.2325 16.2321 95.8766 14.3655C95.4289 12.0067 94.3016 9.8534 92.6135 8.14375C90.9145 6.41789 89.0051 4.63252 86.6211 2.58203C91.1626 11.8119 86.0224 2.0843 93.1744 15.8479C94.6684 16.9841 95.4074 17.6009 96.5508 18.5531Z" fill="white"/>
<path d="M86.0845 15.2812C118.166 38.9401 127.34 86.9127 64.4937 112.298C1.64142 86.9073 10.8214 38.9347 42.8975 15.2812C5.96174 38.6859 1.18296 88.682 61.4193 113.461C62.9727 114.115 62.9727 114.115 64.4937 114.846C66.0147 114.115 66.0147 114.115 67.5681 113.461C127.799 88.682 123.026 38.6859 86.0845 15.2812Z" fill="white"/>
<path d="M38.3596 77.6063C38.2139 77.7253 38.0574 77.8065 37.8957 77.8551C37.7339 77.9038 37.626 77.9417 37.5613 77.9579C37.4965 77.9796 37.4588 78.0012 37.4319 78.0337C37.4103 78.0661 37.4048 78.0986 37.4103 78.1311C37.421 78.1636 37.4372 78.196 37.4696 78.2231C37.4965 78.2501 37.5343 78.261 37.5774 78.261H43.4943C43.5537 78.261 43.5967 78.2447 43.6237 78.2177C43.656 78.1906 43.6722 78.1581 43.6776 78.1203C43.6831 78.0824 43.6776 78.0499 43.6615 78.0174C43.6399 77.985 43.6076 77.9633 43.559 77.9525C43.3756 77.92 43.2031 77.8659 43.0305 77.7849C42.8632 77.7037 42.7014 77.59 42.545 77.4493C42.3886 77.3088 42.2483 77.1356 42.1189 76.9408C41.9895 76.7407 41.8761 76.508 41.7845 76.2375C41.736 76.0968 41.6442 75.8372 41.5202 75.4475C41.3961 75.058 41.2397 74.5981 41.0618 74.0625C40.8838 73.5269 40.6842 72.9373 40.4738 72.2934C40.2581 71.6495 40.0423 71.0058 39.8266 70.3565C39.6109 69.7073 39.4005 69.0798 39.2009 68.4684C39.0013 67.857 38.818 67.3159 38.6616 66.8398C38.4997 66.3637 38.3703 65.9796 38.2732 65.6821C38.1761 65.3845 38.1222 65.2277 38.1168 65.2114C38.0845 65.1357 38.0467 65.087 37.9981 65.0599C37.9496 65.0329 37.8741 65.0491 37.7662 65.0978C37.6097 65.1681 37.4372 65.2331 37.2484 65.2926C37.0597 65.352 36.8709 65.4061 36.6767 65.4602C36.4826 65.509 36.2991 65.5577 36.1158 65.601C35.9323 65.6442 35.7706 65.6821 35.6358 65.7038C35.5548 65.7146 35.4955 65.7417 35.4578 65.7795C35.42 65.8173 35.3876 65.8714 35.3661 65.9418C35.3607 65.958 35.3068 66.1203 35.1988 66.4124C35.0964 66.7101 34.9616 67.0942 34.7997 67.5757C34.6379 68.0572 34.4491 68.6037 34.2333 69.2149C34.0176 69.8317 33.8019 70.4594 33.5807 71.1031C33.3595 71.747 33.1385 72.3854 32.9173 73.0183C32.6962 73.6459 32.4966 74.2249 32.3133 74.7443C32.1298 75.2637 31.9788 75.7019 31.8494 76.0589C31.7253 76.416 31.6444 76.6378 31.6066 76.7353C31.5311 76.9245 31.4395 77.0869 31.3262 77.2276C31.2183 77.3682 31.0943 77.4872 30.9595 77.5846C30.8246 77.682 30.6789 77.7632 30.5225 77.828C30.3661 77.893 30.2043 77.9471 30.0425 77.9904C29.994 78.0012 29.9562 78.0283 29.9347 78.0607C29.9131 78.0932 29.9022 78.1311 29.9076 78.1581C29.9131 78.1906 29.9292 78.2177 29.9562 78.2447C29.9831 78.2718 30.0263 78.2825 30.0749 78.2825H33.5591C33.6023 78.2825 33.6401 78.2718 33.6724 78.2447C33.7049 78.2177 33.721 78.1906 33.7263 78.1527C33.7317 78.1203 33.7263 78.0824 33.7101 78.0499C33.694 78.0174 33.6562 77.9904 33.5969 77.9796C33.5052 77.9525 33.3811 77.9254 33.241 77.8876C33.0953 77.8497 32.9605 77.7903 32.8365 77.7037C32.7124 77.6171 32.6098 77.5035 32.5398 77.3573C32.4697 77.2114 32.4588 77.0219 32.5075 76.7894C32.5128 76.7461 32.5398 76.6433 32.5883 76.4917C32.6369 76.3349 32.6908 76.1563 32.7555 75.9507C32.8202 75.7452 32.885 75.5179 32.9605 75.2745C33.0305 75.031 33.1007 74.7984 33.1708 74.5819C33.241 74.3602 33.3003 74.1653 33.3542 73.9868C33.4082 73.8083 33.4459 73.6838 33.4729 73.6081C33.4891 73.5594 33.5268 73.5323 33.5862 73.5323H37.6475C37.6961 73.5323 37.7339 73.5594 37.75 73.6189C37.7555 73.6459 37.7823 73.7217 37.8255 73.8462C37.8687 73.9705 37.9172 74.1275 37.9765 74.306C38.0359 74.4845 38.0952 74.6793 38.1707 74.8904C38.2409 75.1013 38.311 75.307 38.3757 75.5016C38.4404 75.7019 38.4944 75.8805 38.5483 76.0427C38.6022 76.205 38.6454 76.3295 38.6777 76.4105C38.7803 76.7136 38.7856 76.9624 38.7048 77.1572C38.6238 77.3357 38.5106 77.4926 38.3596 77.6063ZM37.4048 72.894H33.8127C33.7317 72.894 33.7049 72.8507 33.7372 72.7695C33.8072 72.553 33.8936 72.2718 34.0068 71.9201C34.1147 71.5685 34.2388 71.1897 34.3629 70.7839C34.4923 70.3836 34.6217 69.9724 34.7511 69.5613C34.8807 69.1501 35.0046 68.7713 35.1071 68.4359C35.215 68.1005 35.3013 67.8191 35.3714 67.6028C35.4416 67.3863 35.4793 67.2726 35.4846 67.2565C35.4955 67.2187 35.5224 67.197 35.5656 67.1916C35.6088 67.1862 35.6358 67.2024 35.6465 67.2457C35.6465 67.2511 35.6735 67.3322 35.7274 67.4891C35.7813 67.6461 35.8514 67.8516 35.9323 68.1059C36.0187 68.3601 36.1104 68.6524 36.2182 68.9769C36.3261 69.3015 36.4339 69.6316 36.5472 69.967C36.6606 70.3024 36.7684 70.6378 36.8762 70.9625C36.9842 71.2925 37.0813 71.5846 37.1675 71.8444C37.2538 72.104 37.3239 72.3205 37.3778 72.4882C37.4319 72.6559 37.4588 72.7479 37.4696 72.7695C37.5074 72.8561 37.4803 72.894 37.4048 72.894Z" fill="white"/>
<path d="M44.4728 68.4357C44.6185 68.8089 44.7857 69.2363 44.9637 69.7178C45.1417 70.1994 45.3305 70.7133 45.5354 71.2652C45.735 71.8171 45.9399 72.3798 46.145 72.9477C46.3499 73.5158 46.5495 74.0785 46.7489 74.6358C46.9486 75.1931 47.1319 75.7125 47.3045 76.1994C47.4772 76.6863 47.6335 77.1245 47.7683 77.5086C47.9032 77.8927 48.0111 78.2011 48.092 78.4338C48.1244 78.5203 48.173 78.5636 48.2376 78.5528C48.3024 78.542 48.3509 78.4987 48.3833 78.4229C48.4588 78.2173 48.5559 77.9468 48.6799 77.6223C48.804 77.2976 48.9388 76.9351 49.0844 76.5402C49.2301 76.1453 49.3918 75.7125 49.5644 75.2525C49.7371 74.7872 49.915 74.3165 50.0985 73.8297C50.2818 73.3428 50.4652 72.8559 50.6485 72.3581C50.832 71.8658 51.0153 71.3788 51.1988 70.9082C51.2257 70.854 51.2527 70.8216 51.2904 70.8162C51.3282 70.8107 51.3605 70.8324 51.3821 70.8811C51.3875 70.8973 51.4253 71.0054 51.5008 71.2003C51.571 71.3951 51.6626 71.6493 51.7759 71.9576C51.8837 72.2661 52.0132 72.6231 52.1588 73.0235C52.3045 73.4238 52.4501 73.8404 52.6011 74.2679C52.7521 74.6953 52.9032 75.1281 53.0595 75.5555C53.2159 75.9883 53.3562 76.3941 53.491 76.7673C53.6259 77.1462 53.7445 77.4816 53.8471 77.7682C53.9495 78.0605 54.0251 78.2768 54.079 78.4283C54.1113 78.5149 54.1599 78.5582 54.2246 78.5474C54.2893 78.5366 54.3378 78.4933 54.3703 78.4175C54.4619 78.1632 54.5913 77.8278 54.7478 77.4112C54.9042 76.9946 55.0768 76.5239 55.271 76.01C55.4651 75.4906 55.67 74.9441 55.8858 74.3544C56.107 73.7702 56.3281 73.1804 56.5546 72.5799C56.7812 71.9847 57.0023 71.4005 57.218 70.827C57.4338 70.2535 57.6387 69.7233 57.8329 69.2309C58.0218 68.7386 58.1944 68.3058 58.3399 67.9271C58.4856 67.5484 58.6042 67.2616 58.696 67.0561C58.8577 66.6772 59.0735 66.396 59.3431 66.2174C59.6074 66.0335 59.9095 65.8982 60.2438 65.8116C60.2924 65.8008 60.3302 65.7792 60.3518 65.7467C60.3734 65.7142 60.3841 65.6817 60.3734 65.6494C60.368 65.6169 60.3518 65.5845 60.3195 65.5574C60.2925 65.5304 60.2547 65.5195 60.2115 65.5195H56.7273C56.6787 65.5195 56.6355 65.5304 56.6086 65.5574C56.5816 65.5845 56.5654 65.6115 56.5546 65.6494C56.5493 65.6817 56.5546 65.7196 56.5709 65.7521C56.5925 65.7846 56.6302 65.8116 56.6841 65.8225C56.7758 65.8495 56.8999 65.882 57.0509 65.9199C57.2019 65.9577 57.3422 66.0173 57.4716 66.1039C57.601 66.1903 57.6981 66.304 57.7683 66.4501C57.8383 66.5962 57.8383 66.7801 57.779 67.0074C57.7089 67.2399 57.6171 67.5376 57.4986 67.8946C57.3799 68.2517 57.2504 68.6412 57.1048 69.0577C56.9592 69.4744 56.8081 69.9018 56.6517 70.3455C56.4954 70.7891 56.3442 71.2057 56.2041 71.6006C56.0638 71.9955 55.9344 72.3581 55.8157 72.6773C55.6971 72.9964 55.6107 73.2454 55.5461 73.4238C55.5299 73.4725 55.4975 73.4996 55.4543 73.505C55.4112 73.5104 55.3788 73.4833 55.3572 73.4238C55.2925 73.2562 55.2062 73.0235 55.0929 72.726C54.9797 72.4283 54.8556 72.0983 54.7154 71.7359C54.5752 71.368 54.4349 70.9838 54.2839 70.578C54.1383 70.1723 53.9926 69.772 53.8578 69.3824C53.7175 68.9929 53.5936 68.6249 53.4749 68.2841C53.3562 67.9433 53.27 67.6457 53.2052 67.4023C53.1513 67.1966 53.1297 67.0128 53.1513 66.8612C53.1729 66.7043 53.2159 66.5746 53.2807 66.4609C53.3455 66.3473 53.4317 66.2553 53.5288 66.1795C53.6313 66.1093 53.7284 66.0497 53.8309 66.001C53.9333 65.9523 54.025 65.9199 54.1113 65.8928C54.1977 65.8657 54.2623 65.8495 54.3055 65.8333C54.3703 65.817 54.408 65.79 54.4349 65.7575C54.4565 65.725 54.4619 65.6926 54.4511 65.6602C54.4403 65.6278 54.4242 65.5953 54.3972 65.5682C54.3703 65.5412 54.3325 65.5304 54.2893 65.5304H42.3964C42.3423 65.5304 42.2938 65.5466 42.2668 65.5737C42.2345 65.6007 42.2183 65.6332 42.2129 65.6709C42.2075 65.7088 42.2129 65.7467 42.2345 65.7792C42.2506 65.8116 42.2884 65.8333 42.337 65.8387C42.6929 65.909 43.0219 66.0822 43.3132 66.3581C43.6045 66.6339 43.8687 67.0344 44.1115 67.5592C44.2032 67.7647 44.3273 68.0624 44.4728 68.4357ZM47.1751 66.7692C47.2075 66.6016 47.2721 66.4663 47.3585 66.3635C47.4447 66.2607 47.558 66.1903 47.6875 66.1472C47.8169 66.1039 47.9518 66.0822 48.0812 66.0822C48.3347 66.0822 48.5559 66.1093 48.7554 66.1687C48.955 66.2228 49.133 66.3148 49.2947 66.4393C49.4566 66.5637 49.5969 66.7151 49.7263 66.9045C49.8557 67.0885 49.9744 67.3103 50.0876 67.5592C50.1308 67.6673 50.1901 67.8026 50.2656 67.965C50.3411 68.1272 50.4166 68.3058 50.4868 68.5006C50.5569 68.6953 50.6217 68.8901 50.6701 69.0848C50.7187 69.285 50.7456 69.469 50.7456 69.6367C50.7456 69.7503 50.724 69.9073 50.6756 70.1019C50.627 70.3022 50.5678 70.5239 50.4921 70.7675C50.4166 71.0108 50.3304 71.2706 50.2387 71.5357C50.1469 71.8008 50.0553 72.0605 49.9636 72.304C49.8773 72.5474 49.7963 72.7693 49.7208 72.964C49.6508 73.1588 49.5914 73.3103 49.5537 73.4184C49.5321 73.4671 49.5052 73.4942 49.462 73.4996C49.4188 73.505 49.3865 73.4779 49.3649 73.4184C49.3002 73.2508 49.2139 73.0181 49.1005 72.7206C48.9873 72.4229 48.8633 72.0929 48.7231 71.7305C48.5828 71.3626 48.4426 70.9784 48.2915 70.5726C48.1405 70.1669 47.995 69.7665 47.8601 69.377C47.7198 68.9875 47.5957 68.6195 47.4825 68.2787C47.3692 67.9379 47.283 67.6403 47.2182 67.3969C47.1589 67.1479 47.1427 66.937 47.1751 66.7692Z" fill="white"/>
<path d="M62.2721 71.0987C62.0509 71.7424 61.8299 72.3809 61.6087 73.0139C61.3875 73.6414 61.188 74.2204 61.0046 74.7397C60.8212 75.2591 60.6702 75.6974 60.5407 76.0544C60.4167 76.4116 60.3358 76.6333 60.298 76.7307C60.2225 76.9201 60.1307 77.0824 60.0175 77.2231C59.9097 77.3638 59.7856 77.4827 59.6507 77.5801C59.5159 77.6775 59.3703 77.7587 59.2139 77.8236C59.0575 77.8886 58.8956 77.9426 58.7339 77.9859C58.6853 77.9967 58.6475 78.0237 58.6259 78.0562C58.6045 78.0887 58.5936 78.1266 58.599 78.1536C58.6045 78.1861 58.6206 78.2132 58.6475 78.2402C58.6745 78.2673 58.7177 78.2781 58.7662 78.2781H62.2506C62.2936 78.2781 62.3315 78.2673 62.3638 78.2402C62.3961 78.2132 62.4123 78.1861 62.4177 78.1482C62.4231 78.1157 62.4177 78.0779 62.4016 78.0454C62.38 78.0129 62.3422 77.9859 62.2883 77.975C62.1966 77.948 62.0725 77.9209 61.9323 77.8832C61.7867 77.8453 61.6519 77.7858 61.5277 77.6992C61.4038 77.6126 61.3012 77.4989 61.231 77.353C61.161 77.2068 61.1503 77.0174 61.1987 76.7849C61.2042 76.7416 61.231 76.6387 61.2797 76.4872C61.3281 76.3304 61.3822 76.1518 61.4468 75.9463C61.5116 75.7407 61.5764 75.5134 61.6519 75.27C61.7219 75.0264 61.792 74.7939 61.8622 74.5774C61.9323 74.3556 61.9916 74.1608 62.0455 73.9824C62.0996 73.8038 62.1373 73.6793 62.1642 73.6035C62.1804 73.555 62.2181 73.5279 62.2774 73.5279H66.3389C66.3874 73.5279 66.4253 73.555 66.4414 73.6144C66.4467 73.6414 66.4737 73.7172 66.5169 73.8417C66.5601 73.9661 66.6086 74.1229 66.6679 74.3015C66.7218 74.4801 66.7866 74.6748 66.8621 74.8859C66.9322 75.0968 67.0024 75.3024 67.067 75.4971C67.1318 75.6974 67.1857 75.8759 67.2396 76.0382C67.2936 76.2005 67.3367 76.325 67.3691 76.4062C67.4715 76.7091 67.477 76.9579 67.396 77.1527C67.3151 77.3475 67.2018 77.5043 67.0508 77.618C66.9053 77.7371 66.7489 77.8182 66.587 77.8668C66.4253 77.9155 66.3173 77.9534 66.2525 77.9696C66.1879 77.9913 66.1502 78.0129 66.1231 78.0454C66.1015 78.0779 66.0962 78.1103 66.107 78.1428C66.1177 78.1753 66.134 78.2077 66.1609 78.2348C66.1879 78.2619 66.2257 78.2727 66.2688 78.2727H72.1856C72.2449 78.2727 72.2881 78.2564 72.3151 78.2294C72.3475 78.2023 72.3636 78.1699 72.3743 78.132C72.3798 78.0941 72.3743 78.0616 72.3529 78.0292C72.3366 77.9967 72.2988 77.975 72.2504 77.9642C72.0669 77.9317 71.8943 77.8778 71.7217 77.7966C71.5546 77.7154 71.3927 77.6018 71.2363 77.4611C71.08 77.3205 70.9397 77.1473 70.8102 76.9525C70.6808 76.7524 70.5675 76.5197 70.4759 76.2492C70.4273 76.1085 70.3356 75.8489 70.2115 75.4594C70.0875 75.0697 69.9311 74.6099 69.7531 74.0742C69.575 73.5387 69.3756 72.949 69.1652 72.3051C68.9495 71.6613 68.7337 71.0175 68.5179 70.3683C68.3022 69.7191 68.0918 69.0915 67.8923 68.4801C67.6927 67.8687 67.5093 67.3278 67.353 66.8517C67.1911 66.3756 67.0617 65.9914 66.9646 65.6938C66.8675 65.3963 66.8135 65.2394 66.8082 65.2232C66.7757 65.1474 66.738 65.0987 66.6895 65.0716C66.6409 65.0446 66.5654 65.0608 66.4576 65.1095C66.3012 65.1799 66.1286 65.2448 65.9398 65.3043C65.7509 65.3639 65.5622 65.4178 65.368 65.472C65.1738 65.5207 64.9905 65.5694 64.8071 65.6127C64.6238 65.656 64.4619 65.6938 64.327 65.7155C64.2461 65.7263 64.1868 65.7534 64.149 65.7913C64.1113 65.8291 64.079 65.8833 64.0574 65.9535C64.0519 65.9697 63.998 66.1321 63.8902 66.4242C63.7877 66.7218 63.6529 67.1059 63.491 67.5874C63.3293 68.0689 63.1405 68.6154 62.9248 69.2268C62.7144 69.8218 62.4932 70.4494 62.2721 71.0987ZM63.4318 69.5676C63.5612 69.1564 63.6852 68.7777 63.7877 68.4422C63.8956 68.1068 63.9819 67.8254 64.0519 67.6091C64.1221 67.3926 64.1599 67.2791 64.1653 67.2629C64.176 67.225 64.2031 67.2033 64.2461 67.1979C64.2893 67.1925 64.3163 67.2087 64.327 67.252C64.327 67.2574 64.3541 67.3386 64.408 67.4954C64.4619 67.6524 64.5321 67.8579 64.6129 68.1122C64.6992 68.3664 64.7909 68.6587 64.8989 68.9833C65.0067 69.3078 65.1145 69.6379 65.2279 69.9733C65.3411 70.3087 65.4489 70.6443 65.5569 70.9688C65.6647 71.2988 65.7618 71.591 65.848 71.8507C65.9344 72.1104 66.0045 72.3268 66.0585 72.4945C66.1124 72.6622 66.1393 72.7542 66.1502 72.7758C66.177 72.8516 66.1502 72.8895 66.0747 72.8895H62.4825C62.4016 72.8895 62.3745 72.8462 62.407 72.765C62.4771 72.5487 62.5633 72.2672 62.6767 71.9156C62.7845 71.564 62.9086 71.1852 63.0326 70.7794C63.1728 70.3845 63.3022 69.9787 63.4318 69.5676Z" fill="white"/>
<path d="M80.6041 65.6145C80.2751 65.5604 79.9353 65.528 79.5847 65.5225C79.2341 65.5171 78.8835 65.5117 78.5222 65.5117H72.7187C72.6539 65.5117 72.6107 65.528 72.5784 65.555C72.5459 65.5821 72.5298 65.6145 72.5245 65.6469C72.5191 65.6793 72.5352 65.7172 72.5622 65.7497C72.5891 65.7822 72.6323 65.8038 72.6916 65.8092C72.7671 65.8201 72.8858 65.8525 73.0475 65.8958C73.2094 65.9391 73.3767 66.0149 73.5439 66.1176C73.711 66.2204 73.8567 66.3665 73.9807 66.5505C74.1048 66.7344 74.1694 66.9725 74.1694 67.2646V76.5053C74.1694 76.8028 74.1048 77.0409 73.9807 77.2248C73.8567 77.4088 73.711 77.5549 73.5439 77.6576C73.3767 77.7658 73.2148 77.8416 73.0475 77.8795C72.8858 77.9228 72.7671 77.9498 72.6916 77.9607C72.6377 77.9715 72.5945 77.9931 72.5622 78.0256C72.5352 78.0581 72.5191 78.0904 72.5245 78.1229C72.5298 78.1554 72.5459 78.1878 72.5784 78.2149C72.6107 78.2419 72.6593 78.2582 72.7187 78.2582H78.7271C78.7918 78.2582 78.835 78.2419 78.8673 78.2149C78.8997 78.1878 78.916 78.1554 78.9213 78.1229C78.9267 78.0904 78.9105 78.0527 78.8835 78.0256C78.8566 77.9931 78.8134 77.9715 78.7541 77.9607C78.6786 77.9498 78.5599 77.9228 78.3981 77.8795C78.2363 77.8362 78.069 77.7658 77.9019 77.6576C77.7347 77.5495 77.589 77.4034 77.4651 77.2248C77.3409 77.0409 77.2763 76.8028 77.2763 76.5053V72.7182C77.2763 72.5179 77.3193 72.3772 77.4003 72.2908C77.4812 72.2096 77.6268 72.1663 77.8425 72.1663C78.0098 72.1663 78.1877 72.1933 78.3712 72.2529C78.5545 72.307 78.7218 72.4476 78.8835 72.664C79.0454 72.8804 79.1856 73.2051 79.3096 73.6271C79.4337 74.0545 79.5254 74.628 79.5902 75.3583C79.6225 75.737 79.6657 76.0725 79.7196 76.3646C79.7735 76.6567 79.849 76.9165 79.9515 77.1436C80.0647 77.4088 80.205 77.6306 80.3776 77.8037C80.5448 77.9823 80.7389 78.1229 80.9493 78.2311C81.1596 78.3394 81.3808 78.4151 81.6127 78.4584C81.8447 78.5017 82.0766 78.5234 82.3085 78.5234C82.5836 78.5234 82.8424 78.4855 83.0798 78.4151C83.3172 78.3448 83.5329 78.2474 83.7163 78.1283C83.8997 78.0094 84.056 77.8795 84.1801 77.7334C84.3042 77.5928 84.385 77.4467 84.4228 77.306C84.4552 77.1869 84.4391 77.1113 84.3689 77.0734C84.3042 77.0409 84.234 77.0355 84.1585 77.0572C84.083 77.0896 83.9968 77.1113 83.8943 77.1167C83.7918 77.1274 83.6947 77.1167 83.5921 77.0951C83.4898 77.068 83.3981 77.0247 83.3063 76.9598C83.2146 76.8948 83.1391 76.792 83.0852 76.6621C83.0097 76.4999 82.9557 76.2726 82.9288 75.9859C82.9018 75.6991 82.8749 75.3366 82.8479 74.9038C82.8372 74.5089 82.8047 74.1302 82.7508 73.7732C82.6969 73.416 82.6052 73.1239 82.4704 72.8912C82.3624 72.7019 82.233 72.545 82.0766 72.4205C81.9202 72.2962 81.7637 72.1933 81.6073 72.123C81.4509 72.0526 81.3107 71.9985 81.1812 71.9661C81.0572 71.9336 80.9656 71.9119 80.917 71.9011C80.8738 71.8957 80.8522 71.8795 80.863 71.8471C80.8685 71.8201 80.8954 71.7984 80.9493 71.7876C81.4563 71.6415 81.8931 71.4304 82.2599 71.16C82.6267 70.8841 82.9179 70.4945 83.1446 69.9913C83.274 69.71 83.3603 69.4017 83.3927 69.077C83.425 68.747 83.4143 68.4278 83.3549 68.114C83.2956 67.8002 83.1931 67.4973 83.0421 67.2105C82.8965 66.9238 82.7023 66.6748 82.4704 66.4693C82.1791 66.215 81.8824 66.0257 81.5696 65.8904C81.2567 65.7659 80.9331 65.6685 80.6041 65.6145ZM80.0379 69.7696C79.9515 70.1266 79.8382 70.4242 79.698 70.6622C79.5577 70.9003 79.396 71.0788 79.2072 71.2087C79.0238 71.3386 78.8296 71.4304 78.63 71.49C78.4305 71.5495 78.2363 71.5874 78.0367 71.5982C77.8371 71.609 77.6592 71.6144 77.4974 71.6144C77.3518 71.6144 77.2816 71.5441 77.2816 71.4088V67.5081C77.2816 67.2429 77.314 67.0212 77.3787 66.8372C77.4435 66.6532 77.5405 66.5018 77.6592 66.3827C77.7832 66.2637 77.9289 66.1771 78.0961 66.123C78.2632 66.069 78.4521 66.0419 78.6624 66.0419C78.8944 66.0419 79.1047 66.0852 79.288 66.1663C79.4715 66.2474 79.6279 66.3827 79.7573 66.5667C79.8867 66.7506 79.9838 66.9995 80.054 67.3025C80.1241 67.6054 80.1564 67.9896 80.1564 68.4441C80.1673 68.9689 80.1241 69.4125 80.0379 69.7696Z" fill="white"/>
<path d="M86.8207 77.2239C86.6966 77.4079 86.551 77.5539 86.3837 77.6567C86.2165 77.765 86.0547 77.8407 85.8875 77.8786C85.7257 77.9219 85.607 77.949 85.5315 77.9598C85.4776 77.9706 85.4344 77.9922 85.4021 78.0246C85.3751 78.057 85.3589 78.0895 85.3643 78.122C85.3698 78.1545 85.3859 78.1869 85.4182 78.214C85.4507 78.2411 85.4992 78.2573 85.5585 78.2573H92.1334C93.2067 78.2573 94.1452 78.0895 94.9435 77.7541C95.7418 77.4187 96.4051 76.9589 96.9337 76.3745C97.4624 75.7902 97.856 75.1086 98.115 74.3294C98.3738 73.5504 98.5033 72.7119 98.5033 71.8136C98.5033 70.9318 98.3792 70.1041 98.1366 69.3359C97.8938 68.5675 97.5163 67.8967 97.0038 67.334C96.4969 66.7659 95.8496 66.3223 95.0676 65.9923C94.2854 65.6622 93.3577 65.5 92.2844 65.5H85.5585C85.4937 65.5 85.4507 65.5162 85.4182 65.5433C85.3859 65.5702 85.3698 65.6027 85.3643 65.6352C85.3589 65.6676 85.3751 65.7055 85.4021 65.738C85.4291 65.7705 85.4721 65.7921 85.5315 65.7975C85.607 65.8083 85.7257 65.8408 85.8875 65.8841C86.0494 65.9274 86.2165 66.0032 86.3837 66.1058C86.551 66.2087 86.6966 66.3548 86.8207 66.5387C86.9446 66.7227 87.0094 66.9608 87.0094 67.2529V76.4936C87.0094 76.8019 86.9446 77.0455 86.8207 77.2239ZM90.1161 66.6685C90.1161 66.4901 90.1701 66.3494 90.2833 66.2411C90.3966 66.1329 90.5477 66.0788 90.7472 66.0788C90.8442 66.0788 90.9629 66.0788 91.1032 66.0788C91.2488 66.0788 91.3945 66.0788 91.5455 66.0842C91.6965 66.0896 91.8367 66.0896 91.9716 66.095C92.101 66.1004 92.2089 66.1004 92.2844 66.1113C92.7429 66.1545 93.1366 66.3223 93.4657 66.6144C93.7945 66.9067 94.0642 67.307 94.2693 67.8047C94.4742 68.3079 94.6306 68.9031 94.7277 69.5901C94.8248 70.2826 94.8734 71.0454 94.8734 71.884C94.8734 72.7281 94.8248 73.5071 94.7223 74.2158C94.6199 74.9246 94.458 75.536 94.2369 76.05C94.0157 76.5639 93.7299 76.9643 93.3847 77.2564C93.0396 77.5485 92.6242 77.6892 92.1334 77.6892C91.7504 77.6892 91.4322 77.6188 91.1733 77.4729C90.9144 77.3267 90.7094 77.094 90.553 76.7803C90.3966 76.4611 90.2833 76.0554 90.2187 75.5576C90.1539 75.0599 90.1216 74.4539 90.1216 73.7451V66.6685H90.1161Z" fill="white"/>
<path d="M33.3062 56.9206C33.1336 57.1694 32.934 57.3642 32.7075 57.5103C32.481 57.6563 32.2543 57.7591 32.0333 57.8132C31.8121 57.8674 31.6503 57.9052 31.5478 57.9215C31.4723 57.9377 31.413 57.9702 31.3752 58.0135C31.3375 58.0566 31.3213 58.0999 31.3213 58.1486C31.3266 58.1973 31.3482 58.2406 31.3914 58.2785C31.4346 58.3164 31.4992 58.338 31.5856 58.338H40.0374C41.1754 58.338 42.1356 58.2136 42.9176 57.9648C43.6998 57.7158 44.3308 57.3804 44.8162 56.953C45.3017 56.5311 45.6468 56.0387 45.8626 55.4814C46.0784 54.9242 46.1808 54.3344 46.1808 53.7177C46.1808 53.2523 46.1269 52.8033 46.0243 52.3597C45.922 51.916 45.7385 51.5049 45.4743 51.1262C45.2099 50.7421 44.8485 50.4012 44.3955 50.0982C43.9424 49.7953 43.3653 49.5518 42.6641 49.3733C42.6102 49.3571 42.5832 49.33 42.5724 49.303C42.5617 49.2705 42.5832 49.2434 42.6372 49.2218C43.1334 48.9891 43.5488 48.7186 43.8885 48.4103C44.2282 48.1018 44.4979 47.7664 44.6975 47.4094C44.8972 47.0468 45.0427 46.6735 45.1291 46.2786C45.2153 45.8837 45.2585 45.4888 45.2585 45.0938C45.2585 44.5257 45.1776 43.9955 45.0211 43.4924C44.8647 42.9892 44.6005 42.551 44.2283 42.1777C43.8562 41.8043 43.3707 41.5122 42.7666 41.2957C42.1625 41.0794 41.4128 40.9766 40.5174 40.9766H31.5856C31.4992 40.9766 31.4346 40.9982 31.3914 41.0361C31.3482 41.074 31.3266 41.1173 31.3213 41.166C31.3159 41.2147 31.3321 41.2633 31.3752 41.3065C31.413 41.3553 31.4723 41.3823 31.5478 41.3877C31.6503 41.404 31.8121 41.4418 32.0333 41.5014C32.2543 41.5609 32.481 41.6637 32.7075 41.8043C32.934 41.945 33.1336 42.1452 33.3062 42.394C33.4788 42.6484 33.565 42.973 33.565 43.3679V55.9467C33.5597 56.3471 33.4788 56.6716 33.3062 56.9206ZM37.7937 44.4554C37.7937 43.9901 37.8099 43.5898 37.8476 43.238C37.88 42.8918 37.95 42.5997 38.0525 42.3616C38.1551 42.1236 38.3006 41.9504 38.4948 41.8314C38.689 41.7178 38.9371 41.6583 39.2445 41.6583C39.6221 41.6583 39.9134 41.7556 40.1292 41.9558C40.3448 42.1506 40.5067 42.4103 40.6145 42.7186C40.7279 43.0325 40.7925 43.3787 40.8195 43.7682C40.8464 44.1523 40.8573 44.5366 40.8573 44.9152C40.8573 45.7809 40.7818 46.4842 40.6253 47.0199C40.4689 47.5554 40.2802 47.9721 40.0482 48.2696C39.8163 48.5671 39.5682 48.7673 39.2986 48.8702C39.0289 48.9728 38.7806 49.027 38.5596 49.027C38.3115 49.027 38.1226 48.9566 37.9878 48.816C37.8529 48.6753 37.7883 48.4859 37.7883 48.2425V44.4554H37.7937ZM37.7937 50.5148C37.7937 50.2768 37.8692 50.082 38.0255 49.9413C38.182 49.8007 38.387 49.7304 38.6567 49.7304C38.7861 49.7304 38.9479 49.7358 39.1367 49.752C39.3309 49.7628 39.5305 49.8061 39.7408 49.8819C39.9512 49.9521 40.1615 50.0712 40.3664 50.2281C40.5767 50.3849 40.7656 50.6122 40.9382 50.9043C41.1108 51.1965 41.2456 51.5644 41.348 52.0189C41.4505 52.4679 41.5044 53.0198 41.5044 53.6745C41.5044 53.8637 41.4992 54.091 41.4937 54.3561C41.4829 54.6212 41.4614 54.9025 41.429 55.1946C41.3966 55.4869 41.3373 55.7735 41.2564 56.0658C41.1754 56.3525 41.0569 56.6121 40.9112 56.8448C40.7602 57.0774 40.5714 57.2614 40.3448 57.4021C40.1183 57.5428 39.8379 57.613 39.5035 57.613C39.1528 57.613 38.867 57.5428 38.6512 57.3967C38.4355 57.2505 38.2575 57.045 38.1335 56.7853C38.0041 56.5256 37.9177 56.2064 37.8692 55.8277C37.8206 55.449 37.799 55.0324 37.799 54.5671V50.5148H37.7937Z" fill="white"/>
<path d="M49.3211 41.0259C49.278 41.0638 49.2564 41.1071 49.251 41.1558C49.2456 41.2043 49.2617 41.253 49.3049 41.2963C49.3427 41.345 49.402 41.3721 49.4775 41.3775C49.58 41.3937 49.7419 41.4316 49.963 41.4912C50.1842 41.5507 50.4107 41.6534 50.6371 41.7941C50.8636 41.9348 51.0633 42.1349 51.2358 42.3838C51.4084 42.638 51.4948 42.9628 51.4948 43.3577V55.9365C51.4948 56.3423 51.4084 56.6668 51.2358 56.9158C51.0633 57.1646 50.8636 57.3594 50.6371 57.5054C50.4107 57.6515 50.1842 57.7543 49.963 57.8084C49.7419 57.8626 49.58 57.9004 49.4775 57.9167C49.402 57.9328 49.3427 57.9652 49.3049 58.0085C49.2672 58.0518 49.251 58.0951 49.251 58.1438C49.2564 58.1925 49.278 58.2358 49.3211 58.2737C49.3643 58.3116 49.429 58.3332 49.5153 58.3332H63.1343C63.3123 58.3332 63.4039 58.2521 63.4039 58.0897V54.6704C63.4039 54.5353 63.35 54.4595 63.2368 54.4433C63.1235 54.4324 63.0426 54.492 62.994 54.6271C62.9617 54.7029 62.8969 54.8328 62.8107 55.006C62.719 55.1844 62.5949 55.3792 62.4385 55.5902C62.282 55.8066 62.0879 56.0284 61.8614 56.2665C61.6349 56.5045 61.3705 56.7155 61.0685 56.9049C60.7665 57.0942 60.4213 57.2512 60.0437 57.3756C59.6608 57.5 59.2401 57.5595 58.7815 57.5595C57.8053 57.5595 57.0556 57.4027 56.527 57.0834C55.9985 56.7642 55.7341 56.3044 55.7341 55.693V49.9635C55.7341 49.9094 55.7557 49.8661 55.7935 49.8282C55.8312 49.7904 55.8744 49.7689 55.9283 49.7689H57.568C57.9509 49.7689 58.2692 49.8445 58.5119 50.0014C58.7546 50.1584 58.9488 50.3368 59.0891 50.5425C59.2292 50.748 59.3317 50.9536 59.3911 51.1539C59.4504 51.354 59.4882 51.5055 59.5043 51.6083C59.5151 51.6787 59.5421 51.7272 59.5853 51.7543C59.6337 51.7868 59.6769 51.7976 59.7255 51.7922C59.774 51.7868 59.8172 51.7651 59.8549 51.7272C59.8927 51.6895 59.9143 51.6354 59.9143 51.565V47.1935C59.9143 47.1232 59.8927 47.0691 59.8549 47.0312C59.8172 46.9933 59.774 46.9716 59.7255 46.9662C59.6769 46.9608 59.6337 46.9771 59.5853 47.0041C59.5367 47.0366 59.5098 47.0853 59.5043 47.1502C59.4882 47.2531 59.4504 47.4045 59.3911 47.6047C59.3317 47.8049 59.2292 48.0104 59.0891 48.2161C58.9488 48.4216 58.7546 48.6002 58.5119 48.7571C58.2692 48.9139 57.9563 48.9897 57.568 48.9897H55.9283C55.8744 48.9897 55.8312 48.968 55.7935 48.9302C55.7557 48.8923 55.7341 48.849 55.7341 48.795V43.5578C55.7341 43.2224 55.7989 42.9411 55.9338 42.703C56.0686 42.465 56.2519 42.2756 56.4838 42.1241C56.7212 41.9727 57.0017 41.8644 57.3361 41.7941C57.6705 41.7237 58.0373 41.6913 58.4364 41.6913C59.0082 41.6913 59.4989 41.7887 59.9089 41.9781C60.3188 42.1728 60.664 42.3946 60.9337 42.6489C61.2088 42.9032 61.4191 43.152 61.5755 43.3956C61.732 43.639 61.8344 43.8175 61.883 43.9312C61.953 44.0501 62.0394 44.1042 62.1418 44.0934C62.2443 44.0826 62.2982 44.0124 62.2982 43.8825V41.2043C62.2982 41.0421 62.2065 40.9609 62.0285 40.9609H49.51C49.429 40.9718 49.3643 40.988 49.3211 41.0259Z" fill="white"/>
<path d="M66.8436 58.508C66.9514 58.5242 67.0269 58.4755 67.0808 58.351C67.1672 58.1564 67.2536 57.9886 67.3506 57.8533C67.4423 57.718 67.5933 57.6532 67.7982 57.6532C67.9007 57.6532 68.0085 57.6694 68.1165 57.7073C68.2297 57.7397 68.3323 57.7775 68.4239 57.81C69.0927 58.0319 69.7832 58.2374 70.4951 58.4214C71.2071 58.6054 71.9297 58.6973 72.658 58.6973C73.8013 58.6973 74.7992 58.5567 75.646 58.2753C76.4928 57.994 77.194 57.6045 77.7495 57.1122C78.3051 56.6198 78.7204 56.0409 78.9847 55.3808C79.2544 54.7208 79.3892 54.012 79.3892 53.2601C79.3892 52.4971 79.2867 51.8209 79.0763 51.2258C78.866 50.636 78.5531 50.1058 78.1379 49.6351C77.7225 49.1699 77.2102 48.7479 76.5899 48.3692C75.975 47.9905 75.2631 47.6387 74.4594 47.3142C73.6287 46.9788 72.9438 46.6757 72.3936 46.4053C71.8489 46.1348 71.4065 45.8642 71.0775 45.5938C70.7486 45.3232 70.5167 45.0365 70.3764 44.7227C70.2416 44.4143 70.1714 44.0518 70.1714 43.6407C70.1714 42.921 70.4196 42.3477 70.9158 41.9309C71.412 41.509 72.1023 41.298 72.9923 41.298C73.6773 41.298 74.2599 41.39 74.7506 41.5739C75.2361 41.7579 75.6515 41.9959 75.9858 42.2935C76.3256 42.591 76.6061 42.9264 76.8273 43.3107C77.0483 43.6948 77.2425 44.0735 77.4044 44.463C77.4314 44.5225 77.4637 44.5658 77.5069 44.5874C77.5499 44.6091 77.5931 44.6199 77.6363 44.6145C77.6795 44.6091 77.7172 44.5874 77.7495 44.5496C77.7819 44.5117 77.7982 44.463 77.7982 44.4034V42.0608C77.7982 41.958 77.7495 41.8661 77.6417 41.7904C77.6147 41.7633 77.5069 41.6876 77.3234 41.5631C77.1347 41.4386 76.865 41.3035 76.509 41.1627C76.1531 41.022 75.7108 40.8923 75.1822 40.7786C74.6535 40.665 74.0225 40.6055 73.2944 40.6055C72.1509 40.6055 71.1855 40.7624 70.4033 41.0762C69.6213 41.39 68.9849 41.7958 68.4994 42.2935C68.014 42.7913 67.6634 43.3484 67.4476 43.9652C67.232 44.582 67.1294 45.1934 67.1294 45.8047C67.1294 46.2267 67.1834 46.6326 67.2913 47.0275C67.3991 47.4224 67.5501 47.8065 67.7443 48.1852C67.9655 48.6234 68.2405 49.0076 68.5588 49.343C68.8769 49.6784 69.233 49.9761 69.6159 50.2303C69.9988 50.4901 70.4033 50.7172 70.8294 50.9229C71.2502 51.1284 71.6816 51.3286 72.1186 51.5125C72.5123 51.6856 72.8952 51.8751 73.2728 52.086C73.6503 52.297 73.9848 52.5404 74.2815 52.8273C74.578 53.1085 74.81 53.4331 74.988 53.8011C75.166 54.1636 75.2522 54.5855 75.2522 55.0671C75.2522 55.5756 75.1767 56.0084 75.0257 56.3655C74.8747 56.7281 74.6751 57.0202 74.4216 57.2527C74.1682 57.4854 73.877 57.6532 73.5425 57.7613C73.2081 57.8695 72.8575 57.9237 72.4907 57.9237C71.8435 57.9237 71.2502 57.8317 70.7216 57.6424C70.193 57.453 69.7075 57.1771 69.2653 56.8145C68.823 56.4521 68.4239 55.9976 68.0572 55.4566C67.6958 54.9155 67.3559 54.2934 67.0485 53.5901C66.9946 53.471 66.9191 53.4223 66.8166 53.4439C66.7141 53.4656 66.6602 53.5468 66.6602 53.6929V58.2699C66.6817 58.4106 66.7357 58.4863 66.8436 58.508Z" fill="white"/>
<path d="M97.1033 40.9688H82.1251C81.9471 40.9688 81.8555 41.0499 81.8555 41.2123V44.7884C81.8555 44.9237 81.9094 44.9994 82.0226 45.0157C82.1359 45.0265 82.2168 44.967 82.2654 44.8317C82.2923 44.7559 82.3462 44.626 82.438 44.4367C82.5297 44.2527 82.6483 44.0418 82.8048 43.8145C82.9612 43.582 83.1445 43.3438 83.371 43.1004C83.5922 42.8569 83.851 42.6298 84.1477 42.4241C84.4444 42.2185 84.7787 42.0508 85.1564 41.9155C85.5339 41.7802 85.9492 41.7153 86.4131 41.7153C86.6882 41.7153 86.8986 41.7694 87.0496 41.8722C87.2006 41.9751 87.3084 42.1104 87.3786 42.278C87.4486 42.4458 87.4864 42.6352 87.5025 42.8461C87.5134 43.0572 87.5241 43.2681 87.5241 43.4845C87.5241 43.6305 87.5241 43.9174 87.5241 44.3393C87.5241 44.7613 87.5241 45.2699 87.5241 45.8596C87.5241 46.4494 87.5241 47.0931 87.5241 47.8019C87.5241 48.5106 87.5241 49.2248 87.5188 49.9497C87.5134 50.6748 87.5134 51.378 87.5134 52.0652C87.5134 52.7522 87.5134 53.369 87.5134 53.9263C87.5134 54.4781 87.5134 54.938 87.5134 55.3005C87.5134 55.6629 87.5134 55.8794 87.5134 55.9497C87.5134 56.3555 87.427 56.6801 87.2545 56.929C87.0819 57.1778 86.8823 57.3726 86.6558 57.5186C86.4293 57.6647 86.2028 57.7675 85.9816 57.8217C85.7605 57.8758 85.5986 57.9137 85.4961 57.9299C85.4206 57.9461 85.3613 57.9786 85.3235 58.0218C85.2858 58.0651 85.2696 58.1084 85.2696 58.1571C85.2751 58.2058 85.2966 58.2491 85.3397 58.2869C85.3829 58.3248 85.4476 58.3465 85.5339 58.3465H93.7161C93.8024 58.3465 93.8671 58.3248 93.9103 58.2869C93.9534 58.2491 93.975 58.2058 93.9804 58.1571C93.9858 58.1084 93.9695 58.0651 93.9265 58.0218C93.8887 57.9786 93.8294 57.9515 93.7539 57.9299C93.6514 57.9137 93.4895 57.8758 93.2684 57.8217C93.0472 57.7675 92.8207 57.6647 92.5942 57.5186C92.3676 57.3726 92.1681 57.1778 91.9956 56.929C91.823 56.6801 91.7366 56.3555 91.7366 55.9497V42.8948C91.7475 42.7379 91.7689 42.5919 91.8014 42.4458C91.8337 42.2996 91.893 42.1753 91.974 42.0671C92.0549 41.9588 92.1627 41.8722 92.303 41.8073C92.4378 41.7424 92.6158 41.7099 92.8315 41.7099C93.2953 41.7099 93.7107 41.7748 94.0829 41.9101C94.455 42.0454 94.7894 42.2131 95.0914 42.4187C95.3881 42.6243 95.6524 42.8515 95.8736 43.095C96.0946 43.3384 96.2835 43.5765 96.4399 43.8091C96.5962 44.0418 96.7149 44.2473 96.8013 44.4313C96.8875 44.6152 96.9468 44.7451 96.9793 44.8263C97.0332 44.9616 97.1141 45.0265 97.222 45.0103C97.3352 44.9994 97.3891 44.9237 97.3891 44.783V41.2069C97.373 41.0499 97.2867 40.9688 97.1033 40.9688Z" fill="white"/>
</g>
</g>
<defs>
<clipPath id="clip0_37706_236">
<rect width="129" height="115" fill="white"/>
</clipPath>
</defs>
</svg>
