<svg width="179" height="40" viewBox="0 0 179 40" fill="none" xmlns="http://www.w3.org/2000/svg">
<path d="M36.5 31.1582H33.0879V11.3115L20 4.28613L6.91113 11.3115V31.1582H3.5V9.42578L3.76367 9.28418L4.36621 8.95996L19.1602 1.02051V1.01953L19.7637 0.696289L20 0.569336L20.2363 0.696289L20.8398 1.01953L35.6338 8.95996L36.2363 9.28418L36.5 9.42578V31.1582Z" fill="#191919" stroke="#191919"/>
<path fill-rule="evenodd" clip-rule="evenodd" d="M0 23.3834V36.3876L20 25.0552L40 36.3876V23.3834L20 12.0508L0 23.3834Z" fill="#ED5518"/>
<path d="M20 30.1406H16V34.1406H20V30.1406Z" fill="#191919"/>
<path d="M25 30.1406H21V34.1406H25V30.1406Z" fill="#191919"/>
<path d="M20 35.1406H16V39.1406H20V35.1406Z" fill="#191919"/>
<path d="M25 35.1406H21V39.1406H25V35.1406Z" fill="#191919"/>
<path d="M64.784 31.1367H53.904V8.35672H64.376C68.83 8.35672 71.516 10.1927 71.516 14.0347C71.516 16.6867 70.02 18.4887 67.096 18.9307V19.2027C70.564 19.6447 72.332 21.8887 72.332 24.8807C72.332 28.7567 69.578 31.1367 64.784 31.1367ZM57.576 11.6547V17.8087H64.036C66.79 17.8087 67.878 17.0607 67.878 14.7487C67.878 12.4027 66.892 11.6547 64.138 11.6547H57.576ZM57.576 20.8687V27.8387H64.682C67.436 27.8387 68.626 27.0567 68.626 24.3707C68.626 21.6507 67.436 20.8687 64.682 20.8687H57.576ZM81.6408 31.4767C77.2208 31.4767 75.2488 28.5187 75.2488 24.6767V14.2387H78.9208V24.0307C78.9208 27.0567 80.0768 28.3147 83.0008 28.3147C85.8228 28.3147 87.4208 27.0907 87.4208 23.7587V14.2387H91.0928V31.1367H87.6928V27.7707H87.5568C86.7408 29.7087 84.9388 31.4767 81.6408 31.4767ZM98.1423 12.0967H94.5043L94.4703 8.35672H98.1423V12.0967ZM98.1763 31.1367H94.5043V14.1367H98.1763V31.1367ZM105.22 31.1367H101.548V8.35672H105.22V31.1367ZM115.453 31.4767C110.625 31.4767 108.007 28.0427 108.007 22.6707C108.007 17.3327 110.591 13.8987 115.249 13.8987C118.241 13.8987 120.043 15.3267 120.791 16.8567H120.893V8.35672H124.531V31.1367H121.165V28.3487H121.029C120.213 30.2867 118.343 31.4767 115.453 31.4767ZM111.679 22.6707C111.679 26.8527 113.005 28.3487 116.269 28.3487C119.261 28.3487 120.893 27.0227 120.893 24.2007V21.1747C120.893 18.3527 119.261 17.0267 116.269 17.0267C113.039 17.0267 111.679 18.5227 111.679 22.6707ZM132.602 31.4767C129.576 31.4767 127.23 29.9127 127.23 26.9547C127.23 24.1667 129.27 22.7047 132.874 22.1947L138.79 21.3107V20.3927C138.79 17.8767 137.634 17.1287 134.982 17.1287C132.296 17.1287 131.242 17.9787 131.242 20.2227V20.7327H127.706V20.3927C127.706 16.6187 130.664 13.8987 135.186 13.8987C139.912 13.8987 142.292 16.7547 142.292 20.8687V31.1367H138.892V28.4847H138.722C137.736 30.0827 135.798 31.4767 132.602 31.4767ZM130.8 26.6827C130.8 28.0087 131.65 28.5527 133.792 28.5527C136.172 28.5527 138.79 27.6007 138.79 24.2007V23.8947L133.418 24.7107C131.48 24.9827 130.8 25.4247 130.8 26.6827ZM149.48 31.1367H145.808V14.1367H149.174V16.8227H149.344C150.024 15.2587 151.588 13.8987 154.07 13.8987C157.606 13.8987 158.966 16.4827 158.966 19.6447V20.7667H155.294V20.0867C155.294 17.8427 154.648 17.0267 152.506 17.0267C150.296 17.0267 149.48 17.8767 149.48 20.1207V31.1367ZM169.066 31.4767C163.864 31.4767 160.634 27.9407 160.634 22.6707C160.634 17.4347 163.864 13.8987 169.066 13.8987C174.234 13.8987 177.362 17.4347 177.362 22.6707C177.362 27.9407 174.234 31.4767 169.066 31.4767ZM169.066 28.2127C172.602 28.2127 173.826 26.4787 173.826 22.6707C173.826 18.8967 172.602 17.1627 169.066 17.1627C165.496 17.1627 164.238 18.8967 164.238 22.6707C164.238 26.4787 165.496 28.2127 169.066 28.2127Z" fill="#191919"/>
</svg>
