<svg width="202" height="39" viewBox="0 0 202 39" fill="none" xmlns="http://www.w3.org/2000/svg">
<path fill-rule="evenodd" clip-rule="evenodd" d="M33.5004 31.5935V10.5813L19.9526 2.78027L6.40439 10.5813V31.5935H4V9.89231V9.20307L4.60116 8.85706L19.3515 0.363855L19.9526 0.0175781L20.5538 0.363855L35.3039 8.85706L35.9051 9.20307V9.89231V31.5935H33.5004Z" fill="white"/>
<path fill-rule="evenodd" clip-rule="evenodd" d="M0 23.114V36.3291L20 24.813L40 36.3291V23.114L20 11.5977L0 23.114Z" fill="#ED5518"/>
<path d="M20 29.9824H16V33.9824H20V29.9824Z" fill="white"/>
<path d="M25 29.9824H21V33.9824H25V29.9824Z" fill="white"/>
<path d="M20 34.9824H16V38.9824H20V34.9824Z" fill="white"/>
<path d="M25 34.9824H21V38.9824H25V34.9824Z" fill="white"/>
<path d="M64.032 30H53.792V8.56H63.648C67.84 8.56 70.368 10.288 70.368 13.904C70.368 16.4 68.96 18.096 66.208 18.512V18.768C69.472 19.184 71.136 21.296 71.136 24.112C71.136 27.76 68.544 30 64.032 30ZM57.248 11.664V17.456H63.328C65.92 17.456 66.944 16.752 66.944 14.576C66.944 12.368 66.016 11.664 63.424 11.664H57.248ZM57.248 20.336V26.896H63.936C66.528 26.896 67.648 26.16 67.648 23.632C67.648 21.072 66.528 20.336 63.936 20.336H57.248ZM83.098 30.32C77.274 30.32 73.978 27.088 73.978 21.616V8.56H77.402V21.616C77.402 25.488 78.874 26.992 83.098 26.992C87.29 26.992 88.762 25.488 88.762 21.616V8.56H92.218V21.616C92.218 27.088 88.89 30.32 83.098 30.32ZM99.248 30H95.792V8.56H99.248V30ZM117.766 30H102.886V8.56H106.342V26.896H117.766V30ZM126.97 30H119.355V8.56H126.97C133.595 8.56 137.819 12.656 137.819 19.28C137.819 25.904 133.595 30 126.97 30ZM126.97 11.664H122.811V26.896H126.97C132.091 26.896 134.139 24.784 134.139 19.28C134.139 13.776 132.091 11.664 126.97 11.664ZM141.529 30H137.913L146.265 8.56H151.225L159.577 30H155.833L153.657 24.432H143.705L141.529 30ZM147.161 15.664L144.921 21.328H152.441L150.201 15.664L148.825 11.696H148.569L147.161 15.664ZM164.467 30H161.011V8.56H170.227C174.963 8.56 177.939 10.896 177.939 14.96C177.939 18.512 175.763 20.656 171.987 20.848V21.104C173.555 21.616 174.483 22.576 175.283 24.048L178.483 30H174.483L171.443 24.464C170.451 22.608 169.555 21.744 166.995 21.744H164.467V30ZM164.467 11.664V18.896H170.643C173.427 18.896 174.483 17.872 174.483 15.28C174.483 12.752 173.427 11.664 170.643 11.664H164.467ZM189.918 30.32C183.806 30.32 179.902 25.968 179.902 19.28C179.902 12.592 183.806 8.24 189.918 8.24C195.998 8.24 199.902 12.592 199.902 19.28C199.902 25.968 195.998 30.32 189.918 30.32ZM189.918 26.992C194.366 26.992 196.222 24.848 196.222 19.28C196.222 13.712 194.366 11.568 189.918 11.568C185.47 11.568 183.582 13.712 183.582 19.28C183.582 24.848 185.47 26.992 189.918 26.992Z" fill="white"/>
</svg>
