<svg width="184" height="44" viewBox="0 0 184 44" fill="none" xmlns="http://www.w3.org/2000/svg">
<path d="M41.0078 35.2207H37.2949V12.6699L22.5068 4.64355L7.7207 12.6689V35.2207H4.00781V10.6084L4.26953 10.4668L4.94727 10.0986L21.5908 1.06543L22.2695 0.697266L22.5078 0.567383L22.7461 0.697266L23.4248 1.06543L40.0684 10.0986L40.7461 10.4668L41.0078 10.6084V35.2207Z" fill="#191919" stroke="#191919"/>
<path fill-rule="evenodd" clip-rule="evenodd" d="M0 26.4509V41.2449L22.5 28.3528L45 41.2449V26.4509L22.5 13.5586L0 26.4509Z" fill="#ED5518"/>
<path d="M21.9922 34.1367H17.9922V38.1367H21.9922V34.1367Z" fill="#191919"/>
<path d="M26.9922 34.1367H22.9922V38.1367H26.9922V34.1367Z" fill="#191919"/>
<path d="M21.9922 39.1367H17.9922V43.1367H21.9922V39.1367Z" fill="#191919"/>
<path d="M26.9922 39.1367H22.9922V43.1367H26.9922V39.1367Z" fill="#191919"/>
<path d="M69.784 33.1367H58.904V10.3567H69.376C73.83 10.3567 76.516 12.1927 76.516 16.0347C76.516 18.6867 75.02 20.4887 72.096 20.9307V21.2027C75.564 21.6447 77.332 23.8887 77.332 26.8807C77.332 30.7567 74.578 33.1367 69.784 33.1367ZM62.576 13.6547V19.8087H69.036C71.79 19.8087 72.878 19.0607 72.878 16.7487C72.878 14.4027 71.892 13.6547 69.138 13.6547H62.576ZM62.576 22.8687V29.8387H69.682C72.436 29.8387 73.626 29.0567 73.626 26.3707C73.626 23.6507 72.436 22.8687 69.682 22.8687H62.576ZM86.6408 33.4767C82.2208 33.4767 80.2488 30.5187 80.2488 26.6767V16.2387H83.9208V26.0307C83.9208 29.0567 85.0768 30.3147 88.0008 30.3147C90.8228 30.3147 92.4208 29.0907 92.4208 25.7587V16.2387H96.0928V33.1367H92.6928V29.7707H92.5568C91.7408 31.7087 89.9388 33.4767 86.6408 33.4767ZM103.142 14.0967H99.5043L99.4703 10.3567H103.142V14.0967ZM103.176 33.1367H99.5043V16.1367H103.176V33.1367ZM110.22 33.1367H106.548V10.3567H110.22V33.1367ZM120.453 33.4767C115.625 33.4767 113.007 30.0427 113.007 24.6707C113.007 19.3327 115.591 15.8987 120.249 15.8987C123.241 15.8987 125.043 17.3267 125.791 18.8567H125.893V10.3567H129.531V33.1367H126.165V30.3487H126.029C125.213 32.2867 123.343 33.4767 120.453 33.4767ZM116.679 24.6707C116.679 28.8527 118.005 30.3487 121.269 30.3487C124.261 30.3487 125.893 29.0227 125.893 26.2007V23.1747C125.893 20.3527 124.261 19.0267 121.269 19.0267C118.039 19.0267 116.679 20.5227 116.679 24.6707ZM137.602 33.4767C134.576 33.4767 132.23 31.9127 132.23 28.9547C132.23 26.1667 134.27 24.7047 137.874 24.1947L143.79 23.3107V22.3927C143.79 19.8767 142.634 19.1287 139.982 19.1287C137.296 19.1287 136.242 19.9787 136.242 22.2227V22.7327H132.706V22.3927C132.706 18.6187 135.664 15.8987 140.186 15.8987C144.912 15.8987 147.292 18.7547 147.292 22.8687V33.1367H143.892V30.4847H143.722C142.736 32.0827 140.798 33.4767 137.602 33.4767ZM135.8 28.6827C135.8 30.0087 136.65 30.5527 138.792 30.5527C141.172 30.5527 143.79 29.6007 143.79 26.2007V25.8947L138.418 26.7107C136.48 26.9827 135.8 27.4247 135.8 28.6827ZM154.48 33.1367H150.808V16.1367H154.174V18.8227H154.344C155.024 17.2587 156.588 15.8987 159.07 15.8987C162.606 15.8987 163.966 18.4827 163.966 21.6447V22.7667H160.294V22.0867C160.294 19.8427 159.648 19.0267 157.506 19.0267C155.296 19.0267 154.48 19.8767 154.48 22.1207V33.1367ZM174.066 33.4767C168.864 33.4767 165.634 29.9407 165.634 24.6707C165.634 19.4347 168.864 15.8987 174.066 15.8987C179.234 15.8987 182.362 19.4347 182.362 24.6707C182.362 29.9407 179.234 33.4767 174.066 33.4767ZM174.066 30.2127C177.602 30.2127 178.826 28.4787 178.826 24.6707C178.826 20.8967 177.602 19.1627 174.066 19.1627C170.496 19.1627 169.238 20.8967 169.238 24.6707C169.238 28.4787 170.496 30.2127 174.066 30.2127Z" fill="#191919"/>
</svg>
